<svg xmlns="http://www.w3.org/2000/svg" viewBox="0 0 226.8 226.8"><defs><style>.cls-1{fill:#c6c6c6;}.cls-2{fill:#2e3192;}</style></defs><title>Artboard 11 copy</title><g id="Layer_2" data-name="Layer 2"><path class="cls-1" d="M102.05,105.67c3.46-3.42,6.68-6.47,9.74-9.21h0a6.43,6.43,0,0,1,4.3-1.64,6.35,6.35,0,0,1,4.27,1.63h0c3.06,2.75,6.28,5.8,9.75,9.22,10,9.82,20.57,21.83,30.06,33-8.19-11.4-17.26-23.45-25.9-33.5-4.06-4.74-7.78-8.83-11.3-12.44l0,0a9.53,9.53,0,0,0-13.42-.31h0c-3.62,3.7-7.45,7.9-11.65,12.79-8.63,10.05-17.7,22.1-25.89,33.5C81.47,127.5,92.1,115.49,102.05,105.67Z"/><path class="cls-2" d="M95.58,80.51c13.28-12.39,26.08-15.87,33.77-13.58-3.12-4.87-6.27-9.51-9.41-13.8h0a4.79,4.79,0,0,0-7.72.05v0A334.59,334.59,0,0,0,93,83.21C93.83,82.23,94.71,81.33,95.58,80.51Z"/><path class="cls-2" d="M136.29,78.2a25.58,25.58,0,0,1-4.68,10.09l-.49-.15A9.87,9.87,0,0,0,130.89,77c-2-2.89-6.87-7.89-23.51.71C99.47,81.81,90.64,91.26,84,99.35c-8.26,15.43-15.58,30.58-21,42.38l.9.52c8.82-12.41,18.89-25.94,28.42-37a231,231,0,0,1,16.75-17.8l0,0a10.13,10.13,0,0,1,14.08.07l.08.07a232,232,0,0,1,16.64,17.69c9.53,11.1,19.6,24.63,28.42,37l.89-.52C161.28,124.51,149.32,100.13,136.29,78.2Z"/><path class="cls-2" d="M50.84,166.59l-1.14-2.35H42.89l-1.15,2.35H38.43l6.32-12.87h3.07l6.3,12.87Zm-2.6-5.38-1.92-4-2,4Z"/><polygon class="cls-2" points="65.03 166.59 58.42 161.54 57.83 161.54 57.83 166.59 54.9 166.59 54.9 153.72 57.83 153.72 57.83 158.51 58.42 158.51 64.68 153.72 69.75 153.72 61.43 160.02 70.13 166.59 65.03 166.59"/><rect class="cls-2" x="70.74" y="153.72" width="2.93" height="12.87"/><path class="cls-2" d="M77.31,161.58c0,.22,0,.35,0,.42a4.15,4.15,0,0,0,.11,1.27s0,.1.26.16a8.1,8.1,0,0,0,1.93.14c.72,0,1.4,0,2-.09a2.14,2.14,0,0,0,.49-.08.28.28,0,0,0,.09-.07.73.73,0,0,0,.12-.37c0-.31.06-1.19.06-2.62v-6.62h2.93v6.62c0,1.59,0,2.59-.08,3a3.91,3.91,0,0,1-.68,1.94,2.89,2.89,0,0,1-1.62,1,15.22,15.22,0,0,1-3.58.28,9.53,9.53,0,0,1-2.94-.35,2.81,2.81,0,0,1-1.84-2.41,16.42,16.42,0,0,1-.13-2.22"/><path class="cls-2" d="M94.49,166.59V153.72h6.94c2.22.05,2.78.11,3,.14a2.63,2.63,0,0,1,1.22.54,2.83,2.83,0,0,1,.83,1.11,6.47,6.47,0,0,1,.38,2.52,8.4,8.4,0,0,1-.19,2,3.06,3.06,0,0,1-.78,1.43,2.94,2.94,0,0,1-1.13.71,6.34,6.34,0,0,1-1.52.21H97.42v4.2Zm6.94-7.23a17.71,17.71,0,0,0,2.09-.06.53.53,0,0,0,.29-.12.51.51,0,0,0,0-.15,5.17,5.17,0,0,0,.06-.95,6.37,6.37,0,0,0,0-1,.25.25,0,0,0,0-.09.57.57,0,0,0-.29-.11c-.14,0-.61-.06-2.14-.09h-4v2.61Z"/><polygon class="cls-2" points="107.86 166.59 107.86 153.72 110.8 153.72 110.8 163.56 118.42 163.56 118.42 166.59 107.86 166.59"/><path class="cls-2" d="M131.8,166.59l-1.14-2.35h-6.81l-1.15,2.35h-3.31l6.32-12.87h3.07l6.3,12.87Zm-2.59-5.38-1.93-4-2,4Z"/><path class="cls-2" d="M144.89,158.74a4.26,4.26,0,0,1,.82.21A2.77,2.77,0,0,1,147,160a4.49,4.49,0,0,1,.58,2.45,5,5,0,0,1-.46,2.32,3.07,3.07,0,0,1-2.14,1.53,21.72,21.72,0,0,1-4.39.3,18.59,18.59,0,0,1-2.48-.12,3.78,3.78,0,0,1-1.53-.52,2.71,2.71,0,0,1-1.07-1.31,5.53,5.53,0,0,1-.27-1.94l0-.15,2.89.11v.21c0,.64.05.44.07.53h0a12.12,12.12,0,0,0,3.17.19,13,13,0,0,0,2.9-.22c.08,0,.3-.08.3-.82a2.18,2.18,0,0,0-.08-.74s0,0-.06-.05a2.53,2.53,0,0,0-.74-.11c-.3,0-1.27,0-4.19,0a9.08,9.08,0,0,1-2.19-.3,3,3,0,0,1-1.51-1.13,4.4,4.4,0,0,1-.62-2.54,3.72,3.72,0,0,1,1-2.83,3.31,3.31,0,0,1,1-.67,6.08,6.08,0,0,1,1.4-.32,21.89,21.89,0,0,1,3.15-.19,13.45,13.45,0,0,1,2.69.21,3.76,3.76,0,0,1,1.77.85,2.87,2.87,0,0,1,.8,1.3,6.72,6.72,0,0,1,.2,1.82l0,.07h-2.95v-.23a2.08,2.08,0,0,0-.06-.69h0a.92.92,0,0,0-.45-.18,8.75,8.75,0,0,0-2.08-.17,17.36,17.36,0,0,0-2.68.15c-.65.11-.8.27-.8.28h0a1.2,1.2,0,0,0-.09.6,2.35,2.35,0,0,0,.06.67h0l.15.07a8,8,0,0,0,2.27.21l3.15,0,.53,0"/><path class="cls-2" d="M191,158.74a4.18,4.18,0,0,1,.83.21,2.75,2.75,0,0,1,1.29,1.08,4.4,4.4,0,0,1,.59,2.45,5.14,5.14,0,0,1-.46,2.32,3.07,3.07,0,0,1-2.14,1.53,21.84,21.84,0,0,1-4.4.3,18.69,18.69,0,0,1-2.48-.12,3.73,3.73,0,0,1-1.52-.52,2.73,2.73,0,0,1-1.08-1.31,5.81,5.81,0,0,1-.26-1.94l0-.15,2.88.11c0,.11,0,.18,0,.21,0,.64.05.44.07.53h0a12,12,0,0,0,3.16.19,13.08,13.08,0,0,0,2.91-.22c.08,0,.3-.08.3-.82a2,2,0,0,0-.09-.74s0,0,0-.05a2.56,2.56,0,0,0-.75-.11c-.29,0-1.26,0-4.18,0a9.14,9.14,0,0,1-2.2-.3,3,3,0,0,1-1.51-1.13,4.48,4.48,0,0,1-.61-2.54,3.68,3.68,0,0,1,1-2.83,3.31,3.31,0,0,1,1-.67,6.08,6.08,0,0,1,1.4-.32,21.8,21.8,0,0,1,3.15-.19,13.27,13.27,0,0,1,2.68.21,3.8,3.8,0,0,1,1.78.85,3,3,0,0,1,.8,1.3,7.15,7.15,0,0,1,.2,1.82v.07h-2.94v-.23a2.54,2.54,0,0,0-.06-.69h0a1,1,0,0,0-.45-.18,8.82,8.82,0,0,0-2.08-.17,17.36,17.36,0,0,0-2.68.15c-.65.11-.8.27-.8.28h0a1.1,1.1,0,0,0-.1.6,2.09,2.09,0,0,0,.07.67h0l.14.07a8.07,8.07,0,0,0,2.28.21l3.14,0,.54,0Z"/><polygon class="cls-2" points="153.31 166.59 153.31 156.75 148.45 156.75 148.45 153.72 161.07 153.72 161.07 156.75 156.24 156.75 156.24 166.59 153.31 166.59"/><rect class="cls-2" x="162.59" y="153.72" width="2.93" height="12.87"/><path class="cls-2" d="M174.27,166.62a23.74,23.74,0,0,1-4.55-.28,2.76,2.76,0,0,1-2.06-1.85,14.14,14.14,0,0,1-.42-4.16,20,20,0,0,1,.3-4.08,2.84,2.84,0,0,1,2.42-2.31,25,25,0,0,1,4.12-.25,16.14,16.14,0,0,1,3.78.31,2.77,2.77,0,0,1,1.31.76,2.64,2.64,0,0,1,.72,1.38,11.91,11.91,0,0,1,.14,2.12v.57h-2.81l0-.53c0-.21,0-.35,0-.42a2.76,2.76,0,0,0-.07-.8.37.37,0,0,0-.1-.07,9.14,9.14,0,0,0-3-.26,26,26,0,0,0-2.76.11,2.69,2.69,0,0,0-.79.18,1.85,1.85,0,0,0-.15.56,14.94,14.94,0,0,0-.12,2.13c0,.43,0,1,.05,1.74s.07,1.27.09,1.42a.87.87,0,0,0,.12.43.69.69,0,0,0,.39.11,26,26,0,0,0,3,.13c.4,0,.94,0,1.59-.05.85,0,1.12-.06,1.21-.07a1.61,1.61,0,0,0,.5-.14c0-.06.05-.32.07-1.4l0-.45h2.91l0,.49a16.79,16.79,0,0,1-.17,2.23,2.63,2.63,0,0,1-2.07,2.2A17.77,17.77,0,0,1,174.27,166.62Z"/></g></svg>