<svg xmlns="http://www.w3.org/2000/svg" width="263.036" height="158.013" viewBox="0 0 263.036 158.013">
  <g id="Group_330" data-name="Group 330" transform="translate(0 0.013)">
    <g id="Group_257" data-name="Group 257" transform="translate(68.397 2.562)">
      <path id="Path_1080" data-name="Path 1080" d="M299.347,173.53c0-1.9-.106-3.833-.3-5.853h-10.03L288.767,166a49.35,49.35,0,0,0-2.92-11.381l-.583-1.562s7.223-4.284,8.607-5.124a59.232,59.232,0,0,0-5.74-10.1c-2.092,1.231-8.627,5.091-8.627,5.091l-1.026-1.3a52.5,52.5,0,0,0-8.117-8.329l-1.291-1.033s4.2-7.435,4.985-8.871a61.281,61.281,0,0,0-9.858-5.892c-.808,1.437-5,8.878-5,8.878l-1.543-.622a48.937,48.937,0,0,0-11.089-3.026l-1.629-.238V112.217c-2.085-.2-3.953-.3-5.707-.3a56.594,56.594,0,0,0-5.74.311v10.255l-1.609.252a48.756,48.756,0,0,0-11.1,3.012l-1.523.622-5.012-8.878a62.9,62.9,0,0,0-9.851,5.892c1.2,2.158,4.979,8.871,4.979,8.871l-1.3,1.033a52.753,52.753,0,0,0-8.11,8.329l-1.013,1.311s-7.243-4.277-8.666-5.1a62.8,62.8,0,0,0-5.727,10.1c2.092,1.258,8.633,5.124,8.633,5.124l-.6,1.562A51.141,51.141,0,0,0,189.657,166l-.225,1.655H179.415a55.4,55.4,0,0,0,0,11.725h10.017l.225,1.668a51.991,51.991,0,0,0,2.946,11.374l.6,1.562s-7.236,4.283-8.633,5.118a61.883,61.883,0,0,0,5.727,10.11c1.424-.808,8.666-5.1,8.666-5.1l1.013,1.311a51.688,51.688,0,0,0,8.11,8.335l1.3,1.046s-4.184,7.408-5,8.845a61.547,61.547,0,0,0,9.871,5.9c1.225-2.152,5.012-8.858,5.012-8.858l1.523.622a49.81,49.81,0,0,0,11.1,3.012l1.609.245V234.83a55.055,55.055,0,0,0,5.74.291,54.27,54.27,0,0,0,5.707-.291V224.568l1.629-.245a49.729,49.729,0,0,0,11.109-3.012l1.523-.622s4.191,7.442,5,8.858a59.159,59.159,0,0,0,9.858-5.892c-1.192-2.145-4.985-8.858-4.985-8.858l1.291-1.04a50.56,50.56,0,0,0,8.117-8.329l1.026-1.317s7.25,4.3,8.646,5.1a60.523,60.523,0,0,0,5.72-10.11c-2.092-1.245-8.607-5.1-8.607-5.1l.583-1.556a49.9,49.9,0,0,0,2.92-11.394l.252-1.668h10.03C299.241,177.357,299.347,175.437,299.347,173.53Z" transform="translate(-179.104 -111.919)" fill="#fff"/>
    </g>
    <g id="Group_271" data-name="Group 271">
      <g id="Group_265" data-name="Group 265" transform="translate(65.908)">
        <g id="Group_264" data-name="Group 264">
          <g id="Group_263" data-name="Group 263">
            <g id="Group_262" data-name="Group 262">
              <path id="Path_1081" data-name="Path 1081" d="M206.515,180.7l-.152-3.847-5.091,2.125Zm-8.223.192-.119-3.582,12.983-5.939.139,3.416-2.708,1.132.232,5.548,2.781.9.119,3.33Zm.6-15.426,1.079-2.814,4.913,1.966-2.88-7.3,1.443-3.694,2.708,7.6,9.249-3.125-1.424,3.694-6.812,2.158.689,1.88,4.449,2.1-1.066,2.814ZM217.975,154.9l-1.966,2.337L206.4,148.7l1.973-2.344Zm-.384-7.382.166.252a4.962,4.962,0,0,0,1.49,1.516,1.3,1.3,0,0,0,1.43-.291,1.4,1.4,0,0,0,.7-1.344,3.467,3.467,0,0,0-.635-1.2l-5.191-7.422,2.423-1.794,5.21,7.369a4.835,4.835,0,0,1,.993,2.536,4.3,4.3,0,0,1-2.125,3.6c-1.483,1.092-2.728,1.463-3.767,1.119a6.256,6.256,0,0,1-2.847-2.4l-.159-.232Zm23.755-35.983c1.834,0,3.774.119,5.952.318l2.244.212v10.414a50.656,50.656,0,0,1,10.672,2.893c1.318-2.337,5.078-8.978,5.078-8.978l2.046.967a64.156,64.156,0,0,1,10.275,6.131l1.86,1.357s-3.754,6.627-5.085,8.958a54.129,54.129,0,0,1,7.812,8c2.291-1.344,8.772-5.164,8.772-5.164l1.311,1.88a66.588,66.588,0,0,1,5.992,10.527l.933,2.112-8.766,5.191a53.377,53.377,0,0,1,2.834,10.937h10.136l.212,2.3a62.76,62.76,0,0,1,0,12.215l-.212,2.3H293.264a53.013,53.013,0,0,1-2.82,10.944c2.291,1.351,8.766,5.177,8.766,5.177l-.933,2.118a66,66,0,0,1-5.992,10.527l-1.311,1.893s-6.468-3.827-8.772-5.184a51.594,51.594,0,0,1-7.812,8c1.331,2.324,5.085,8.958,5.085,8.958L277.62,227.9a61.464,61.464,0,0,1-10.282,6.137l-2.046.98s-3.741-6.647-5.058-9a50.784,50.784,0,0,1-10.692,2.907v10.4l-2.244.218c-2.112.212-4.092.311-5.952.311a59.555,59.555,0,0,1-5.959-.311l-2.244-.218v-10.4a50.292,50.292,0,0,1-10.686-2.907c-1.311,2.35-5.065,8.984-5.065,8.984l-2.072-.973a62.079,62.079,0,0,1-10.275-6.144l-1.827-1.357s3.727-6.614,5.051-8.938a54.4,54.4,0,0,1-7.806-8l-8.752,5.184-1.3-1.887a62.715,62.715,0,0,1-5.985-10.527l-.96-2.112s6.488-3.84,8.766-5.2a55.242,55.242,0,0,1-2.827-10.937H179.278l-.238-2.3c-.212-2.2-.311-4.2-.311-6.1s.1-3.926.311-6.117l.238-2.3H189.4a55.842,55.842,0,0,1,2.827-10.937c-2.277-1.357-8.746-5.191-8.746-5.191l.94-2.112a62.1,62.1,0,0,1,6-10.54l1.284-1.874s6.462,3.827,8.752,5.171a54.421,54.421,0,0,1,7.806-8c-1.324-2.33-5.051-8.958-5.051-8.958l1.847-1.357a64.779,64.779,0,0,1,10.255-6.131l2.072-.967s3.754,6.64,5.065,8.978a50.667,50.667,0,0,1,10.686-2.893V112.062l2.244-.212C237.552,111.651,239.505,111.532,241.346,111.532Zm60.115,64.173c0-1.9-.106-3.833-.3-5.853h-10.03l-.251-1.675a49.349,49.349,0,0,0-2.92-11.381l-.583-1.562s7.223-4.284,8.607-5.124a59.229,59.229,0,0,0-5.74-10.1c-2.092,1.231-8.627,5.091-8.627,5.091l-1.026-1.3a52.5,52.5,0,0,0-8.117-8.329l-1.291-1.033s4.2-7.435,4.985-8.872a61.282,61.282,0,0,0-9.858-5.892c-.808,1.437-5,8.878-5,8.878l-1.543-.622a48.933,48.933,0,0,0-11.089-3.026l-1.629-.238V114.392c-2.085-.2-3.953-.3-5.707-.3a56.612,56.612,0,0,0-5.74.311v10.255l-1.609.252a48.756,48.756,0,0,0-11.1,3.012l-1.523.622-5.012-8.878a62.909,62.909,0,0,0-9.851,5.892c1.205,2.158,4.979,8.872,4.979,8.872l-1.3,1.033a52.75,52.75,0,0,0-8.11,8.329l-1.013,1.311s-7.243-4.277-8.666-5.1a62.8,62.8,0,0,0-5.727,10.1c2.092,1.258,8.633,5.124,8.633,5.124l-.6,1.562a51.143,51.143,0,0,0-2.946,11.381l-.225,1.655H181.528a55.4,55.4,0,0,0,0,11.725h10.017l.225,1.668a51.987,51.987,0,0,0,2.946,11.374l.6,1.562s-7.236,4.284-8.633,5.118a61.888,61.888,0,0,0,5.727,10.11c1.423-.808,8.666-5.1,8.666-5.1l1.013,1.311a51.688,51.688,0,0,0,8.11,8.335l1.3,1.046s-4.184,7.408-5,8.845a61.536,61.536,0,0,0,9.871,5.9c1.225-2.152,5.012-8.858,5.012-8.858l1.523.622A49.809,49.809,0,0,0,234,226.5l1.609.245v10.262a55.062,55.062,0,0,0,5.74.291,54.276,54.276,0,0,0,5.707-.291V226.743l1.629-.245a49.726,49.726,0,0,0,11.109-3.012l1.523-.622s4.191,7.441,5,8.858a59.154,59.154,0,0,0,9.858-5.892c-1.192-2.145-4.985-8.858-4.985-8.858l1.291-1.039a50.565,50.565,0,0,0,8.117-8.329l1.026-1.317s7.249,4.3,8.646,5.1a60.527,60.527,0,0,0,5.72-10.11c-2.092-1.245-8.607-5.1-8.607-5.1l.583-1.556a49.9,49.9,0,0,0,2.92-11.394l.251-1.668h10.03C301.355,179.532,301.46,177.612,301.46,175.705Zm-26.866-31.931,1.788,2.529-6.349,4.714a4.315,4.315,0,0,0-1.351,1.443,2.5,2.5,0,0,0,.549,2.635c.708,1.046,1.476,1.463,2.264,1.344a4.151,4.151,0,0,0,1.781-.861l6.342-4.72,1.768,2.516-6.342,4.72a5.867,5.867,0,0,1-2.986,1.311q-2.443.139-4.648-2.959c-1.476-2.072-1.907-3.886-1.311-5.455a6.058,6.058,0,0,1,2.158-2.5Zm11.957,25.84-2.171.6-1.1-4.3-10.143,2.774-.775-2.986,10.129-2.754-1.105-4.3,2.165-.589Zm-2.92,15.651.689-7.607-2.7-.271-.655,6.991-2.218-.218.662-6.985-3.264-.311-.741,7.951-2.264-.218,1.026-10.957,12.665,1.225-.973,10.619Zm-25.86-44.278-.159.252a6.3,6.3,0,0,0-1.2,3.562c.04,1.106.808,2.172,2.331,3.211,1.5,1.02,2.873,1.284,4.052.781a4.873,4.873,0,0,0,1.953-1.841l4.919-7.581-2.5-1.715-4.959,7.6a3.174,3.174,0,0,1-.881,1.02,1.315,1.315,0,0,1-1.463-.2c-.569-.391-.834-.8-.781-1.258a5.863,5.863,0,0,1,.867-1.986l.159-.238Z" transform="translate(-178.728 -111.532)" fill="#00a1ed" stroke="#00a1ed" stroke-miterlimit="10" stroke-width="0.026"/>
              <g id="Group_261" data-name="Group 261" transform="translate(48.185 20.828)">
                <path id="Path_1082" data-name="Path 1082" d="M191.713,122.38l-1.616.808-.344.179.344.146s.8.371,1.649.828l.179-.324c-.907-.45-1.682-.828-1.7-.828l.02.324,1.629-.814Z" transform="translate(-164.946 -71.388)" fill="#a17e2a"/>
                <path id="Path_1083" data-name="Path 1083" d="M186.4,116.634c2.708,2.522,7.872,4.575,12.87,6.528,4.217,1.649,8.223,3.237,10.328,4.926l.212-.265c-2.178-1.761-6.164-3.337-10.407-5.005-4.966-1.946-10.116-3.972-12.764-6.455Z" transform="translate(-183.769 -105.207)" fill="#a17e2a"/>
                <path id="Path_1084" data-name="Path 1084" d="M190.722,115.221a12.051,12.051,0,0,0-4.3,2.986l.238.238a11.791,11.791,0,0,1,4.184-2.887Z" transform="translate(-183.651 -111.626)" fill="#a17e2a"/>
                <path id="Path_1085" data-name="Path 1085" d="M209.3,132.665a73.936,73.936,0,0,0-9.11-4.1c-5.561-2.231-11.871-4.793-13.3-7.038a.485.485,0,0,1-.04-.371c.45-1.523,6.342-4.131,8.858-5.25l.993-.43-.159-.338-.973.45c-4.449,1.966-8.607,3.992-9.037,5.482a.678.678,0,0,0,.073.649c1.483,2.344,7.574,4.807,13.46,7.19a71.7,71.7,0,0,1,9.07,4.065Z" transform="translate(-183.345 -112.081)" fill="#a17e2a"/>
                <path id="Path_1086" data-name="Path 1086" d="M200.051,121.877a52.5,52.5,0,0,1-7.832,2.562c-3.132.821-3.92,1.066-3.959,1.443-.026.073,0,.192.159.278a23.384,23.384,0,0,0,3.244,1.145,67.122,67.122,0,0,1,8.653,3.2l.139-.311a71.907,71.907,0,0,0-8.7-3.218c-1.576-.516-2.807-.92-3.171-1.119h-.007l.007.1a19.923,19.923,0,0,1,3.7-1.178,48.544,48.544,0,0,0,7.905-2.589Z" transform="translate(-173.39 -74.215)" fill="#a17e2a"/>
                <path id="Path_1087" data-name="Path 1087" d="M195.256,127.146c-1.92-1.291-4.4-2.728-5.588-2.853l-.2-.046a.1.1,0,0,1,.04.079.075.075,0,0,1-.02.093,11.027,11.027,0,0,1,1.86-.649,30.085,30.085,0,0,0,3.721-1.311l-.146-.318a26.344,26.344,0,0,1-3.7,1.291c-1.754.536-2.072.649-2.052.933.026.205.3.232.463.271,1.112.132,3.628,1.6,5.422,2.8Z" transform="translate(-168.218 -72.732)" fill="#a17e2a"/>
                <path id="Path_1088" data-name="Path 1088" d="M207.378,121.227a76.451,76.451,0,0,1-11.235,3.966c-5.489,1.655-8.858,2.734-9.176,3.76a.483.483,0,0,0,.073.51c1.132,1.576,5.568,3.132,10.255,4.773,3.9,1.364,7.938,2.767,10.586,4.35l.172-.311c-2.681-1.6-6.727-3-10.653-4.376-4.641-1.629-9.017-3.171-10.09-4.648a.253.253,0,0,1-.026-.192c.285-.9,4.694-2.231,8.958-3.5a81.91,81.91,0,0,0,11.288-4.025Z" transform="translate(-180.843 -77.869)" fill="#a17e2a"/>
                <path id="Path_1089" data-name="Path 1089" d="M204.658,134.22a93.3,93.3,0,0,0-10.692-4.462c-2.913-1.092-5.932-2.231-6.091-2.609v.027c.172-.357,2.92-1.053,5.356-1.668,3.873-.993,8.706-2.218,11.05-3.661l-.192-.3c-2.284,1.4-7.071,2.628-10.937,3.615-4.257,1.079-5.634,1.463-5.634,1.993s1.649,1.172,6.343,2.926a94.1,94.1,0,0,1,10.639,4.462Z" transform="translate(-177.513 -76.065)" fill="#a17e2a"/>
                <path id="Path_1090" data-name="Path 1090" d="M199.353,115.606c-1.7,1.1-4.694,1.615-7.084,2.033-1.88.311-3.37.563-3.919,1.006a.449.449,0,0,0-.212.371c.086.563,1.443,1.1,4.25,2.152a42.26,42.26,0,0,1,7.23,3.238l.179-.278a38.958,38.958,0,0,0-7.3-3.29c-1.682-.636-4.005-1.523-3.966-1.874h0l.02-.053a12.669,12.669,0,0,1,3.767-.927c2.43-.417,5.469-.94,7.223-2.072Z" transform="translate(-174.023 -109.462)" fill="#a17e2a"/>
                <path id="Path_1091" data-name="Path 1091" d="M194.759,120.082c-1.635-.808-3.787-1.7-5.124-2.211a.643.643,0,0,1-.265-.159v.02c.139-.45,3.648-1.185,5.157-1.49l.06-.013-.06-.351-.053.007c-3.668.755-5.409,1.218-5.455,1.807-.013.318.371.477.5.523,1.344.5,3.456,1.37,5.091,2.178Z" transform="translate(-169.071 -107.933)" fill="#a17e2a"/>
                <path id="Path_1092" data-name="Path 1092" d="M199.992,115.21c-1.576,1.073-4.694,2.046-7.468,2.906-3.443,1.073-5.429,1.721-5.621,2.45-.463,1.523,3.284,3.059,9.441,5.422,3.913,1.51,7.991,3.079,10.566,4.747l.179-.3c-2.615-1.688-6.687-3.251-10.639-4.78-4.714-1.814-9.607-3.7-9.236-4.992.179-.576,2.84-1.4,5.409-2.2,2.8-.874,5.952-1.847,7.541-2.946Z" transform="translate(-181.183 -111.688)" fill="#a17e2a"/>
                <path id="Path_1093" data-name="Path 1093" d="M204.223,127.747c-2.536-2.046-8.5-4.231-12.473-5.694a29.993,29.993,0,0,1-4.019-1.609l-.04-.02c.04.02.04.033.04.053.119-.285,2.191-.834,4.019-1.337,3.39-.92,7.594-2.039,9.3-3.535l-.212-.265c-1.668,1.423-5.992,2.6-9.169,3.456-3.118.847-4.237,1.179-4.3,1.609a.346.346,0,0,0,.159.331,32.867,32.867,0,0,0,4.118,1.662c3.933,1.437,9.871,3.615,12.367,5.614Z" transform="translate(-178.363 -110.957)" fill="#a17e2a"/>
                <path id="Path_1094" data-name="Path 1094" d="M186.489,132.728c2.873-3.635,9.871-6.17,16.055-8.4a48.231,48.231,0,0,0,8.772-3.7l-.2-.324c-1.8,1.2-5.144,2.417-8.7,3.688-6.21,2.231-13.268,4.793-16.2,8.527Z" transform="translate(-184.814 -83.073)" fill="#a17e2a"/>
                <path id="Path_1095" data-name="Path 1095" d="M186.495,124.063a8.79,8.79,0,0,1,3.469-2.331l-.106-.331a9.13,9.13,0,0,0-3.628,2.417l.265.245a8.79,8.79,0,0,1,3.469-2.331l-.106-.331a9.13,9.13,0,0,0-3.628,2.417Z" transform="translate(-184.747 -76.891)" fill="#a17e2a"/>
                <path id="Path_1096" data-name="Path 1096" d="M210.843,119.705c-3.37,3.251-8.64,5.084-13.764,6.865-4.376,1.536-8.541,2.986-10.838,5.177l.219.271c2.258-2.158,6.369-3.595,10.725-5.124,5.158-1.781,10.474-3.641,13.9-6.932Z" transform="translate(-184.685 -86.423)" fill="#a17e2a"/>
                <path id="Path_1097" data-name="Path 1097" d="M193.04,120.024a13.606,13.606,0,0,1-2.7,1.84c-.4.238-.728.444-.914.583l.232.278a5.431,5.431,0,0,1,.861-.543,14.144,14.144,0,0,0,2.741-1.893l-.218-.265a13.606,13.606,0,0,1-2.7,1.84c-.4.238-.728.444-.914.583l.232.278a5.431,5.431,0,0,1,.861-.543,14.144,14.144,0,0,0,2.741-1.893Z" transform="translate(-166.789 -84.63)" fill="#a17e2a"/>
                <path id="Path_1098" data-name="Path 1098" d="M186.483,141.344c2.178-1.98,6.2-3.184,10.48-4.469,5.111-1.529,10.388-3.132,12.473-6.17a2.149,2.149,0,0,0,.291-2.112c-1.86-5.283-21.7-10.772-22.543-11.01l-.119.358c7.64,2.079,20.9,6.687,22.344,10.778a1.938,1.938,0,0,1-.232,1.788c-2.039,2.933-7.263,4.5-12.321,6.025-4.317,1.3-8.375,2.522-10.606,4.535Z" transform="translate(-184.629 -98.35)" fill="#a17e2a"/>
                <path id="Path_1099" data-name="Path 1099" d="M186.894,118.16c.887.318,2.2.715,3.714,1.178,6.548,2,17.5,5.323,17.174,9.355-.079,1.046-7.971,3.78-13.731,5.786-2.959,1.026-5.773,2.006-7.779,2.807l.126.324c2.026-.794,4.826-1.768,7.759-2.8,8.382-2.9,13.87-4.9,13.95-6.091.351-4.323-10.315-7.587-17.4-9.732-1.5-.45-2.794-.854-3.694-1.165Z" transform="translate(-184.511 -97.007)" fill="#a17e2a"/>
                <path id="Path_1100" data-name="Path 1100" d="M210.5,120.554c-1.92,1.317-5.905,2.847-10.123,4.476-7.17,2.761-14.559,5.621-14.009,8.15.9,4.085,8.56,6.687,15.962,9.2a68.113,68.113,0,0,1,8.964,3.449l.192-.311a72.151,72.151,0,0,0-9.037-3.469c-6.971-2.377-14.876-5.071-15.744-8.958-.477-2.224,7.1-5.144,13.784-7.733,4.244-1.635,8.256-3.171,10.209-4.509Z" transform="translate(-184.142 -81.651)" fill="#a17e2a"/>
                <path id="Path_1101" data-name="Path 1101" d="M210.019,141.958a96.158,96.158,0,0,0-8.925-3.688c-6.27-2.423-13.393-5.138-14.108-7.13a.67.67,0,0,1,.04-.642c.814-1.576,6.1-3.277,11.2-4.932,4.343-1.39,8.845-2.853,11.156-4.363l-.179-.3c-2.258,1.476-6.74,2.94-11.089,4.336-5.4,1.748-10.507,3.39-11.394,5.091a1.05,1.05,0,0,0-.04.934c.755,2.152,7.64,4.787,14.294,7.322,3.482,1.344,6.766,2.6,8.911,3.688Z" transform="translate(-182.762 -79.718)" fill="#a17e2a"/>
                <path id="Path_1102" data-name="Path 1102" d="M186.381,117.714c.682.172,1.43.377,2.311.576,4.939,1.245,13.254,3.284,19.776,8.991.53.47.993.94,1.47,1.423l.225-.218a14.1,14.1,0,0,0-1.47-1.483c-6.607-5.74-14.929-7.819-19.9-9.044-.887-.225-1.662-.41-2.311-.6Z" transform="translate(-183.898 -99.626)" fill="#a17e2a"/>
                <path id="Path_1103" data-name="Path 1103" d="M186.381,117.188a6.621,6.621,0,0,0,2.688,1.887,4.717,4.717,0,0,1,.9.477l.212-.285a5.144,5.144,0,0,0-.973-.516,6.634,6.634,0,0,1-2.556-1.781l-.271.218a6.621,6.621,0,0,0,2.688,1.887,4.717,4.717,0,0,1,.9.477l.212-.285a5.144,5.144,0,0,0-.973-.516,6.634,6.634,0,0,1-2.556-1.781Z" transform="translate(-183.898 -101.796)" fill="#a17e2a"/>
                <path id="Path_1104" data-name="Path 1104" d="M209.955,127.937c-2.582-2.191-7.1-3.78-11.5-5.349-4.754-1.695-9.679-3.449-11.8-5.886l-.258.238c2.178,2.5,6.932,4.2,11.957,5.992,4.33,1.562,8.845,3.151,11.394,5.277Z" transform="translate(-183.836 -103.302)" fill="#a17e2a"/>
                <path id="Path_1105" data-name="Path 1105" d="M192.447,120.76a13.818,13.818,0,0,0-2.747-2.416l-.179.311a13.552,13.552,0,0,1,2.681,2.357l.245-.252a13.818,13.818,0,0,0-2.747-2.416l-.179.311a13.552,13.552,0,0,1,2.681,2.357Z" transform="translate(-166.25 -94.073)" fill="#a17e2a"/>
                <path id="Path_1106" data-name="Path 1106" d="M186.389,133.453l2.589-.708c8.044-2.158,16.591-4.661,16.869-6.773.066-.41-.185-.788-.728-1.106-2.993-1.774-7.759-3.271-11.977-4.588-2.6-.814-4.82-1.51-6.257-2.138l-.139.324c1.45.642,3.7,1.357,6.309,2.172,4.184,1.291,8.938,2.794,11.9,4.542.4.238.6.5.549.748-.258,2.046-11.321,5.038-16.6,6.462l-2.628.728Z" transform="translate(-184.449 -95.22)" fill="#a17e2a"/>
                <path id="Path_1107" data-name="Path 1107" d="M186.648,118.727a66.831,66.831,0,0,0,6.859,2.463c3.628,1.212,8.163,2.675,8.256,3.516.007.086-.093.172-.252.271a35.332,35.332,0,0,1-6.839,2.171,56.462,56.462,0,0,0-8.382,2.628l.146.338a53.946,53.946,0,0,1,8.329-2.628,34.956,34.956,0,0,0,6.925-2.2c.291-.166.444-.377.4-.616-.093-.993-3.277-2.1-8.488-3.813a69.249,69.249,0,0,1-6.813-2.45Z" transform="translate(-184.404 -93.741)" fill="#a17e2a"/>
                <path id="Path_1108" data-name="Path 1108" d="M186.417,126.364a55.971,55.971,0,0,1,7.892-2.191c2.827-.636,3.562-.834,3.694-1.139a.2.2,0,0,0-.02-.218c-.139-.238-.8-.43-2.787-.934-2.688-.715-6.746-1.761-8.494-3.224l-.225.285c1.834,1.516,5.932,2.575,8.62,3.271a13.728,13.728,0,0,1,2.589.794h0c-.033-.053,0-.113,0-.126a17.7,17.7,0,0,1-3.436.947,56.29,56.29,0,0,0-7.945,2.2Z" transform="translate(-184.331 -92.308)" fill="#a17e2a"/>
                <path id="Path_1109" data-name="Path 1109" d="M186.412,119.224a16.318,16.318,0,0,0,2.7,1.3,6.741,6.741,0,0,1,1.609.828v-.06l-.033.02a16.725,16.725,0,0,1-2.3.814c-.682.225-1.417.437-2.079.689l.1.338c.662-.252,1.39-.477,2.092-.689a17.805,17.805,0,0,0,2.344-.834.324.324,0,0,0,.212-.318c-.02-.324-.569-.563-1.827-1.106a18.885,18.885,0,0,1-2.655-1.291Z" transform="translate(-184.28 -90.875)" fill="#a17e2a"/>
                <g id="Group_258" data-name="Group 258" transform="translate(1.205 53.051)">
                  <path id="Path_1110" data-name="Path 1110" d="M186.188,123.386c.556.477,1.165.967,1.642,1.324a10.081,10.081,0,0,1,1.046.867l.258-.218a7.853,7.853,0,0,0-1.112-.933c-.483-.384-1.066-.828-1.609-1.311l-.225.271c.556.477,1.165.967,1.642,1.324a10.081,10.081,0,0,1,1.046.867l.258-.218a7.853,7.853,0,0,0-1.112-.933c-.483-.384-1.066-.828-1.609-1.311Z" transform="translate(-186.188 -120.308)" fill="#a17e2a"/>
                  <path id="Path_1111" data-name="Path 1111" d="M212.3,135.25c-1.682-.761-3.979-1.529-6.594-2.4-6.965-2.33-15.591-5.224-19.213-10.156l-.291.219c3.7,5.025,12.42,7.938,19.378,10.269,2.622.881,4.893,1.635,6.574,2.4Z" transform="translate(-186.132 -122.691)" fill="#a17e2a"/>
                  <path id="Path_1112" data-name="Path 1112" d="M192.5,126.607c-1.331-1.059-2.569-1.96-2.569-1.96l-.192.311c.02,0,1.225.881,2.529,1.927l.232-.278c-1.331-1.059-2.569-1.96-2.569-1.96l-.192.311c.02,0,1.225.881,2.529,1.927Z" transform="translate(-166.218 -111.697)" fill="#a17e2a"/>
                </g>
                <g id="Group_260" data-name="Group 260" transform="translate(0.384 57.811)">
                  <g id="Group_259" data-name="Group 259">
                    <path id="Path_1113" data-name="Path 1113" d="M186.283,128.12c.669-.437,1.324-.887,1.3-1.423-.046-.4-.457-.735-1.258-1.066l-.132.338c.821.324,1.02.6,1.02.755.04.377-.722.867-1.112,1.079Z" transform="translate(-185.839 -110.927)" fill="#a17e2a"/>
                    <path id="Path_1114" data-name="Path 1114" d="M186.164,124.409a84.09,84.09,0,0,0,9.275,3.516c6.415,2.178,14.353,4.9,14.777,6.654a.484.484,0,0,1-.159.5c-2.979,3.145-9.858,5.793-15.386,7.912a46.221,46.221,0,0,0-6.991,3.059l.192.3a46.841,46.841,0,0,1,6.932-3.019c5.561-2.132,12.473-4.807,15.505-8a.918.918,0,0,0,.245-.847c-.463-1.94-7.845-4.456-14.989-6.905a90.336,90.336,0,0,1-9.249-3.482Z" transform="translate(-185.502 -119.543)" fill="#a17e2a"/>
                    <path id="Path_1115" data-name="Path 1115" d="M190.12,149c6.707-1.622,20.451-8.031,21.709-11.215a2.527,2.527,0,0,0-.06-1.986c-1.371-3.092-8.587-5.634-15.532-8.1a82.64,82.64,0,0,1-9.9-3.939l-.159.331a84.925,84.925,0,0,0,9.938,3.946c6.892,2.436,14.029,4.959,15.346,7.9a2.157,2.157,0,0,1,.04,1.708c-1.178,3.026-14.843,9.414-21.444,11Z" transform="translate(-185.446 -121.415)" fill="#a17e2a"/>
                    <path id="Path_1116" data-name="Path 1116" d="M186.484,124.813c1.827.735,5.032,1.735,8.441,2.774,5.521,1.715,13.089,4.052,13.254,5.091,0,.02.02.073-.093.165-4.045,2.966-9,4.542-13.38,5.932-4.2,1.331-7.514,2.383-8.613,4.264l.3.159c1.046-1.741,4.462-2.827,8.415-4.078,4.178-1.337,9.395-3,13.486-5.985a.564.564,0,0,0,.218-.5c-.179-1.192-5.455-2.9-13.493-5.369-3.383-1.053-6.607-2.052-8.415-2.767Z" transform="translate(-185.901 -117.312)" fill="#a17e2a"/>
                    <path id="Path_1117" data-name="Path 1117" d="M187.872,146.35a46.841,46.841,0,0,1,6.932-3.019c5.561-2.132,12.473-4.807,15.505-8a.918.918,0,0,0,.245-.847c-.463-1.94-7.845-4.456-14.989-6.905a90.336,90.336,0,0,1-9.249-3.482l-.152.311a84.09,84.09,0,0,0,9.275,3.516c6.415,2.178,14.353,4.9,14.777,6.654a.484.484,0,0,1-.159.5c-2.979,3.145-9.858,5.793-15.386,7.912a46.221,46.221,0,0,0-6.991,3.059Z" transform="translate(-185.502 -119.543)" fill="#a17e2a"/>
                    <path id="Path_1118" data-name="Path 1118" d="M186.174,124.1a84.925,84.925,0,0,0,9.938,3.946c6.892,2.436,14.029,4.959,15.346,7.9a2.157,2.157,0,0,1,.04,1.708c-1.178,3.026-14.843,9.414-21.444,11l.066.357c6.707-1.622,20.451-8.031,21.709-11.215a2.527,2.527,0,0,0-.06-1.986c-1.371-3.092-8.587-5.634-15.532-8.1a82.64,82.64,0,0,1-9.9-3.939Z" transform="translate(-185.446 -121.415)" fill="#a17e2a"/>
                    <path id="Path_1119" data-name="Path 1119" d="M212.628,136.307c-3.2-4.608-10.269-6.819-16.518-8.779-4.059-1.258-7.859-2.463-9.686-4.118l-.245.265c1.88,1.7,5.568,2.867,9.832,4.211,6.177,1.92,13.2,4.118,16.353,8.64Z" transform="translate(-185.418 -123.41)" fill="#a17e2a"/>
                    <path id="Path_1120" data-name="Path 1120" d="M187.31,136.752c10.163-1.867,16.935-6.8,19.63-10.474l-.265-.218c-2.668,3.615-9.355,8.488-19.458,10.355Z" transform="translate(-179.583 -108.516)" fill="#a17e2a"/>
                    <path id="Path_1121" data-name="Path 1121" d="M186.2,125.969c.821.324,1.02.6,1.02.755.04.377-.722.867-1.112,1.079l.179.318c.669-.437,1.324-.887,1.3-1.423-.046-.4-.457-.735-1.258-1.066Z" transform="translate(-185.839 -110.927)" fill="#a17e2a"/>
                    <path id="Path_1122" data-name="Path 1122" d="M186.275,130.491a31.467,31.467,0,0,1,3.489-1.721,12.179,12.179,0,0,0,1.86-.907.342.342,0,0,0,.166-.338c-.04-.3-.51-.43-1.662-.722a12.465,12.465,0,0,1-3.688-1.344l-.2.311a12.893,12.893,0,0,0,3.787,1.371,5.422,5.422,0,0,1,1.443.47c-.026-.04-.026-.066,0-.073l-.06.033a12.629,12.629,0,0,1-1.8.881,35.749,35.749,0,0,0-3.516,1.728Z" transform="translate(-185.884 -111.893)" fill="#a17e2a"/>
                    <path id="Path_1123" data-name="Path 1123" d="M189.734,131.926l.5-.47a30.639,30.639,0,0,0,4.065-4.4l-.291-.212a28.1,28.1,0,0,1-4.019,4.336l-.5.49Z" transform="translate(-166.78 -104.126)" fill="#a17e2a"/>
                    <path id="Path_1124" data-name="Path 1124" d="M200.493,126.462c-1.927,2.615-5.76,4.681-8.865,6.343-1.225.669-2.4,1.3-3.3,1.887l.172.291c.887-.556,2.059-1.2,3.277-1.867,3.138-1.662,7.018-3.747,9-6.429Z" transform="translate(-173.322 -106.256)" fill="#a17e2a"/>
                    <path id="Path_1125" data-name="Path 1125" d="M186.242,125.77a12.893,12.893,0,0,0,3.787,1.371,5.422,5.422,0,0,1,1.443.47c-.026-.04-.026-.066,0-.073l-.06.033a12.629,12.629,0,0,1-1.8.881,35.749,35.749,0,0,0-3.516,1.728l.179.311a31.467,31.467,0,0,1,3.489-1.721,12.179,12.179,0,0,0,1.86-.907.342.342,0,0,0,.166-.338c-.04-.3-.51-.43-1.662-.722a12.465,12.465,0,0,1-3.688-1.344Z" transform="translate(-185.884 -111.893)" fill="#a17e2a"/>
                    <path id="Path_1126" data-name="Path 1126" d="M186.263,135.131c2.807-1.854,7.938-3.615,10.7-4.568,1.046-.364,1.768-.609,1.96-.722a.219.219,0,0,0,.119-.219c-.033-.285-.43-.45-3.4-1.271-3.039-.841-7.177-2.006-9.057-3.271l-.192.285c1.927,1.3,6.091,2.483,9.15,3.33a24.2,24.2,0,0,1,3.185,1,.064.064,0,0,1-.02-.073l.026-.093a18.708,18.708,0,0,1-1.874.682c-2.774.96-7.931,2.748-10.778,4.628Z" transform="translate(-185.952 -114.018)" fill="#a17e2a"/>
                    <path id="Path_1127" data-name="Path 1127" d="M186.4,125.366c1.927,1.3,6.091,2.483,9.15,3.33a24.2,24.2,0,0,1,3.185,1,.064.064,0,0,1-.02-.073l.026-.093a18.708,18.708,0,0,1-1.874.682c-2.774.96-7.931,2.748-10.778,4.628l.179.291c2.807-1.854,7.938-3.615,10.7-4.568,1.046-.364,1.768-.609,1.96-.722a.219.219,0,0,0,.119-.219c-.033-.285-.43-.45-3.4-1.271-3.039-.841-7.177-2.006-9.057-3.271Z" transform="translate(-185.952 -114.018)" fill="#a17e2a"/>
                    <path id="Path_1128" data-name="Path 1128" d="M186.3,138.766c1.986-1.748,6.687-3.33,10.878-4.747,3.3-1.139,6.184-2.086,7.1-2.946a.333.333,0,0,0,.112-.371c-.159-.669-2.569-1.318-7.183-2.536-3.853-1.013-8.249-2.158-10.507-3.337l-.165.311c2.3,1.2,6.68,2.364,10.573,3.376,3.072.788,6.879,1.781,6.952,2.258h0v.04c-.887.794-3.846,1.807-7,2.873-4.171,1.417-8.938,3.026-10.984,4.813Z" transform="translate(-186.036 -115.429)" fill="#a17e2a"/>
                    <path id="Path_1129" data-name="Path 1129" d="M186.533,125.141c2.3,1.2,6.68,2.364,10.573,3.376,3.072.788,6.879,1.781,6.952,2.258h0v.04c-.887.794-3.846,1.807-7,2.873-4.171,1.417-8.938,3.026-10.984,4.813l.232.265c1.986-1.748,6.687-3.33,10.878-4.747,3.3-1.139,6.184-2.086,7.1-2.946a.333.333,0,0,0,.112-.371c-.159-.669-2.569-1.318-7.183-2.536-3.853-1.013-8.249-2.158-10.507-3.337Z" transform="translate(-186.036 -115.429)" fill="#a17e2a"/>
                    <path id="Path_1130" data-name="Path 1130" d="M186.064,143.132a1.1,1.1,0,0,1,.179.093l.106.046.119.073.093-.146c1.046-1.741,4.462-2.827,8.415-4.078,4.178-1.337,9.395-3,13.486-5.985a.564.564,0,0,0,.218-.5c-.179-1.192-5.455-2.9-13.493-5.369-3.383-1.053-6.607-2.052-8.415-2.767l-.126.318c1.827.735,5.032,1.735,8.441,2.774,5.521,1.715,13.089,4.052,13.254,5.091,0,.02.02.073-.093.165-4.045,2.966-9,4.542-13.38,5.932-4.2,1.331-7.514,2.383-8.613,4.264l.251-.079-.126-.046a.725.725,0,0,0-.159-.093Z" transform="translate(-186.064 -117.312)" fill="#a17e2a"/>
                  </g>
                </g>
                <path id="Path_1131" data-name="Path 1131" d="M203.654,119.034v-.847a3.29,3.29,0,0,0-3.1-3.343l-10.937-.166c-1.688,0-2.754,1.748-2.754,3.509v1.033l.589-.119a33.834,33.834,0,0,1,15.6.4l.6.152Zm-9.209-1.609a33.147,33.147,0,0,0-7.19.748l.549.463v-.45c0-1.231.622-2.575,1.814-2.575l10.937.185a2.358,2.358,0,0,1,2.178,2.39v.847l.563-.45A33.52,33.52,0,0,0,194.445,117.426Z" transform="translate(-181.184 -114.678)" fill="#a17e2a"/>
                <path id="Path_1132" data-name="Path 1132" d="M199.09,129.614a33.713,33.713,0,0,1-12.175-2.052l-.629-.252v4.376l.159.132c2.344,2.132,7,3.449,12.189,3.449,4.873,0,9.408-1.212,11.838-3.151l.185-.152v-4.151l-.6.192A35.5,35.5,0,0,1,199.09,129.614Zm10.639-1.159v3.277l.172-.371c-2.278,1.834-6.588,2.966-11.268,2.966-4.886,0-9.428-1.264-11.566-3.2l.159.358v-3.469l-.642.444a35.212,35.212,0,0,0,12.506,2.112,36.194,36.194,0,0,0,11.248-1.655Z" transform="translate(-184.432 -43.679)" fill="#a17e2a"/>
                <path id="Path_1133" data-name="Path 1133" d="M188.489,117.172l-2.178,68.967-.3,9.673v.291l.238.126c3.529,1.907,8.766,3.006,14.42,3.006a33.267,33.267,0,0,0,13.42-2.509l.265-.119v-.318l-.338-10.619L211.866,117.9v-.3l-.265-.132a30.715,30.715,0,0,0-12.334-2.377,32.2,32.2,0,0,0-10.447,1.635l-.311.106Zm10.778-1.125a29.859,29.859,0,0,1,11.963,2.3l-.285-.417,2.145,67.768.318,10.619.271-.45a32.712,32.712,0,0,1-13.016,2.417c-5.5,0-10.586-1.053-13.976-2.88l.232.437.311-9.673,2.2-68.96-.331.43A31.7,31.7,0,0,1,199.267,116.046Z" transform="translate(-186.006 -112.345)" fill="#a17e2a"/>
              </g>
            </g>
          </g>
        </g>
      </g>
      <g id="Group_270" data-name="Group 270" transform="translate(0 138.635)">
        <g id="Group_269" data-name="Group 269">
          <g id="Group_267" data-name="Group 267">
            <g id="Group_266" data-name="Group 266">
              <path id="Path_1134" data-name="Path 1134" d="M174.513,146.46l-1.344,4.82h-4.4l5.74-18.763h5.561l5.813,18.763h-4.548l-1.457-4.82Zm4.754-3.165-1.172-3.986c-.318-1.126-.662-2.516-.953-3.621h-.053c-.271,1.106-.543,2.536-.847,3.621l-1.119,3.986Z" transform="translate(-168.773 -132.219)" fill="#00a1ed"/>
              <path id="Path_1135" data-name="Path 1135" d="M171.779,132.517h4.2v8.3h.073c.444-.722.874-1.39,1.291-2.059l4.264-6.237h5.191l-6.2,7.991,6.541,10.772h-4.946l-4.595-8.1-1.622,1.973v6.131h-4.2Z" transform="translate(-151.877 -132.219)" fill="#00a1ed"/>
              <path id="Path_1136" data-name="Path 1136" d="M178.665,132.517V151.28H174.4V132.517Z" transform="translate(-137.14 -132.219)" fill="#00a1ed"/>
              <path id="Path_1137" data-name="Path 1137" d="M180.907,132.517h4.217v11.864c0,5.33-2.549,7.2-6.68,7.2a11.311,11.311,0,0,1-3.085-.444l.47-3.443a6.369,6.369,0,0,0,2.165.344c1.787,0,2.913-.794,2.913-3.727Z" transform="translate(-131.756 -132.219)" fill="#00a1ed"/>
              <path id="Path_1138" data-name="Path 1138" d="M183.56,132.517h4.224v11.864c0,5.33-2.556,7.2-6.66,7.2a11.232,11.232,0,0,1-3.105-.444l.47-3.443a6.3,6.3,0,0,0,2.172.344c1.8,0,2.9-.794,2.9-3.727Z" transform="translate(-116.805 -132.219)" fill="#00a1ed"/>
              <path id="Path_1139" data-name="Path 1139" d="M184.354,132.517v10.8c0,3.224,1.2,4.873,3.363,4.873,2.251,0,3.476-1.549,3.476-4.873v-10.8h4.2v10.52c0,5.793-2.907,8.547-7.806,8.547-4.74,0-7.528-2.608-7.528-8.594V132.517Z" transform="translate(-105.311 -132.219)" fill="#00a1ed"/>
              <path id="Path_1140" data-name="Path 1140" d="M187.821,136.079h-5.058v-3.562H197.2v3.562h-5.131v15.2h-4.244Z" transform="translate(-90.141 -132.219)" fill="#00a1ed"/>
              <path id="Path_1141" data-name="Path 1141" d="M196.493,143.328h-6.905V147.8h7.706v3.482h-11.97V132.517H196.91V136h-7.322v3.886h6.905Z" transform="translate(-75.747 -132.219)" fill="#00a1ed"/>
              <path id="Path_1142" data-name="Path 1142" d="M204.707,144.1c-.073-2.258-.159-4.979-.159-7.706h-.093c-.576,2.39-1.344,5.058-2.085,7.263l-2.277,7.329h-3.323l-1.986-7.276c-.616-2.2-1.271-4.873-1.695-7.316h-.06c-.119,2.522-.205,5.422-.351,7.766l-.318,7.124H188.44l1.192-18.763h5.634l1.854,6.263c.583,2.172,1.159,4.515,1.562,6.7h.106c.523-2.165,1.152-4.641,1.781-6.727l2.013-6.237h5.528l1.033,18.763h-4.151Z" transform="translate(-58.233 -132.219)" fill="#00a1ed"/>
              <path id="Path_1143" data-name="Path 1143" d="M196.366,132.517V151.28H192.1V132.517Z" transform="translate(-37.684 -132.219)" fill="#00a1ed"/>
              <path id="Path_1144" data-name="Path 1144" d="M193.338,132.517H197.6V147.7h7.461v3.582H193.338Z" transform="translate(-30.703 -132.219)" fill="#00a1ed"/>
              <path id="Path_1145" data-name="Path 1145" d="M195.527,132.517h4.27V147.7h7.455v3.582H195.527Z" transform="translate(-18.4 -132.219)" fill="#00a1ed"/>
              <path id="Path_1146" data-name="Path 1146" d="M198.456,147.163a11.025,11.025,0,0,0,4.694,1.159c1.96,0,3-.794,3-2.032,0-1.152-.887-1.834-3.138-2.622-3.118-1.092-5.164-2.827-5.164-5.568,0-3.191,2.681-5.627,7.1-5.627a11.5,11.5,0,0,1,4.8.94l-.96,3.423a8.785,8.785,0,0,0-3.919-.894c-1.834,0-2.714.834-2.714,1.807,0,1.205,1.039,1.728,3.482,2.648,3.3,1.231,4.873,2.959,4.873,5.6,0,3.145-2.443,5.819-7.574,5.819a11.994,11.994,0,0,1-5.323-1.152Z" transform="translate(-6.698 -132.472)" fill="#00a1ed"/>
              <path id="Path_1147" data-name="Path 1147" d="M200.919,132.517h4.27V147.7h7.461v3.582H200.919Z" transform="translate(11.906 -132.219)" fill="#00a1ed"/>
              <path id="Path_1148" data-name="Path 1148" d="M207.49,136.079h-5.032v-3.562h14.406v3.562h-5.111v15.2H207.49Z" transform="translate(20.556 -132.219)" fill="#00a1ed"/>
              <path id="Path_1149" data-name="Path 1149" d="M205.018,132.893a36.766,36.766,0,0,1,5.72-.4c3.569,0,5.872.636,7.687,2.006a8.292,8.292,0,0,1,3.2,7.064,9.6,9.6,0,0,1-3.138,7.6c-1.966,1.648-4.985,2.416-8.666,2.416a38.469,38.469,0,0,1-4.807-.265Zm4.257,15.294a7.423,7.423,0,0,0,1.463.086c3.853.033,6.356-2.079,6.356-6.568.033-3.886-2.258-5.965-5.906-5.965a7.87,7.87,0,0,0-1.913.185Z" transform="translate(34.945 -132.337)" fill="#00a1ed"/>
              <path id="Path_1150" data-name="Path 1150" d="M207.748,137.213a2.454,2.454,0,0,1,2.509-2.6,2.58,2.58,0,1,1-2.509,2.6Z" transform="translate(50.289 -120.41)" fill="#00a1ed"/>
            </g>
          </g>
        </g>
      </g>
    </g>
  </g>
</svg>
