<svg id="accl" xmlns="http://www.w3.org/2000/svg" width="344.276" height="68.02" viewBox="0 0 344.276 68.02">
  <g id="Group_287" data-name="Group 287" transform="translate(0 0)">
    <g id="Group_286" data-name="Group 286">
      <path id="Path_1239" data-name="Path 1239" d="M238.142,142.173a54.422,54.422,0,0,0,.238-6.541q0-5.2-.377-9.057l-.013-.132c0-.132.132-.205.377-.225.179-.013.881-.066,2.119-.185.867-.073,1.562-.113,2.112-.113.152,0,.232.139.232.391,0,.311-.02.742-.066,1.251-.046.642-.079,1.059-.086,1.258-.046.8-.066,1.9-.066,3.277,0,.252.066.371.2.371a.25.25,0,0,0,.179-.093,3.743,3.743,0,0,1,2.88-1.159,5.1,5.1,0,0,1,4.164,1.814,6.731,6.731,0,0,1,1.39,4.429,6.421,6.421,0,0,1-1.463,4.29,5.11,5.11,0,0,1-4.078,1.827H242.32a25.237,25.237,0,0,1-2.589-.086m7.289-6.157a2.507,2.507,0,0,0-.622-1.728,2.037,2.037,0,0,0-1.622-.7,1.993,1.993,0,0,0-1.622.7,2.7,2.7,0,0,0-.589,1.754,2.517,2.517,0,0,0,.576,1.734,2.081,2.081,0,0,0,1.662.708,2.033,2.033,0,0,0,1.642-.728A2.593,2.593,0,0,0,247.02,137.333Z" transform="translate(-169.692 -78.814)" fill="#003e92"/>
      <path id="Path_1240" data-name="Path 1240" d="M253.362,132.942a6.2,6.2,0,0,1-1.7,4.529,6.139,6.139,0,0,1-10.573-4.376,6.488,6.488,0,0,1,1.655-4.615,5.81,5.81,0,0,1,4.469-1.761,5.955,5.955,0,0,1,4.442,1.728A6.138,6.138,0,0,1,253.362,132.942Zm-3.973.013a2.7,2.7,0,0,0-.6-1.721,1.882,1.882,0,0,0-1.543-.748,1.981,1.981,0,0,0-1.589.761,2.78,2.78,0,0,0,0,3.423,1.962,1.962,0,0,0,1.589.761,1.933,1.933,0,0,0,1.569-.761A2.644,2.644,0,0,0,249.39,132.956Z" transform="translate(-152.246 -74.317)" fill="#003e92"/>
      <path id="Path_1241" data-name="Path 1241" d="M256.465,138.476a.337.337,0,0,1-.338.364,14.941,14.941,0,0,1-1.774.06,14.344,14.344,0,0,1-1.9-.073.456.456,0,0,1-.364-.5c0-.384.02-.96.04-1.735s.033-1.357.033-1.748c0-.3-.007-.755-.02-1.337-.013-.6-.027-1.059-.027-1.357,0-1.106-.483-1.662-1.45-1.662a2.064,2.064,0,0,0-1.1.411c-.457.3-.688.616-.688.914V138.4a.392.392,0,0,1-.377.444,15.618,15.618,0,0,1-1.735.06,14.553,14.553,0,0,1-1.847-.073.387.387,0,0,1-.377-.411c0-.629,0-1.582.013-2.867s.007-2.238.007-2.88a18.452,18.452,0,0,0-.49-4.78.683.683,0,0,1-.027-.179.254.254,0,0,1,.179-.265c.51-.06,1.2-.152,2.052-.278,1.284-.252,2.013-.377,2.172-.377.093,0,.166.278.218.821s.119.828.212.828c-.086,0,.351-.285,1.311-.847a5.179,5.179,0,0,1,2.522-.847,4.286,4.286,0,0,1,2.569.735,2.736,2.736,0,0,1,1.159,2.35v3.893c0,.523.007,1.318.02,2.37S256.465,137.939,256.465,138.476Z" transform="translate(-135.659 -74.177)" fill="#003e92"/>
      <path id="Path_1242" data-name="Path 1242" d="M258.749,143.612l-6.1.053a5.124,5.124,0,0,1-4.1-1.814,6.455,6.455,0,0,1-1.463-4.343,6.62,6.62,0,0,1,1.45-4.39,5.122,5.122,0,0,1,4.131-1.821,3.559,3.559,0,0,1,2.853,1.185c.119.139.2.212.251.212s.1-.119.1-.324c0-.629-.013-1.569-.046-2.814s-.04-2.178-.04-2.807c0-.232.06-.371.2-.4.5-.026,1.218-.073,2.125-.146a17.235,17.235,0,0,0,2.152-.3c.165,0,.258.106.258.3,0-.172-.026.1-.1.814-.079.9-.146,2.059-.192,3.469-.066,1.589-.093,3.4-.093,5.436a48.81,48.81,0,0,0,.285,6.19m-4.475-4.707a2.442,2.442,0,0,0-.675-1.7,2.108,2.108,0,0,0-1.615-.735,1.922,1.922,0,0,0-1.569.735,2.689,2.689,0,0,0-.6,1.748,2.415,2.415,0,0,0,.6,1.682,1.938,1.938,0,0,0,1.563.748,2.125,2.125,0,0,0,1.635-.741A2.56,2.56,0,0,0,255.948,137.416Z" transform="translate(-118.545 -78.87)" fill="#003e92"/>
      <path id="Path_1243" data-name="Path 1243" d="M254.764,137.239c0,.6.013,1.47.04,2.642.026,1.192.046,2.066.046,2.648,0,.179-.106.278-.311.311a14.724,14.724,0,0,1-1.867.073,14.913,14.913,0,0,1-1.88-.073c-.179-.033-.291-.086-.324-.159a1.274,1.274,0,0,1-.026-.371c0-.563.013-1.41.046-2.529s.04-1.973.04-2.542a45.724,45.724,0,0,0-.272-5.515c-.02-.132-.033-.218-.033-.258,0-.159.113-.238.324-.238a9.515,9.515,0,0,1,1.053.066c.463.046.814.079,1.053.079s.589-.027,1.059-.066.821-.066,1.059-.066c.192,0,.291.086.291.238a1.811,1.811,0,0,1-.026.245A48.084,48.084,0,0,0,254.764,137.239Zm.3-9.083c0,1.417-.794,2.132-2.383,2.132a2.565,2.565,0,0,1-1.682-.543,2.04,2.04,0,0,1,.026-3.158,2.551,2.551,0,0,1,1.655-.556,2.51,2.51,0,0,1,1.642.576A1.925,1.925,0,0,1,255.062,128.155Z" transform="translate(-100.941 -78.19)" fill="#003e92"/>
      <path id="Path_1244" data-name="Path 1244" d="M264.52,138.476c0,.218-.106.331-.338.364a14.862,14.862,0,0,1-1.774.06,14.21,14.21,0,0,1-1.893-.073.446.446,0,0,1-.364-.5c0-.384.007-.96.033-1.735s.04-1.357.04-1.748c0-.3-.013-.755-.027-1.337-.013-.6-.026-1.059-.026-1.357,0-1.106-.483-1.662-1.45-1.662a2.065,2.065,0,0,0-1.106.411c-.464.3-.689.616-.689.914V138.4a.391.391,0,0,1-.377.444,15.7,15.7,0,0,1-1.735.06,14.685,14.685,0,0,1-1.854-.073.391.391,0,0,1-.377-.411c0-.629,0-1.582.013-2.867s.013-2.238.013-2.88a18.447,18.447,0,0,0-.49-4.78.686.686,0,0,1-.026-.179.254.254,0,0,1,.179-.265c.51-.06,1.2-.152,2.046-.278q1.937-.377,2.185-.377c.086,0,.159.278.205.821s.126.828.219.828c-.086,0,.351-.285,1.311-.847a5.2,5.2,0,0,1,2.529-.847,4.321,4.321,0,0,1,2.576.735,2.736,2.736,0,0,1,1.159,2.35v3.893c0,.523,0,1.318.007,2.37S264.52,137.939,264.52,138.476Z" transform="translate(-90.425 -74.177)" fill="#003e92"/>
      <path id="Path_1245" data-name="Path 1245" d="M267.835,135.695c0,2.324-.49,3.979-1.457,4.992-1.013,1.026-2.681,1.549-5.012,1.549a16.342,16.342,0,0,1-2.794-.331c-1.5-.278-2.258-.609-2.258-.973,0-.152.179-.953.516-2.39.053-.238.152-.344.265-.344l.132.046a8.08,8.08,0,0,0,3.476.914,3.86,3.86,0,0,0,1.748-.437c.7-.351,1.039-.788,1.039-1.311V136.6a4.448,4.448,0,0,1-3.191,1.165,4.841,4.841,0,0,1-3.767-1.648,6.1,6.1,0,0,1-.06-7.779,4.747,4.747,0,0,1,3.728-1.6,3.28,3.28,0,0,1,2.807,1.344c.126.179.218.265.265.265.086,0,.113-.152.113-.444,0-.655.079-.986.232-.986.132,0,.834.066,2.118.205s1.953.212,2,.225a.31.31,0,0,1,.205.324c0,.556-.026,1.4-.066,2.5-.04,1.126-.066,1.96-.066,2.522,0,.338.006.834.013,1.5S267.835,135.357,267.835,135.695Zm-4.217-3.39a2.181,2.181,0,0,0-.583-1.523,2,2,0,0,0-2.973.013,2.235,2.235,0,0,0-.589,1.543,2.209,2.209,0,0,0,.6,1.529,2,2,0,0,0,1.477.642,1.913,1.913,0,0,0,1.49-.662A2.207,2.207,0,0,0,263.618,132.3Z" transform="translate(-73.501 -74.216)" fill="#003e92"/>
      <path id="Path_1246" data-name="Path 1246" d="M269.146,135.922c0,.2-.1.3-.311.3a19.319,19.319,0,0,1-2.086-.079c.026.616.053,1.47.073,2.562.006.457.04,1.265.1,2.41.06,1.033.093,1.84.093,2.417,0,.179-.119.278-.344.3-.271.033-.954.053-2.046.053a13.717,13.717,0,0,1-1.788-.073.455.455,0,0,1-.4-.5v-6.72c0-.232-.172-.351-.5-.351l-.278.013-.271.013c-.232,0-.351-.073-.351-.2a30.092,30.092,0,0,1-.126-3.118.514.514,0,0,1,.463-.55c.278-.026.556-.053.841-.06-.033-.662-.06-1.172-.06-1.536a4.641,4.641,0,0,1,.821-3.045c1.079-1.265,2.807-1.893,5.217-1.893.146,0,.251.053.285.152.066.371.159.914.285,1.629.013.073.066.3.159.689a3.467,3.467,0,0,1,.119.7c0,.2-.285.338-.854.391a2.177,2.177,0,0,0-1.231.364,2.674,2.674,0,0,0-.391,1.7,4.538,4.538,0,0,0,.053.755c.232,0,.582-.013,1.066-.026s.834-.026,1.079-.026.357.093.357.271c0,.384.007.967.013,1.728S269.146,135.538,269.146,135.922Z" transform="translate(-40.868 -79.151)" fill="#003e92"/>
      <path id="Path_1247" data-name="Path 1247" d="M275.67,132.942a6.2,6.2,0,0,1-1.695,4.529,6.133,6.133,0,0,1-10.566-4.376,6.508,6.508,0,0,1,1.642-4.615,5.834,5.834,0,0,1,4.475-1.761,5.975,5.975,0,0,1,4.442,1.728A6.111,6.111,0,0,1,275.67,132.942Zm-3.972.013a2.7,2.7,0,0,0-.6-1.721,1.877,1.877,0,0,0-1.549-.748,2,2,0,0,0-1.589.761,2.83,2.83,0,0,0,0,3.423,1.98,1.98,0,0,0,1.589.761,1.928,1.928,0,0,0,1.576-.761A2.644,2.644,0,0,0,271.7,132.956Z" transform="translate(-26.822 -74.317)" fill="#003e92"/>
      <path id="Path_1248" data-name="Path 1248" d="M274.738,131.193c0,.318-.172.47-.53.47-.146,0-.364-.013-.669-.026s-.516-.033-.669-.033a2.15,2.15,0,0,0-1.371.318,1.689,1.689,0,0,0-.371,1.284c0,.351.007.881.02,1.6s.013,1.245.013,1.6c0,.232.02.589.053,1.053s.046.814.046,1.046c0,.192-.139.3-.4.331-.39.033-.986.046-1.787.046-.768,0-1.39-.027-1.847-.073-.258-.04-.4-.165-.4-.4,0-.655.006-1.629.013-2.926s.007-2.277.007-2.933a17.173,17.173,0,0,0-.536-4.727,1.146,1.146,0,0,1-.026-.179.253.253,0,0,1,.192-.252c.444-.046,1.1-.139,1.966-.265,1.291-.252,1.946-.384,1.993-.384.139,0,.219.265.271.781.033.523.106.781.2.781-.106,0,.218-.212,1.006-.649a4.531,4.531,0,0,1,2.238-.649c.47,0,.689.093.689.291a9.624,9.624,0,0,1-.066.993c-.04.477-.073.808-.073,1.006,0,.232,0,.55.007.94C274.725,130.723,274.738,131.041,274.738,131.193Z" transform="translate(-10.629 -74.177)" fill="#003e92"/>
      <path id="Path_1249" data-name="Path 1249" d="M280.4,132.464c0,.808-.265,1.278-.781,1.39-.093.02-.927.106-2.509.245-.953.106-2.37.232-4.264.364a1.793,1.793,0,0,0,1.026,1.258,3.644,3.644,0,0,0,1.6.351,4.577,4.577,0,0,0,2.165-.589c.3-.2.609-.391.914-.583a3.7,3.7,0,0,1,.867,1.245,4.474,4.474,0,0,1,.6,1.43c0,.059-.06.139-.179.285a6,6,0,0,1-4.6,1.6,6.451,6.451,0,0,1-4.661-1.7,6,6,0,0,1-1.827-4.595,6.607,6.607,0,0,1,1.629-4.608,5.709,5.709,0,0,1,4.449-1.86,5.252,5.252,0,0,1,3.959,1.708A5.675,5.675,0,0,1,280.4,132.464Zm-4.237-.755a1.846,1.846,0,0,0-.53-1.317,1.674,1.674,0,0,0-1.271-.569,1.552,1.552,0,0,0-1.271.636,2.154,2.154,0,0,0-.464,1.384c0,.212.119.324.344.324a22.193,22.193,0,0,0,2.8-.265C276.033,131.862,276.159,131.8,276.159,131.709Z" transform="translate(3.124 -74.474)" fill="#003e92"/>
      <path id="Path_1250" data-name="Path 1250" d="M283.764,129.968a12.106,12.106,0,0,1-.132,2.456,15.126,15.126,0,0,1-1.675,2.946,32.733,32.733,0,0,1-2.079,2.781c-.212.245-.854.384-1.92.384a9.894,9.894,0,0,1-1.8-.1.809.809,0,0,1-.43-.245,25.744,25.744,0,0,1-2.066-2.761,15.958,15.958,0,0,1-1.728-2.893,7.794,7.794,0,0,1-.311-2.529c0-.318.007-.795.013-1.437s.02-1.119.02-1.443c0-.212.132-.318.417-.318.417,0,1.039.007,1.873.033s1.444.04,1.86.04c.186,0,.278.126.278.384,0,.225-.007.569-.046,1.026s-.046.808-.046,1.039c0,.847.02,1.549.073,2.079a4.767,4.767,0,0,0,.708,1.563c.463.808.794,1.212,1.013,1.212.2,0,.516-.4.953-1.185a5.128,5.128,0,0,0,.7-1.51,20.556,20.556,0,0,0,.1-2.1c0-.238-.033-.589-.073-1.059s-.079-.834-.079-1.059c0-.252.093-.377.258-.377.192,0,.483,0,.874.013s.669.013.874.013.49-.02.874-.053c.4-.026.7-.053.887-.053a.415.415,0,0,1,.411.318A12.6,12.6,0,0,1,283.764,129.968Z" transform="translate(19.34 -73.806)" fill="#003e92"/>
      <path id="Path_1251" data-name="Path 1251" d="M286.291,132.464c0,.808-.258,1.278-.794,1.39-.079.02-.92.106-2.5.245-.967.106-2.384.232-4.27.364a1.832,1.832,0,0,0,1.02,1.258,3.693,3.693,0,0,0,1.6.351,4.558,4.558,0,0,0,2.165-.589c.3-.2.616-.391.92-.583a3.556,3.556,0,0,1,.854,1.245,4.309,4.309,0,0,1,.609,1.43c0,.059-.06.139-.185.285a6.015,6.015,0,0,1-4.6,1.6,6.489,6.489,0,0,1-4.668-1.7,6.028,6.028,0,0,1-1.827-4.595,6.55,6.55,0,0,1,1.635-4.608,5.686,5.686,0,0,1,4.442-1.86,5.276,5.276,0,0,1,3.966,1.708A5.681,5.681,0,0,1,286.291,132.464Zm-4.237-.755a1.826,1.826,0,0,0-.536-1.317,1.674,1.674,0,0,0-1.271-.569,1.561,1.561,0,0,0-1.271.636,2.155,2.155,0,0,0-.463,1.384.3.3,0,0,0,.338.324,22.064,22.064,0,0,0,2.807-.265C281.922,131.862,282.054,131.8,282.054,131.709Z" transform="translate(36.184 -74.474)" fill="#003e92"/>
      <g id="Group_284" data-name="Group 284" transform="translate(0 0.503)">
        <path id="Path_1252" data-name="Path 1252" d="M232.294,130.376a14.216,14.216,0,0,1-.02-4.853c.252-.3-.225-1.774-1.351-.642-.344.344-2.449,4.052,1.371,5.5" transform="translate(-214.399 -87.521)" fill="#fff"/>
        <path id="Path_1253" data-name="Path 1253" d="M271.833,127.8a34.117,34.117,0,0,0,8.845-1.7v-1.847a35.8,35.8,0,0,1-11.824,1.88,4.369,4.369,0,0,1-2.84,2.747c-.457,3.085-2.615,2.973-2.84,2.92-.384-.046-.4.113-.47.278A2.808,2.808,0,0,1,259,134.364a2.937,2.937,0,0,1-3.059,1.721c-2.2,2.734-4.131.781-4.82.371-3.714.477-4.8-1.635-4.992-2.119-3.8-.377-3.926-3.257-3.86-4.151a4.129,4.129,0,0,1-3.218-3.343c-1.463-.41-6.872-1.417-8.3-1.913a29.61,29.61,0,0,1-3.072-.947v1.847c.828.285,1.946.655,2.622.8.947.318,3.012.761,5.012,1.172.616.146,1.218.285,1.629.391v22.662c.212-.1.417-.192.636-.285l.708-.278V128.717A5.758,5.758,0,0,0,240.862,131a5.492,5.492,0,0,0,.642,1.986,5.159,5.159,0,0,0,3.714,2.476,4.721,4.721,0,0,0,1.284,1.3,5.034,5.034,0,0,0,1.854.814v10.262h.007l1.072-.113h.013v-9.971a8.491,8.491,0,0,0,1.3,0,5.017,5.017,0,0,0,2.383,1,4.207,4.207,0,0,0,3.449-1.423,4.185,4.185,0,0,0,2.814-1.245v11.685l.7.086c.126.013.251.053.384.066l-.013-12.208a5.35,5.35,0,0,0,.907-.192,4.071,4.071,0,0,0,2.45-2.47,3.881,3.881,0,0,0,1.688-.655,4.554,4.554,0,0,0,1.741-2.642,5.891,5.891,0,0,0,2.463-2.364c.238,0,.5-.007.795-.013v23.079l.357.146c.338.132.642.3.967.444Z" transform="translate(-227.674 -90.198)" fill="#fff"/>
        <path id="Path_1254" data-name="Path 1254" d="M233.577,131.315a14.654,14.654,0,0,1-1.278-5.687c-.172-1.443-1.437-1.086-1.563-.126a7.321,7.321,0,0,0,.066,3.582c.278,1.516,2.165,2.622,2.774,2.231" transform="translate(-211.517 -86.381)" fill="#fff"/>
        <path id="Path_1255" data-name="Path 1255" d="M231.4,126.032c.152-.351.205-.715-.51-1.317-.4-.457-1.516-.642-1.218.47.205.417.92,1.5,1.728.847" transform="translate(-216.739 -88.102)" fill="#fff"/>
        <path id="Path_1256" data-name="Path 1256" d="M251.051,130.229c3.549-.94,7.633.258,9.09.516.828.152,2.39.285,2.483.285,1.265.119,1.543.5,1.688.622.755.49.881.291,1.126.212,2.748-.9,11.652-5.436,15.247-7.415v-1.973c-2.966,1.635-12.625,6.482-15.558,7.475a4.165,4.165,0,0,0-2.363-.834l-.053-.007h-.033c-.185-.013-1.569-.132-2.284-.258l-.834-.165c-1.933-.4-5.542-1.165-8.852-.3a5.539,5.539,0,0,0-3.085,1.735c-8.706-2.112-19.57-9.083-19.683-9.15l-.265-.179v2.006c2.357,1.5,12.493,7.753,20.583,9.448a4.074,4.074,0,0,1,2.794-2.013" transform="translate(-227.674 -108.156)" fill="#fff"/>
        <path id="Path_1257" data-name="Path 1257" d="M247.367,128.853a3.336,3.336,0,0,0-2.185-.6,3.083,3.083,0,0,1-1.635-.212c-6.866-1.622-8.388-.92-9.064-.8-1.96.384-1.96.98-2.026,1.2a4.192,4.192,0,0,1-1.172,2.284c-.9.8-.556,1.006-.391,1.126,2.661,1.119,4.641-1.3,5.336-1.966a7.976,7.976,0,0,1,6.733,3.661,13.338,13.338,0,0,0,3.516,4.065,6.067,6.067,0,0,1,2.357,3.595,3.73,3.73,0,0,0,2.291-2.516,29.952,29.952,0,0,0,12.6-1.966l.007-15.214c-3.926,2.178-12.645,6.621-13.844,7.183-1.695.967-2.019.4-2.522.152" transform="translate(-210.722 -104.059)" fill="#fff"/>
        <path id="Path_1258" data-name="Path 1258" d="M243.3,140.958c2.582-1.185,3.542.583,3.621,1.225,2.132-.847,2.688.874,2.655,1.284.073,1.212.311,2.767.338,2.94a5.875,5.875,0,0,0,.914,2.4,4.39,4.39,0,0,0,2.138,1.682c1.384.636,1.437-.41,1.165-.881a38.194,38.194,0,0,1-2.019-3.588c-.55-1.245.834-1.2,1.2-.371A22.122,22.122,0,0,0,254.9,148.3a1.723,1.723,0,0,0,1.4,1.039c.761.046,1.477-.814.993-1.47-.543-.781-1.126-1.715-1.331-1.9a5.759,5.759,0,0,1-1.046-1.556c-.523-1.185.616-1.483,1.079-.662a6.982,6.982,0,0,1,.576.834c.622,1.079,1.51,2.006,1.794,2.469.96,1.3,1.867.669,2.105.53a1.318,1.318,0,0,0,.6-.98A5.612,5.612,0,0,0,260,144.42c-.457-.742-1.132-1.735-1.225-1.88a2.366,2.366,0,0,1-.444-2.35c.351-.828,1.026-.583,1.1.02a3.611,3.611,0,0,0,.245,1.192,19.024,19.024,0,0,0,2.1,3.184c.179.185.252.364.6.49a2.319,2.319,0,0,0,2.231-1.88,3.94,3.94,0,0,0-.933-2.675,21.72,21.72,0,0,0-2.953-3.019,4.031,4.031,0,0,1-.973-1.165,14.246,14.246,0,0,0-1.5-2.231,6.275,6.275,0,0,0-3.317-1.821,3.988,3.988,0,0,0-1.516-.159,7.771,7.771,0,0,1-4.284,1.966c-2.264.338-2.675-.967-2.761-1.112-.238-.682.437-1.317.649-1.556a3.186,3.186,0,0,0,1.033-1.37c-8.064-1.509-18.021-7.276-20.372-8.68v15.757a41.773,41.773,0,0,0,12.334,3.059c2.291-1.033,2.966.324,3.29.768" transform="translate(-227.674 -104.862)" fill="#fff"/>
        <path id="Path_1259" data-name="Path 1259" d="M241.822,143.065c.715.6.662.967.51,1.318-.808.655-1.523-.43-1.728-.847-.3-1.112.814-.927,1.218-.47m2.377.748c1.126-1.132,1.6.344,1.351.642a14.216,14.216,0,0,0,.02,4.853c-3.82-1.443-1.715-5.151-1.371-5.5m2.695,1.761c.126-.96,1.39-1.318,1.563.126a14.656,14.656,0,0,0,1.278,5.687c-.609.391-2.5-.715-2.774-2.231a7.319,7.319,0,0,1-.066-3.582m-7.845-2.476a4.129,4.129,0,0,0,3.218,3.343c-.066.894.059,3.774,3.86,4.151.192.483,1.278,2.6,4.992,2.119.689.411,2.615,2.364,4.82-.371A2.937,2.937,0,0,0,259,150.619a2.808,2.808,0,0,0,3.707-2.284c.066-.165.086-.324.47-.278.225.053,2.383.166,2.84-2.92a4.369,4.369,0,0,0,2.84-2.747,35.8,35.8,0,0,0,11.824-1.88v-1.384a29.953,29.953,0,0,1-12.6,1.966,3.73,3.73,0,0,1-2.291,2.516,6.067,6.067,0,0,0-2.357-3.595,13.339,13.339,0,0,1-3.516-4.065,7.976,7.976,0,0,0-6.733-3.661c-.7.662-2.675,3.085-5.336,1.966-.166-.119-.51-.324.391-1.126a4.192,4.192,0,0,0,1.172-2.284c.066-.225.066-.821,2.026-1.2.675-.119,2.2-.821,9.064.8a3.083,3.083,0,0,0,1.635.212,3.336,3.336,0,0,1,2.185.6c.5.252.828.814,2.522-.152,1.2-.563,9.918-5.005,13.844-7.183v-1.165c-3.595,1.98-12.5,6.515-15.247,7.415-.245.079-.371.278-1.126-.212-.146-.126-.424-.5-1.688-.622-.093,0-1.655-.132-2.483-.285-1.457-.258-5.542-1.456-9.09-.516a4.074,4.074,0,0,0-2.794,2.013c-8.09-1.695-18.227-7.945-20.583-9.448v1.874c2.35,1.4,12.308,7.17,20.372,8.68a3.187,3.187,0,0,1-1.033,1.37c-.212.238-.887.874-.649,1.556.086.146.5,1.45,2.761,1.112a7.771,7.771,0,0,0,4.284-1.966,3.987,3.987,0,0,1,1.516.159,6.275,6.275,0,0,1,3.317,1.821,14.245,14.245,0,0,1,1.5,2.231,4.031,4.031,0,0,0,.973,1.165,21.726,21.726,0,0,1,2.953,3.019,3.94,3.94,0,0,1,.933,2.675,2.319,2.319,0,0,1-2.231,1.88c-.344-.126-.417-.3-.6-.49a19.024,19.024,0,0,1-2.1-3.184,3.611,3.611,0,0,1-.245-1.192c-.073-.6-.748-.847-1.1-.02a2.366,2.366,0,0,0,.444,2.35c.093.146.768,1.139,1.225,1.88a5.613,5.613,0,0,1,1.079,2.185,1.317,1.317,0,0,1-.6.98c-.238.139-1.145.768-2.105-.53-.285-.463-1.172-1.39-1.794-2.469a6.98,6.98,0,0,0-.576-.834c-.464-.821-1.6-.523-1.079.662a5.757,5.757,0,0,0,1.046,1.556c.205.185.788,1.119,1.331,1.9.483.655-.232,1.516-.993,1.47a1.723,1.723,0,0,1-1.4-1.039,22.108,22.108,0,0,1-1.589-2.655c-.371-.828-1.754-.874-1.2.371a38.2,38.2,0,0,0,2.019,3.588c.271.47.219,1.516-1.165.881a4.39,4.39,0,0,1-2.138-1.682,5.874,5.874,0,0,1-.914-2.4c-.026-.172-.265-1.728-.338-2.94.033-.41-.523-2.132-2.655-1.284-.079-.642-1.039-2.41-3.621-1.225-.324-.444-1-1.8-3.29-.768a41.771,41.771,0,0,1-12.334-3.059v1.516a29.61,29.61,0,0,0,3.072.947c1.43.5,6.839,1.5,8.3,1.913" transform="translate(-227.674 -106.453)" fill="#002581"/>
        <path id="Path_1260" data-name="Path 1260" d="M235.308,126.235c-2-.41-4.065-.854-5.012-1.172-.675-.146-1.794-.516-2.622-.8v30.852h.053a31.2,31.2,0,0,1,9.209-5.826V126.626c-.41-.106-1.013-.245-1.629-.391" transform="translate(-227.674 -88.63)" fill="#cb0017"/>
        <path id="Path_1261" data-name="Path 1261" d="M238.093,127.056a4.207,4.207,0,0,1-3.449,1.423,5.018,5.018,0,0,1-2.383-1,8.5,8.5,0,0,1-1.3,0v9.971a4.462,4.462,0,0,1,.51-.026v-9.136c.212,0,.424,0,.642-.02a5.287,5.287,0,0,0,2.47,1.013,4.568,4.568,0,0,0,3.741-1.483,4.631,4.631,0,0,0,2.079-.708v10.368l.245.013.258.026V125.811a4.184,4.184,0,0,1-2.814,1.245" transform="translate(-209.188 -79.924)" fill="#fff"/>
        <path id="Path_1262" data-name="Path 1262" d="M241.876,124.509a5.892,5.892,0,0,1-2.463,2.364,4.554,4.554,0,0,1-1.741,2.642,3.882,3.882,0,0,1-1.688.655,4.071,4.071,0,0,1-2.45,2.469,5.341,5.341,0,0,1-.907.192l.013,12.208c.166.026.338.066.5.1-.007-2.807-.013-10.977-.013-11.652.172-.04.364-.086.569-.146a4.571,4.571,0,0,0,2.628-2.575,4.036,4.036,0,0,0,1.635-.7,5.143,5.143,0,0,0,1.854-2.794,6.392,6.392,0,0,0,2.33-2.264h.026v22.378l.5.192V124.5c-.291.007-.556.013-.794.013" transform="translate(-199.835 -87.315)" fill="#fff"/>
        <path id="Path_1263" data-name="Path 1263" d="M234.344,149.249a30.782,30.782,0,0,1,8.779,5.634h.066V124.3a34.114,34.114,0,0,1-8.845,1.7Z" transform="translate(-190.185 -88.4)" fill="#cb0017"/>
        <path id="Path_1264" data-name="Path 1264" d="M247.622,140.84a5.539,5.539,0,0,1,3.085-1.735c3.31-.861,6.919-.1,8.852.3l.834.165c.715.126,2.1.245,2.284.258h.033l.053.007a4.166,4.166,0,0,1,2.363.834c2.933-.993,12.592-5.839,15.558-7.475V118.88H227.674v12.632l.265.179c.113.066,10.977,7.038,19.683,9.15" transform="translate(-227.674 -118.88)" fill="#cb0017"/>
        <path id="Path_1265" data-name="Path 1265" d="M237.5,132.742a4.722,4.722,0,0,1-1.284-1.3,5.159,5.159,0,0,1-3.714-2.476,5.492,5.492,0,0,1-.642-1.986,5.759,5.759,0,0,1-2.582-2.284v21.577l.252-.1c.086-.026.179-.046.252-.073l.007-19.9a5.9,5.9,0,0,0,1.642,1.2,5.443,5.443,0,0,0,4.5,4.707,5.17,5.17,0,0,0,1.271,1.3,6.109,6.109,0,0,0,1.648.788v9.712c.172-.02.331-.073.5-.093V133.556a5.034,5.034,0,0,1-1.854-.814" transform="translate(-218.67 -86.179)" fill="#fff"/>
        <path id="Path_1266" data-name="Path 1266" d="M236.774,132.135a5.168,5.168,0,0,1-1.271-1.3,5.442,5.442,0,0,1-4.5-4.707,5.9,5.9,0,0,1-1.642-1.2l-.007,19.9a43.9,43.9,0,0,1,9.07-2.191v-9.712a6.11,6.11,0,0,1-1.648-.788" transform="translate(-218.243 -84.904)" fill="#002581"/>
        <path id="Path_1267" data-name="Path 1267" d="M241.72,124.573a6.392,6.392,0,0,1-2.331,2.264,5.143,5.143,0,0,1-1.854,2.794,4.037,4.037,0,0,1-1.635.7,4.572,4.572,0,0,1-2.628,2.575c-.205.06-.4.106-.569.146,0,.675.007,8.845.013,11.652a42.677,42.677,0,0,1,9,2.238l.026.007V124.573Z" transform="translate(-199.408 -86.882)" fill="#002581"/>
        <path id="Path_1268" data-name="Path 1268" d="M237.892,126.712a4.568,4.568,0,0,1-3.741,1.483,5.287,5.287,0,0,1-2.47-1.013c-.218.02-.43.02-.642.02v9.136c1.377-.126,2.781-.212,4.211-.212,1.609,0,3.178.1,4.72.245V126a4.632,4.632,0,0,1-2.079.708" transform="translate(-208.755 -78.839)" fill="#cb0017"/>
      </g>
      <path id="Path_1269" data-name="Path 1269" d="M276.573,118.934h20.534v8.515h-6.595v23.8h-7.325v-23.8h-6.615Z" transform="translate(47.168 -118.076)" fill="#1a1818"/>
      <path id="Path_1270" data-name="Path 1270" d="M272.263,151.248V118.934h6.8l7.714,17.308V118.934h7.041v32.314h-7L279.3,134.366v16.882Z" transform="translate(22.941 -118.076)" fill="#1a1818"/>
      <path id="Path_1271" data-name="Path 1271" d="M268.389,151.248V118.934H286.57v7.61H275.481v4.552h9.426v7.332h-9.426V143.5h11.528v7.746Z" transform="translate(1.167 -118.076)" fill="#1a1818"/>
      <path id="Path_1272" data-name="Path 1272" d="M263.492,151.248l.007-32.314h8.877l3.931,20.185,3.931-20.185H289.1v32.314h-6.653V133.119l-3.588,18.129h-5.108l-3.633-18.129v18.129Z" transform="translate(-26.355 -118.076)" fill="#1a1818"/>
      <path id="Path_1273" data-name="Path 1273" d="M259.616,151.248V118.934H277.8v7.61H266.709v4.552h9.426v7.332h-9.426V143.5h11.534v7.746Z" transform="translate(-48.14 -118.076)" fill="#1a1818"/>
      <path id="Path_1274" data-name="Path 1274" d="M277.534,132.032H270.6a7.214,7.214,0,0,0-1.178-3.774,3.1,3.1,0,0,0-2.569-1.351,3.62,3.62,0,0,0-3.178,2.191q-1.221,2.185-1.218,7.084a18.727,18.727,0,0,0,.523,5.124,5.892,5.892,0,0,0,1.45,2.615,3.278,3.278,0,0,0,2.311.861,3.218,3.218,0,0,0,2.708-1.357,7.684,7.684,0,0,0,1.2-3.992h7.031a25.467,25.467,0,0,1-.814,5.058,14.186,14.186,0,0,1-2.006,4.092,10.364,10.364,0,0,1-3.357,3.171,8.912,8.912,0,0,1-4.529,1.132,10.186,10.186,0,0,1-4.727-1.112,9.912,9.912,0,0,1-3.615-3.1,15.947,15.947,0,0,1-2.331-4.621A26.387,26.387,0,0,1,255.156,136a27.935,27.935,0,0,1,.854-7.024,17.789,17.789,0,0,1,2.33-5.449,11.039,11.039,0,0,1,3.271-3.324,9.491,9.491,0,0,1,5.078-1.4,10.068,10.068,0,0,1,4.548,1.053,8.97,8.97,0,0,1,3.509,3.059,15.193,15.193,0,0,1,2.1,4.654,22.8,22.8,0,0,1,.689,4.462" transform="translate(-73.209 -118.804)" fill="#1a1818"/>
      <path id="Path_1275" data-name="Path 1275" d="M249.333,137.2h6.495v1.695a20.07,20.07,0,0,0,.192,3.429,2.9,2.9,0,0,0,.655,1.443,1.453,1.453,0,0,0,1.079.463,1.556,1.556,0,0,0,1.344-.847,5.1,5.1,0,0,0,.536-2.642V118.924h7.316V139.3q0,6.306-2.291,9.553a7.474,7.474,0,0,1-6.508,3.244,8.32,8.32,0,0,1-3.793-.748,8.035,8.035,0,0,1-2.092-1.655,9.551,9.551,0,0,1-1.7-2.562,12.141,12.141,0,0,1-.94-3.562,57.219,57.219,0,0,1-.291-6.376" transform="translate(-105.938 -118.13)" fill="#1a1818"/>
      <path id="Path_1276" data-name="Path 1276" d="M242.624,151.238V118.924h7.118v10.668l6.624-10.668H265l-8.188,12.155,9.006,20.159h-8.76l-5.363-12.866-1.952,2.781v10.086Z" transform="translate(-143.646 -118.131)" fill="#1a1818"/>
      <rect id="Rectangle_36" data-name="Rectangle 36" width="7.348" height="32.314" transform="translate(128.978 0.793)" fill="#1a1818"/>
      <g id="Group_285" data-name="Group 285" transform="translate(68.391 0.794)">
        <path id="Path_1277" data-name="Path 1277" d="M245.187,151.239l.814-4.224h7.322l.854,4.224h7.289l-7.991-32.315H246l-8,32.315Zm6.852-10.858h-4.674l2.317-11.752Z" transform="translate(-238.004 -118.924)" fill="#1a1818"/>
      </g>
      <path id="Path_1278" data-name="Path 1278" d="M285.874,131.193c0,.318-.172.47-.53.47-.152,0-.371-.013-.668-.026s-.523-.033-.669-.033a2.15,2.15,0,0,0-1.371.318,1.688,1.688,0,0,0-.371,1.284c0,.351.007.881.02,1.6s.013,1.245.013,1.6c0,.232.02.589.053,1.053s.046.814.046,1.046c0,.192-.133.3-.4.331-.391.033-.986.046-1.788.046-.768,0-1.377-.027-1.847-.073-.258-.04-.391-.165-.391-.4,0-.655,0-1.629.007-2.926s.013-2.277.013-2.933a17.437,17.437,0,0,0-.536-4.727.636.636,0,0,1-.02-.179.243.243,0,0,1,.172-.252c.45-.046,1.112-.139,1.973-.265,1.284-.252,1.953-.384,2-.384.139,0,.225.265.272.781.026.523.093.781.205.781-.126,0,.218-.212.993-.649a4.6,4.6,0,0,1,2.251-.649c.45,0,.682.093.682.291a9.629,9.629,0,0,1-.066.993c-.04.477-.073.808-.079,1.006,0,.232.007.55.02.94Q285.874,130.965,285.874,131.193Z" transform="translate(52.001 -74.177)" fill="#003e92"/>
    </g>
  </g>
</svg>
