<svg id="apfil" xmlns="http://www.w3.org/2000/svg" width="324.965" height="133.756" viewBox="0 0 324.965 133.756">
  <g id="Group_14" data-name="Group 14" transform="translate(0 113.821)">
    <g id="Group_13" data-name="Group 13">
      <path id="Path_38" data-name="Path 38" d="M105.368,228.746l-1.384,4.952H99.462l5.906-19.312h5.72l5.992,19.312h-4.707l-1.483-4.952Zm4.886-3.277-1.185-4.1c-.357-1.132-.708-2.569-.98-3.707h-.066c-.285,1.139-.569,2.6-.867,3.707l-1.159,4.1Z" transform="translate(-99.462 -214.081)" fill="#1a1818"/>
      <path id="Path_39" data-name="Path 39" d="M102.511,214.386h4.323v8.541h.086c.444-.741.887-1.423,1.311-2.125l4.389-6.415h5.356l-6.4,8.229,6.733,11.083h-5.1l-4.714-8.329-1.662,2.019V233.7h-4.323Z" transform="translate(-82.325 -214.081)" fill="#1a1818"/>
      <path id="Path_40" data-name="Path 40" d="M109.536,214.386V233.7h-4.37V214.386Z" transform="translate(-67.402 -214.081)" fill="#1a1818"/>
      <path id="Path_41" data-name="Path 41" d="M111.794,214.386h4.376v12.2c0,5.5-2.635,7.428-6.879,7.428a12,12,0,0,1-3.184-.463l.483-3.522a7.448,7.448,0,0,0,2.231.344c1.834,0,2.973-.834,2.973-3.833Z" transform="translate(-62.113 -214.081)" fill="#1a1818"/>
      <path id="Path_42" data-name="Path 42" d="M109.047,214.776a35.846,35.846,0,0,1,5.892-.411c2.695,0,4.615.516,5.919,1.549a5.653,5.653,0,0,1,2.052,4.469,6.172,6.172,0,0,1-1.781,4.581,9,9,0,0,1-6.263,2.026,9.781,9.781,0,0,1-1.5-.08v6.905h-4.323Zm4.323,8.759a7.66,7.66,0,0,0,1.463.113c2.317,0,3.734-1.172,3.734-3.151,0-1.781-1.218-2.834-3.4-2.834a7.038,7.038,0,0,0-1.8.172Z" transform="translate(-45.589 -214.199)" fill="#1a1818"/>
      <path id="Path_43" data-name="Path 43" d="M129.976,224.105c0,6.336-3.827,10.169-9.481,10.169-5.72,0-9.07-4.33-9.07-9.825,0-5.78,3.694-10.11,9.388-10.11C126.738,214.34,129.976,218.782,129.976,224.105Zm-13.943.245c0,3.794,1.768,6.448,4.694,6.448,2.946,0,4.641-2.8,4.641-6.554,0-3.463-1.668-6.442-4.668-6.442C117.761,217.8,116.033,220.61,116.033,224.35Z" transform="translate(-32.223 -214.34)" fill="#1a1818"/>
      <path id="Path_44" data-name="Path 44" d="M114.66,214.386h4.37V230.03H126.7V233.7H114.66Z" transform="translate(-14.04 -214.081)" fill="#1a1818"/>
      <path id="Path_45" data-name="Path 45" d="M122.335,233.7v-7.905l-6.1-11.407h5l1.966,4.648c.6,1.417,1.013,2.436,1.49,3.7h.053c.424-1.211.881-2.317,1.463-3.7l1.953-4.648h4.893l-6.362,11.255V233.7Z" transform="translate(-5.21 -214.081)" fill="#1a1818"/>
      <path id="Path_46" data-name="Path 46" d="M119.959,214.386h11.8v3.588h-7.422v4.4h6.925v3.562h-6.925V233.7h-4.376Z" transform="translate(15.743 -214.081)" fill="#1a1818"/>
      <path id="Path_47" data-name="Path 47" d="M126.612,214.386V233.7h-4.376V214.386Z" transform="translate(28.541 -214.081)" fill="#1a1818"/>
      <path id="Path_48" data-name="Path 48" d="M123.469,214.776a35.207,35.207,0,0,1,5.641-.411c2.661,0,4.29.258,5.707,1.092a4.212,4.212,0,0,1,2.3,3.787,4.352,4.352,0,0,1-3.171,4.111v.066a4.82,4.82,0,0,1,3.833,4.74,5.137,5.137,0,0,1-2.006,4.091c-1.384,1.132-3.741,1.774-7.587,1.774a32.57,32.57,0,0,1-4.72-.3Zm4.323,7.389h1.423c2.3,0,3.529-.953,3.529-2.39s-1.119-2.224-3.105-2.224a10.81,10.81,0,0,0-1.847.113Zm0,8.547a10.777,10.777,0,0,0,1.682.073c1.993,0,3.741-.768,3.741-2.78,0-1.947-1.748-2.728-3.926-2.728h-1.5Z" transform="translate(35.471 -214.199)" fill="#1a1818"/>
      <path id="Path_49" data-name="Path 49" d="M126.081,214.776a38.445,38.445,0,0,1,5.8-.411c2.873,0,4.873.437,6.237,1.523a4.871,4.871,0,0,1,1.781,4.032,5.107,5.107,0,0,1-3.41,4.754v.086c1.357.543,2.092,1.834,2.589,3.608.6,2.178,1.2,4.707,1.576,5.449h-4.475a25.316,25.316,0,0,1-1.357-4.5c-.51-2.41-1.324-3.072-3.1-3.092h-1.331v7.587h-4.31Zm4.31,8.3h1.721c2.178,0,3.476-1.086,3.476-2.781,0-1.768-1.212-2.675-3.211-2.7a11.5,11.5,0,0,0-1.986.146Z" transform="translate(50.152 -214.199)" fill="#1a1818"/>
      <path id="Path_50" data-name="Path 50" d="M140.136,225.522h-7.117v4.595h7.938V233.7H128.643V214.386h11.924v3.588h-7.547v4.005h7.117Z" transform="translate(64.552 -214.081)" fill="#1a1818"/>
      <path id="Path_51" data-name="Path 51" d="M136.2,214.386V233.7h-4.376V214.386Z" transform="translate(82.437 -214.081)" fill="#1a1818"/>
      <path id="Path_52" data-name="Path 52" d="M133.058,233.7V214.386h5.1l4.005,7.084a54.417,54.417,0,0,1,3.145,6.607h.086a73.649,73.649,0,0,1-.371-8.044v-5.647h4.025V233.7h-4.6l-4.118-7.461a67.669,67.669,0,0,1-3.35-6.806l-.086.033c.126,2.556.179,5.277.179,8.421V233.7Z" transform="translate(89.367 -214.081)" fill="#1a1818"/>
      <path id="Path_53" data-name="Path 53" d="M136.04,214.776a37.183,37.183,0,0,1,5.9-.411c3.668,0,6.045.662,7.9,2.072,2,1.483,3.271,3.86,3.271,7.256,0,3.708-1.351,6.256-3.218,7.825-2.019,1.682-5.111,2.509-8.891,2.509a36.836,36.836,0,0,1-4.965-.3Zm4.389,15.744a7.9,7.9,0,0,0,1.51.086c3.952.027,6.521-2.145,6.521-6.76.046-4.012-2.311-6.137-6.058-6.137a8.739,8.739,0,0,0-1.973.185Z" transform="translate(106.128 -214.199)" fill="#1a1818"/>
      <path id="Path_54" data-name="Path 54" d="M138.807,219.206a2.521,2.521,0,0,1,2.589-2.655,2.483,2.483,0,0,1,2.549,2.655,2.57,2.57,0,1,1-5.137,0Z" transform="translate(121.68 -201.913)" fill="#1a1818"/>
      <path id="Path_55" data-name="Path 55" d="M140.873,214.386h4.389V230.03h7.68V233.7H140.873Z" transform="translate(133.292 -214.081)" fill="#1a1818"/>
      <path id="Path_56" data-name="Path 56" d="M147.586,218.054h-5.171v-3.668h14.81v3.668h-5.263V233.7h-4.376Z" transform="translate(141.959 -214.081)" fill="#1a1818"/>
      <path id="Path_57" data-name="Path 57" d="M145,214.776a37.418,37.418,0,0,1,5.912-.411c3.648,0,6.031.662,7.892,2.072,2.006,1.483,3.264,3.86,3.264,7.256,0,3.708-1.351,6.256-3.2,7.825-2.033,1.682-5.131,2.509-8.918,2.509a36.765,36.765,0,0,1-4.952-.3Zm4.383,15.744a8.08,8.08,0,0,0,1.529.086c3.939.027,6.528-2.145,6.528-6.76.02-4.012-2.317-6.137-6.078-6.137a8.859,8.859,0,0,0-1.98.185Z" transform="translate(156.5 -214.199)" fill="#1a1818"/>
      <path id="Path_58" data-name="Path 58" d="M147.769,219.206a2.521,2.521,0,0,1,2.589-2.655,2.485,2.485,0,0,1,2.556,2.655,2.573,2.573,0,1,1-5.144,0Z" transform="translate(172.052 -201.913)" fill="#1a1818"/>
    </g>
  </g>
  <g id="Group_17" data-name="Group 17" transform="translate(88.113 0)">
    <g id="Group_15" data-name="Group 15" transform="translate(0.132)">
      <path id="Path_59" data-name="Path 59" d="M139.06,209.555V197.148H122.389v12.46A61.374,61.374,0,0,1,130.9,209,63.589,63.589,0,0,1,139.06,209.555Z" transform="translate(-58.845 -197.148)" fill="#94000e"/>
      <path id="Path_60" data-name="Path 60" d="M148.983,208.419l-13.413-9.891-7.475,10.13a61.646,61.646,0,0,1,13.426,9.865Z" transform="translate(-26.774 -189.392)" fill="#94000e"/>
      <path id="Path_61" data-name="Path 61" d="M149.154,219.312l-5.4-15.777-11.738,4.019a60.79,60.79,0,0,1,5.224,15.836Z" transform="translate(-4.752 -161.249)" fill="#94000e"/>
      <path id="Path_62" data-name="Path 62" d="M129.545,198.5l-13.4,9.9,7.4,10.03a61.187,61.187,0,0,1,13.5-9.8Z" transform="translate(-93.94 -189.526)" fill="#94000e"/>
      <path id="Path_63" data-name="Path 63" d="M118.187,203.51l-5.4,15.77,11.685,3.992a60.968,60.968,0,0,1,5.283-15.81Z" transform="translate(-112.791 -161.39)" fill="#94000e"/>
    </g>
    <path id="Path_64" data-name="Path 64" d="M129.236,260.39a46.606,46.606,0,0,1,93.211,0H237.3a61.452,61.452,0,0,0-122.9,0Z" transform="translate(-103.654 -187.087)" fill="#94000e"/>
    <g id="Group_16" data-name="Group 16" transform="translate(0 32.481)">
      <path id="Path_65" data-name="Path 65" d="M124.79,204.31l-3.079,3.277c.867.92,1.893,2.026,3.052,3.3,1.046-1.126,2.085-2.231,3.105-3.3Z" transform="translate(-62.523 -189.374)" fill="none"/>
      <path id="Path_66" data-name="Path 66" d="M127.077,205.118l3.118,3.337c-.98,1.026-1.986,2.152-3.065,3.3q-1.619-1.718-3.131-3.337Z" transform="translate(-49.669 -184.833)" fill="none"/>
      <path id="Path_67" data-name="Path 67" d="M128.658,208.415c-1.006,1.086-2.059,2.192-3.132,3.337-1.073-1.145-2.112-2.271-3.059-3.3l3.1-3.337Z" transform="translate(-58.268 -184.833)" fill="none"/>
      <path id="Path_68" data-name="Path 68" d="M126.375,205.932l3.158,3.363c-1.033,1.1-2.072,2.238-3.158,3.4-1.079-1.165-2.125-2.3-3.151-3.4Z" transform="translate(-54.019 -180.257)" fill="none"/>
      <path id="Path_69" data-name="Path 69" d="M124,206.755l3.045-3.264,3.138,3.324c-.867.914-1.907,2.019-3.065,3.264C126.014,208.913,124.975,207.788,124,206.755Z" transform="translate(-49.686 -193.977)" fill="none"/>
      <path id="Path_70" data-name="Path 70" d="M126.336,204.3l3.085,3.343c-.96,1.013-2,2.125-3.085,3.3-1.086-1.172-2.125-2.284-3.105-3.3Z" transform="translate(-53.98 -189.436)" fill="none"/>
      <path id="Path_71" data-name="Path 71" d="M126.286,209.194c-1.185-1.271-2.191-2.377-3.046-3.271l3.046-3.237,3.039,3.237C128.477,206.817,127.457,207.923,126.286,209.194Z" transform="translate(-53.929 -198.502)" fill="none"/>
      <path id="Path_72" data-name="Path 72" d="M125.537,210.078c-1.185-1.245-2.2-2.35-3.065-3.264l3.118-3.324,3.059,3.264C127.669,207.788,126.616,208.913,125.537,210.078Z" transform="translate(-58.246 -193.977)" fill="none"/>
      <path id="Path_73" data-name="Path 73" d="M127.825,204.31l3.085,3.277c-.867.927-1.913,2.026-3.059,3.3-1.053-1.126-2.1-2.231-3.092-3.3Z" transform="translate(-45.386 -189.374)" fill="none"/>
      <path id="Path_74" data-name="Path 74" d="M124.909,207.711c-.867-.94-1.543-1.648-1.966-2.1,1.172-1.231,2.2-2.311,3.045-3.244l1.966,2.105Z" transform="translate(-55.598 -200.289)" fill="#94000e"/>
      <path id="Path_75" data-name="Path 75" d="M124.136,208.591c-.834-.887-1.5-1.6-1.96-2.092,1.1-1.159,2.145-2.278,3.112-3.324l1.966,2.092Z" transform="translate(-59.909 -195.753)" fill="#94000e"/>
      <path id="Path_76" data-name="Path 76" d="M168.053,204.8l1.94,2.1L146.2,232.253H112.771v-2.867h32.2C145.41,228.916,157.222,216.317,168.053,204.8Z" transform="translate(-112.771 -186.597)" fill="#94000e"/>
      <path id="Path_77" data-name="Path 77" d="M123.363,209.369c-.821-.874-1.463-1.589-1.946-2.112,1.053-1.112,2.059-2.185,3.052-3.264l1.973,2.1Z" transform="translate(-64.175 -191.156)" fill="#94000e"/>
      <path id="Path_78" data-name="Path 78" d="M127.23,206.883l-3.1,3.337c-.689-.748-1.337-1.463-1.96-2.112,1.046-1.126,2.085-2.231,3.105-3.3Z" transform="translate(-59.932 -186.597)" fill="#94000e"/>
      <path id="Path_79" data-name="Path 79" d="M124.895,209.413c-.682-.748-1.337-1.443-1.96-2.105,1.079-1.165,2.132-2.291,3.112-3.323L128,206.069Z" transform="translate(-55.643 -191.206)" fill="#94000e"/>
      <path id="Path_80" data-name="Path 80" d="M123.7,206.446c1.172-1.271,2.191-2.377,3.039-3.271l1.96,2.092-3.045,3.264C124.971,207.789,124.316,207.094,123.7,206.446Z" transform="translate(-51.344 -195.753)" fill="#94000e"/>
      <path id="Path_81" data-name="Path 81" d="M173.051,205.618,175,207.723l-25.575,27.416H112.771v-2.86h35.42C148.628,231.789,161.578,217.919,173.051,205.618Z" transform="translate(-112.771 -182.022)" fill="#94000e"/>
      <path id="Path_82" data-name="Path 82" d="M126.785,204.8l1.966,2.079-3.079,3.3c-.682-.708-1.331-1.423-1.973-2.079C124.786,206.929,125.825,205.817,126.785,204.8Z" transform="translate(-51.344 -186.597)" fill="#94000e"/>
      <path id="Path_83" data-name="Path 83" d="M124.466,207.257c1.159-1.245,2.2-2.35,3.065-3.264l1.946,2.1-3.065,3.271C125.75,208.641,125.1,207.946,124.466,207.257Z" transform="translate(-47.038 -191.156)" fill="#94000e"/>
      <path id="Path_84" data-name="Path 84" d="M128.028,207.708l-3.151,3.363c-.655-.728-1.311-1.423-1.946-2.119,1.073-1.145,2.125-2.251,3.132-3.337Z" transform="translate(-55.671 -182.034)" fill="#94000e"/>
      <path id="Path_85" data-name="Path 85" d="M178.063,206.435l1.946,2.118-27.038,28.773h-40.2v-2.854h38.982C152.21,233.957,166.014,219.272,178.063,206.435Z" transform="translate(-112.771 -177.43)" fill="#94000e"/>
      <path id="Path_86" data-name="Path 86" d="M127.536,205.622l1.946,2.079-3.046,3.3q-.993-1.043-1.966-2.086C125.55,207.774,126.557,206.648,127.536,205.622Z" transform="translate(-47.01 -182)" fill="#94000e"/>
      <path id="Path_87" data-name="Path 87" d="M126.858,206.44l1.966,2.085-3.171,3.423c-.662-.715-1.311-1.41-1.953-2.105C124.786,208.678,125.825,207.539,126.858,206.44Z" transform="translate(-51.344 -177.402)" fill="#94000e"/>
      <path id="Path_88" data-name="Path 88" d="M183.181,207.272l1.946,2.112-28.409,30.7H112.771V237.23h42.7C155.931,236.714,170.589,220.871,183.181,207.272Z" transform="translate(-112.771 -172.726)" fill="#94000e"/>
      <path id="Path_89" data-name="Path 89" d="M130.232,206.9l-3.046,3.29c-.675-.7-1.311-1.4-1.96-2.085,1.145-1.271,2.191-2.37,3.059-3.3Z" transform="translate(-42.761 -186.592)" fill="#94000e"/>
      <path id="Path_90" data-name="Path 90" d="M125.983,206.9l1.96-2.1c10.825,11.513,22.642,24.112,23.093,24.582h32.2v2.867H149.791Z" transform="translate(-38.512 -186.597)" fill="#94000e"/>
      <path id="Path_91" data-name="Path 91" d="M123.7,204.473l1.973-2.105c.847.934,1.874,2.013,3.006,3.244-.4.45-1.059,1.178-1.94,2.1Z" transform="translate(-51.344 -200.289)" fill="#94000e"/>
      <path id="Path_92" data-name="Path 92" d="M124.455,205.267l1.966-2.092c.973,1.046,2.033,2.165,3.118,3.324-.444.5-1.112,1.2-1.946,2.092Z" transform="translate(-47.1 -195.753)" fill="#94000e"/>
      <path id="Path_93" data-name="Path 93" d="M125.223,206.092l1.966-2.1c1.013,1.079,2.019,2.152,3.059,3.264-.47.523-1.145,1.238-1.94,2.112Z" transform="translate(-42.784 -191.156)" fill="#94000e"/>
      <path id="Path_94" data-name="Path 94" d="M125.369,206.238l-1.966-2.105c.834-.874,1.509-1.576,1.966-2.079.47.5,1.139,1.2,1.973,2.079Z" transform="translate(-53.013 -202.054)" fill="#94000e"/>
      <path id="Path_95" data-name="Path 95" d="M124.159,204.957c.881-.92,1.536-1.648,1.94-2.1.642.662,1.3,1.344,1.986,2.1l-1.966,2.092Z" transform="translate(-48.764 -197.535)" fill="#94000e"/>
      <path id="Path_96" data-name="Path 96" d="M124.929,205.769c.834-.887,1.5-1.6,1.946-2.092q.953,1.023,1.966,2.092l-1.966,2.1Z" transform="translate(-44.436 -192.932)" fill="#94000e"/>
      <path id="Path_97" data-name="Path 97" d="M125.689,206.6c.794-.874,1.47-1.589,1.94-2.112.655.689,1.311,1.384,1.966,2.105l-1.96,2.1Z" transform="translate(-40.164 -188.385)" fill="#94000e"/>
      <path id="Path_98" data-name="Path 98" d="M126.429,204.8c.993,1.073,2.039,2.178,3.092,3.3-.629.649-1.284,1.364-1.94,2.112l-3.118-3.337Z" transform="translate(-47.055 -186.597)" fill="#94000e"/>
      <path id="Path_99" data-name="Path 99" d="M126,208.531l-3.059-3.264,1.966-2.092c.854.894,1.86,2,3.045,3.271C127.352,207.094,126.7,207.789,126,208.531Z" transform="translate(-55.598 -195.753)" fill="#94000e"/>
      <path id="Path_100" data-name="Path 100" d="M125.228,207.723l1.953-2.105c11.48,12.3,24.43,26.171,24.88,26.661h35.413v2.86H150.8Z" transform="translate(-42.755 -182.022)" fill="#94000e"/>
      <path id="Path_101" data-name="Path 101" d="M123.7,206.069l1.953-2.085c.98,1.033,2.019,2.158,3.118,3.323-.636.662-1.278,1.357-1.986,2.105Z" transform="translate(-51.344 -191.206)" fill="#94000e"/>
      <path id="Path_102" data-name="Path 102" d="M124.612,207.049l-1.966-2.092c.708-.755,1.351-1.437,1.966-2.1.424.45,1.1,1.159,1.966,2.1Z" transform="translate(-57.268 -197.535)" fill="#94000e"/>
      <path id="Path_103" data-name="Path 103" d="M125.358,207.84l-1.953-2.085c.7-.742,1.351-1.437,1.953-2.085.616.649,1.271,1.344,1.953,2.085Z" transform="translate(-53.002 -192.977)" fill="#94000e"/>
      <path id="Path_104" data-name="Path 104" d="M126.152,204.486c.636.689,1.284,1.384,1.946,2.105l-1.966,2.079-1.966-2.079C124.874,205.843,125.517,205.148,126.152,204.486Z" transform="translate(-48.724 -188.385)" fill="#94000e"/>
      <path id="Path_105" data-name="Path 105" d="M126.874,205.3c.649.689,1.284,1.39,1.96,2.085l-1.953,2.105-1.946-2.079C125.589,206.667,126.245,205.952,126.874,205.3Z" transform="translate(-44.408 -183.793)" fill="#94000e"/>
      <path id="Path_106" data-name="Path 106" d="M125.255,209.362l-3.079-3.271,1.96-2.1c.861.914,1.88,2.019,3.065,3.264C126.565,207.946,125.91,208.641,125.255,209.362Z" transform="translate(-59.909 -191.156)" fill="#94000e"/>
      <path id="Path_107" data-name="Path 107" d="M124.474,208.554l1.946-2.118c12.036,12.837,25.853,27.522,26.31,28.038h38.982v2.854h-40.22Z" transform="translate(-46.993 -177.43)" fill="#94000e"/>
      <path id="Path_108" data-name="Path 108" d="M125.673,205.616q1.509,1.619,3.131,3.337c-.636.7-1.284,1.39-1.946,2.119l-3.158-3.363Z" transform="translate(-51.344 -182.034)" fill="#94000e"/>
      <path id="Path_109" data-name="Path 109" d="M127.994,208.1c-.636.655-1.291,1.37-1.966,2.079l-3.092-3.3,1.953-2.079C125.869,205.817,126.908,206.929,127.994,208.1Z" transform="translate(-55.638 -186.597)" fill="#94000e"/>
      <path id="Path_110" data-name="Path 110" d="M123.851,207.868l-1.973-2.1c.669-.715,1.331-1.41,1.973-2.092.457.5,1.126,1.2,1.96,2.092Z" transform="translate(-61.584 -192.932)" fill="#94000e"/>
      <path id="Path_111" data-name="Path 111" d="M126.547,206.591l-1.953,2.079-1.953-2.079c.655-.722,1.311-1.417,1.946-2.105C125.21,205.148,125.865,205.843,126.547,206.591Z" transform="translate(-57.296 -188.385)" fill="#94000e"/>
      <path id="Path_112" data-name="Path 112" d="M125.369,205.3c.642.655,1.291,1.37,1.973,2.079l-1.973,2.092-1.966-2.092C124.078,206.672,124.734,205.957,125.369,205.3Z" transform="translate(-53.013 -183.798)" fill="#94000e"/>
      <path id="Path_113" data-name="Path 113" d="M126.123,206.12q.973,1.043,1.966,2.086l-1.946,2.118-1.966-2.085C124.839,207.51,125.488,206.815,126.123,206.12Z" transform="translate(-48.663 -179.201)" fill="#94000e"/>
      <path id="Path_114" data-name="Path 114" d="M126.432,208.1c-.655.689-1.3,1.39-1.96,2.085l-3.059-3.29,1.966-2.092C124.248,205.725,125.274,206.831,126.432,208.1Z" transform="translate(-64.192 -186.592)" fill="#94000e"/>
      <path id="Path_115" data-name="Path 115" d="M123.7,209.384l1.953-2.112c12.579,13.6,27.23,29.442,27.694,29.958h42.716v2.854H152.122Z" transform="translate(-51.344 -172.726)" fill="#94000e"/>
      <path id="Path_116" data-name="Path 116" d="M128.045,209.843c-.636.7-1.291,1.39-1.947,2.105l-3.171-3.423,1.966-2.085C125.92,207.539,126.966,208.678,128.045,209.843Z" transform="translate(-55.688 -177.402)" fill="#94000e"/>
      <path id="Path_117" data-name="Path 117" d="M127.2,208.919c-.649.7-1.317,1.39-1.966,2.086l-3.059-3.3,1.966-2.079C125.084,206.648,126.124,207.774,127.2,208.919Z" transform="translate(-59.938 -182)" fill="#94000e"/>
      <path id="Path_118" data-name="Path 118" d="M125.027,206.6l-1.966,2.092-1.94-2.1c.655-.722,1.324-1.417,1.96-2.105C123.564,205.009,124.206,205.724,125.027,206.6Z" transform="translate(-65.839 -188.385)" fill="#94000e"/>
      <path id="Path_119" data-name="Path 119" d="M125.8,207.415l-1.966,2.079-1.953-2.105c.662-.7,1.3-1.4,1.96-2.085C124.458,205.952,125.107,206.667,125.8,207.415Z" transform="translate(-61.596 -183.793)" fill="#94000e"/>
      <path id="Path_120" data-name="Path 120" d="M126.546,208.239l-1.966,2.085-1.946-2.118c.649-.7,1.317-1.39,1.966-2.086C125.235,206.815,125.89,207.51,126.546,208.239Z" transform="translate(-57.341 -179.201)" fill="#94000e"/>
      <path id="Path_121" data-name="Path 121" d="M125.352,206.954c.642.7,1.291,1.39,1.953,2.105l-1.953,2.112-1.946-2.112C124.061,208.344,124.717,207.649,125.352,206.954Z" transform="translate(-52.996 -174.513)" fill="#94000e"/>
    </g>
  </g>
</svg>
