<svg xmlns="http://www.w3.org/2000/svg" width="232.707" height="176.625" viewBox="0 0 232.707 176.625">
  <g id="acrl" transform="translate(0 0)">
    <g id="Group_280" data-name="Group 280">
      <g id="Group_275" data-name="Group 275" transform="translate(0.318 120.562)">
        <path id="Path_1187" data-name="Path 1187" d="M313.34,164.684l-1.211-7.958h-5.674l-1.165,7.958h-5.2l5.674-36.089h6.892l6.091,36.089Zm-4.157-27.376-1.993,14.387h4.151Z" transform="translate(-300.092 -128.595)" fill="#ec411b"/>
        <path id="Path_1188" data-name="Path 1188" d="M315.6,164.684l-4.469-16.77-2.41,5.025v11.745h-5.27V128.6h5.27v14.439l6.144-14.439h5.528l-6.051,12.546,6.832,23.543Z" transform="translate(-281.213 -128.595)" fill="#ec411b"/>
        <path id="Path_1189" data-name="Path 1189" d="M306.62,164.684V128.6h5.263v36.089Z" transform="translate(-263.401 -128.595)" fill="#ec411b"/>
        <path id="Path_1190" data-name="Path 1190" d="M317.1,153.422v1.688a20.591,20.591,0,0,1-1.106,6.561c-.7,2-2.576,3.012-5.621,3.012h-2.529v-5.032H309.1a2.047,2.047,0,0,0,2.125-1.172,7.734,7.734,0,0,0,.609-2.569V128.6H317.1v24.827Z" transform="translate(-256.521 -128.595)" fill="#ec411b"/>
      </g>
      <g id="Group_277" data-name="Group 277" transform="translate(78.633 120.569)">
        <path id="Path_1191" data-name="Path 1191" d="M328.367,153.344v.291c0,.761-.007,1.49-.026,2.145a10.729,10.729,0,0,1-.238,2,7.583,7.583,0,0,1-.344,1.4,9.715,9.715,0,0,1-.6,1.443,6.791,6.791,0,0,1-2.866,3.026,8.692,8.692,0,0,1-7.488.338,7.74,7.74,0,0,1-4.628-6.21,39.224,39.224,0,0,1-.252-4.568v-13.1a39.232,39.232,0,0,1,.252-4.6,7.893,7.893,0,0,1,1.834-4.125,7.6,7.6,0,0,1,2.767-2.085,8.3,8.3,0,0,1,3.39-.708,8.651,8.651,0,0,1,4.045.973,7.242,7.242,0,0,1,2.946,2.926c.073.139.146.285.219.417s.139.278.205.417a8.717,8.717,0,0,1,.689,2.761c.066.927.1,1.907.1,2.92v1.735h-5.31v-3.31a6.712,6.712,0,0,0-.622-2.688,2.761,2.761,0,0,0-4.29-.338,4.306,4.306,0,0,0-.821,2.085c-.033.384-.066.761-.1,1.145s-.06.768-.06,1.165v15.731c0,.371.026.761.06,1.139s.066.781.1,1.165a4.616,4.616,0,0,0,.821,2.079,2.247,2.247,0,0,0,1.973.92,2.162,2.162,0,0,0,2.125-1.053,6.839,6.839,0,0,0,.715-2.311c0-.285.006-.556.026-.821s.026-.516.026-.768v-.205c0-.245,0-.49.02-.728s.027-.5.027-.741V151.8h5.31v1.543Z" transform="translate(-311.921 -128.596)" fill="#1a1818"/>
        <g id="Group_276" data-name="Group 276" transform="translate(20.55)">
          <path id="Path_1192" data-name="Path 1192" d="M315.025,164.678V128.6h14.3v5.085h-9.044v9.792h6.468V148.5h-6.468v11.142h9.044v5.032Z" transform="translate(-315.025 -128.596)" fill="#1a1818"/>
          <path id="Path_1193" data-name="Path 1193" d="M328.892,164.678l-3.363-15.049h-2.483v15.049h-5.257V128.6h7.369c3.4,0,5.72.947,6.938,2.86a14.127,14.127,0,0,1,1.834,7.687,18.883,18.883,0,0,1-.622,5.025,7.686,7.686,0,0,1-2.9,4.019l4.059,16.492Zm-.245-26.4c-.013-.285-.04-.589-.066-.92a7,7,0,0,0-.219-1.159,8.167,8.167,0,0,0-.364-1.053,2.092,2.092,0,0,0-1.371-1.271,7.96,7.96,0,0,0-1.893-.192h-1.688v10.878h1.688a9.154,9.154,0,0,0,1.893-.192A2.109,2.109,0,0,0,328,143.1a8.288,8.288,0,0,0,.364-1.059,6.756,6.756,0,0,0,.219-1.159c.026-.291.053-.589.066-.894s.033-.583.033-.841C328.68,138.858,328.674,138.567,328.647,138.275Z" transform="translate(-299.49 -128.596)" fill="#1a1818"/>
          <path id="Path_1194" data-name="Path 1194" d="M334,164.678l-1.205-7.951h-5.681l-1.158,7.951h-5.217l5.694-36.082h6.885l6.1,36.082ZM329.845,137.3l-2,14.393H332Z" transform="translate(-282.931 -128.596)" fill="#1a1818"/>
          <path id="Path_1195" data-name="Path 1195" d="M341.662,164.678V139.732L336.6,164.678h-2.3l-5.323-24.946v24.946H324.1V128.6h7.044l4.31,22.02L339.5,128.6h7.1v36.082Z" transform="translate(-264.035 -128.596)" fill="#1a1818"/>
          <path id="Path_1196" data-name="Path 1196" d="M328.2,164.678V128.6h5.27v36.082Z" transform="translate(-240.963 -128.596)" fill="#1a1818"/>
        </g>
        <path id="Path_1197" data-name="Path 1197" d="M346.14,153.344v.291c0,.761,0,1.49-.026,2.145a10.7,10.7,0,0,1-.232,2,7.627,7.627,0,0,1-.351,1.4,9.623,9.623,0,0,1-.6,1.443,6.768,6.768,0,0,1-2.873,3.026,8.692,8.692,0,0,1-7.488.338,7.718,7.718,0,0,1-4.621-6.21,37.726,37.726,0,0,1-.271-4.568v-13.1a37.714,37.714,0,0,1,.271-4.6,7.935,7.935,0,0,1,1.827-4.125,7.605,7.605,0,0,1,2.767-2.085,8.35,8.35,0,0,1,3.4-.708,8.663,8.663,0,0,1,4.039.973,7.179,7.179,0,0,1,2.953,2.926c.066.139.139.285.212.417s.132.278.205.417a8.715,8.715,0,0,1,.682,2.761c.073.927.106,1.907.106,2.92v1.735h-5.31v-3.31a6.706,6.706,0,0,0-.629-2.688,2.754,2.754,0,0,0-4.283-.338,4.371,4.371,0,0,0-.821,2.085c-.033.384-.079.761-.106,1.145s-.046.768-.046,1.165v15.731c0,.371.013.761.046,1.139s.073.781.106,1.165a4.691,4.691,0,0,0,.821,2.079,2.227,2.227,0,0,0,1.966.92,2.161,2.161,0,0,0,2.125-1.053,6.546,6.546,0,0,0,.715-2.311c0-.285.007-.556.02-.821a7.456,7.456,0,0,0,.026-.768v-.205a6.613,6.613,0,0,1,.04-.728c.013-.251.02-.5.02-.741V151.8h5.31v1.543Z" transform="translate(-212.099 -128.596)" fill="#1a1818"/>
        <path id="Path_1198" data-name="Path 1198" d="M347.474,162.1a7.672,7.672,0,0,1-6.124,2.582,7.779,7.779,0,0,1-6.389-2.734,10.778,10.778,0,0,1-2.35-6.68l5.051-.847c0,.179.013.358.027.53a4.707,4.707,0,0,1,.033.53,7.483,7.483,0,0,0,.94,2.992,2.9,2.9,0,0,0,2.728,1.37,2.735,2.735,0,0,0,2.463-1.179,4.86,4.86,0,0,0,.761-2.661,5.532,5.532,0,0,0-1.007-3.237,19.183,19.183,0,0,0-2.476-2.86c-.351-.318-.715-.662-1.106-1.033s-.774-.715-1.145-1.079a29.711,29.711,0,0,1-4.005-4.436,10,10,0,0,1-1.794-6.078,8.914,8.914,0,0,1,2.224-6.2,7.674,7.674,0,0,1,6.045-2.476c2.629,0,4.542.814,5.76,2.423a11.916,11.916,0,0,1,2.185,5.992l-5.058.735v-.132a.163.163,0,0,0-.046-.119,8.933,8.933,0,0,0-.708-2.721,2.307,2.307,0,0,0-2.35-1.231,2.5,2.5,0,0,0-2.2,1.053,4.108,4.108,0,0,0-.735,2.417,5.953,5.953,0,0,0,1.072,3.476,18.144,18.144,0,0,0,2.661,2.94c.318.285.649.583,1,.894s.7.629,1.053.947a29.629,29.629,0,0,1,3.946,4.363,10.089,10.089,0,0,1,1.781,6.15A9.246,9.246,0,0,1,347.474,162.1Z" transform="translate(-195.631 -128.596)" fill="#1a1818"/>
      </g>
      <g id="Group_278" data-name="Group 278" transform="translate(62.837)">
        <path id="Path_1199" data-name="Path 1199" d="M326.642,127.492h66.827l17.108-17.108H309.535V211.426l17.107-17.108Z" transform="translate(-309.535 -110.385)" fill="#ec411b"/>
        <path id="Path_1200" data-name="Path 1200" d="M392.731,123.981H327.844L310.75,141.1h99.1v-.013l-17.115-17.1Z" transform="translate(-302.707 -33.964)" fill="#6d6f72"/>
        <path id="Path_1201" data-name="Path 1201" d="M323.133,128.7v64.88l17.114,17.1V111.6Z" transform="translate(-233.109 -103.568)" fill="#aeb0b3"/>
      </g>
      <g id="Group_279" data-name="Group 279" transform="translate(0 163.265)">
        <path id="Path_1202" data-name="Path 1202" d="M300.044,135.066h5.693a4.062,4.062,0,0,1,2.966,1.006,4.412,4.412,0,0,1,0,5.674,3.952,3.952,0,0,1-2.966,1h-3.966v5.323h-1.728Zm1.728,6.263h3.383a3.079,3.079,0,0,0,2.165-.609,2.368,2.368,0,0,0,.675-1.814,2.318,2.318,0,0,0-.675-1.8,3.145,3.145,0,0,0-2.165-.622h-3.383Z" transform="translate(-300.044 -134.927)" fill="#1a1818"/>
        <path id="Path_1203" data-name="Path 1203" d="M302.219,135.782h1.45v1.993h.047a4.237,4.237,0,0,1,1.377-1.695,3.53,3.53,0,0,1,2.085-.5v1.635a4.533,4.533,0,0,0-1.6.252,2.582,2.582,0,0,0-1.053.748,3.2,3.2,0,0,0-.589,1.2,6.571,6.571,0,0,0-.172,1.6v4.191h-1.549Z" transform="translate(-287.819 -132.068)" fill="#1a1818"/>
        <path id="Path_1204" data-name="Path 1204" d="M303.742,138.567a4.411,4.411,0,0,1,.881-1.569,3.936,3.936,0,0,1,1.43-1.04,4.654,4.654,0,0,1,1.966-.384,4.717,4.717,0,0,1,1.966.384,4.1,4.1,0,0,1,1.443,1.04,4.612,4.612,0,0,1,.874,1.569,6.583,6.583,0,0,1,0,3.873,4.489,4.489,0,0,1-.874,1.556,4.3,4.3,0,0,1-1.443,1.053,4.934,4.934,0,0,1-1.966.378,4.867,4.867,0,0,1-1.966-.378,4.123,4.123,0,0,1-1.43-1.053,4.3,4.3,0,0,1-.881-1.556,6.729,6.729,0,0,1,0-3.873Zm1.569,3.463a3.493,3.493,0,0,0,.636,1.112,2.645,2.645,0,0,0,.94.675,2.824,2.824,0,0,0,2.271,0,2.7,2.7,0,0,0,.94-.675,3.479,3.479,0,0,0,.629-1.112,5.121,5.121,0,0,0,0-3.046,3.338,3.338,0,0,0-.629-1.112,2.694,2.694,0,0,0-.94-.7,2.9,2.9,0,0,0-2.271,0,2.636,2.636,0,0,0-.94.7,3.35,3.35,0,0,0-.636,1.112,5.418,5.418,0,0,0,0,3.046Z" transform="translate(-280.861 -132.066)" fill="#1a1818"/>
        <path id="Path_1205" data-name="Path 1205" d="M305.552,135.78H307v1.39h.04a3.423,3.423,0,0,1,3.039-1.6,3.619,3.619,0,0,1,1.6.357,2.062,2.062,0,0,1,.993,1.238A3.246,3.246,0,0,1,313.914,136a3.494,3.494,0,0,1,1.708-.424,4.836,4.836,0,0,1,1.284.159,2.676,2.676,0,0,1,.973.477,2.274,2.274,0,0,1,.642.854,3.129,3.129,0,0,1,.232,1.238v6.905H317.2v-6.17a3.673,3.673,0,0,0-.073-.828,1.648,1.648,0,0,0-.271-.662,1.382,1.382,0,0,0-.556-.444,2.127,2.127,0,0,0-.914-.165,2.468,2.468,0,0,0-1.794.655,2.33,2.33,0,0,0-.669,1.754v5.859h-1.549v-6.17a4.714,4.714,0,0,0-.073-.841,2.11,2.11,0,0,0-.285-.669,1.442,1.442,0,0,0-.55-.43,1.9,1.9,0,0,0-.848-.159,2.251,2.251,0,0,0-1.178.271,2.654,2.654,0,0,0-.761.662,2.219,2.219,0,0,0-.437.788,2.007,2.007,0,0,0-.139.688v5.859h-1.549Z" transform="translate(-269.086 -132.066)" fill="#1a1818"/>
        <path id="Path_1206" data-name="Path 1206" d="M309.894,136.966h-1.543v-1.9h1.543Zm-1.543,1.675h1.543v9.428h-1.543Z" transform="translate(-253.354 -134.927)" fill="#1a1818"/>
        <path id="Path_1207" data-name="Path 1207" d="M310.84,142.242a1.932,1.932,0,0,0,.238.874,1.7,1.7,0,0,0,.576.549,2.689,2.689,0,0,0,.8.3,4.715,4.715,0,0,0,.92.086c.238,0,.5-.02.768-.046a3.449,3.449,0,0,0,.735-.205,1.383,1.383,0,0,0,.549-.417,1.143,1.143,0,0,0,.232-.715,1.039,1.039,0,0,0-.271-.728,1.954,1.954,0,0,0-.7-.457,4.619,4.619,0,0,0-.98-.3c-.377-.073-.748-.159-1.145-.252-.377-.079-.762-.192-1.125-.3a4.482,4.482,0,0,1-.98-.477,2.278,2.278,0,0,1-.7-.762,2.255,2.255,0,0,1-.258-1.132,2.293,2.293,0,0,1,.311-1.225,2.477,2.477,0,0,1,.828-.828,3.4,3.4,0,0,1,1.119-.47,4.8,4.8,0,0,1,1.245-.166,6.878,6.878,0,0,1,1.47.139,3.34,3.34,0,0,1,1.2.47,2.457,2.457,0,0,1,.827.913,3.38,3.38,0,0,1,.364,1.424h-1.543a1.644,1.644,0,0,0-.252-.755,1.666,1.666,0,0,0-.5-.483,2.356,2.356,0,0,0-.682-.265,3.608,3.608,0,0,0-.755-.079,5.343,5.343,0,0,0-.708.053,2.156,2.156,0,0,0-.636.192,1.287,1.287,0,0,0-.477.371.918.918,0,0,0-.179.589.871.871,0,0,0,.285.675,2.837,2.837,0,0,0,.721.424,6.205,6.205,0,0,0,.98.291c.364.08.728.159,1.086.252a10.748,10.748,0,0,1,1.146.3,3.616,3.616,0,0,1,.973.483,2.326,2.326,0,0,1,.7.755,2.223,2.223,0,0,1,.251,1.119,2.642,2.642,0,0,1-.344,1.417,2.757,2.757,0,0,1-.933.92,4.058,4.058,0,0,1-1.3.49,6.454,6.454,0,0,1-1.424.152,6.366,6.366,0,0,1-1.5-.172,3.827,3.827,0,0,1-1.251-.556,2.867,2.867,0,0,1-.867-.973,3.475,3.475,0,0,1-.364-1.483Z" transform="translate(-248.037 -132.066)" fill="#1a1818"/>
        <path id="Path_1208" data-name="Path 1208" d="M319.667,142.215a3.935,3.935,0,0,1-1.371,2.4,4.2,4.2,0,0,1-2.655.814,4.759,4.759,0,0,1-1.953-.371,4.136,4.136,0,0,1-1.4-1.033,4.28,4.28,0,0,1-.84-1.576,7.105,7.105,0,0,1-.318-1.973,5.685,5.685,0,0,1,.324-1.96,4.621,4.621,0,0,1,.92-1.556,4.179,4.179,0,0,1,1.4-1.026,4.5,4.5,0,0,1,1.781-.357,3.9,3.9,0,0,1,2.079.51,4.347,4.347,0,0,1,1.337,1.331,5.356,5.356,0,0,1,.689,1.748,7.479,7.479,0,0,1,.152,1.807h-7.038a3.889,3.889,0,0,0,.139,1.159,2.4,2.4,0,0,0,.536.987,2.539,2.539,0,0,0,.92.682,3.173,3.173,0,0,0,1.324.258,2.723,2.723,0,0,0,1.616-.457,2.317,2.317,0,0,0,.841-1.384Zm-1.5-2.622a3.017,3.017,0,0,0-.238-1.033,2.8,2.8,0,0,0-.569-.854,2.319,2.319,0,0,0-.848-.55,2.52,2.52,0,0,0-1.053-.218,2.578,2.578,0,0,0-1.079.218,2.169,2.169,0,0,0-.834.563,2.9,2.9,0,0,0-.543.847,3.139,3.139,0,0,0-.232,1.026Z" transform="translate(-237.757 -132.066)" fill="#1a1818"/>
        <path id="Path_1209" data-name="Path 1209" d="M314.544,138.567a4.717,4.717,0,0,1,.867-1.569,4.138,4.138,0,0,1,1.437-1.04,5.245,5.245,0,0,1,3.94,0,3.961,3.961,0,0,1,1.436,1.04,4.742,4.742,0,0,1,.881,1.569,6.729,6.729,0,0,1,0,3.873,4.614,4.614,0,0,1-.881,1.556,4.149,4.149,0,0,1-1.436,1.053,5.328,5.328,0,0,1-3.94,0A4.345,4.345,0,0,1,315.411,144a4.59,4.59,0,0,1-.867-1.556,6.442,6.442,0,0,1,0-3.873Zm1.576,3.463a3.374,3.374,0,0,0,.629,1.112,2.652,2.652,0,0,0,.94.675,2.809,2.809,0,0,0,2.264,0,2.649,2.649,0,0,0,.94-.675,3.363,3.363,0,0,0,.629-1.112,5.258,5.258,0,0,0,0-3.046,3.232,3.232,0,0,0-.629-1.112,2.641,2.641,0,0,0-.94-.7,2.883,2.883,0,0,0-2.264,0,2.644,2.644,0,0,0-.94.7,3.241,3.241,0,0,0-.629,1.112,5.123,5.123,0,0,0,0,3.046Z" transform="translate(-220.22 -132.066)" fill="#1a1818"/>
        <path id="Path_1210" data-name="Path 1210" d="M317.775,140.143H316.2v-1.384h1.576v-1.39a2.215,2.215,0,0,1,.675-1.741,2.843,2.843,0,0,1,1.94-.583,3.673,3.673,0,0,1,.5.033,2.439,2.439,0,0,1,.49.106v1.351a1.7,1.7,0,0,0-.43-.106c-.152-.013-.311-.02-.437-.02a1.512,1.512,0,0,0-.874.212.958.958,0,0,0-.3.841v1.3h1.814v1.384h-1.814v8.044h-1.562Z" transform="translate(-209.243 -135.045)" fill="#1a1818"/>
        <path id="Path_1211" data-name="Path 1211" d="M318.839,135.066h5.7a4.062,4.062,0,0,1,2.966,1.006,4.434,4.434,0,0,1,0,5.674,3.952,3.952,0,0,1-2.966,1h-3.966v5.323h-1.735Zm1.735,6.263h3.383a3.042,3.042,0,0,0,2.152-.609,2.328,2.328,0,0,0,.688-1.814,2.28,2.28,0,0,0-.688-1.8,3.107,3.107,0,0,0-2.152-.622h-3.383Z" transform="translate(-194.405 -134.927)" fill="#1a1818"/>
        <path id="Path_1212" data-name="Path 1212" d="M329.48,142.215a3.9,3.9,0,0,1-1.364,2.4,4.234,4.234,0,0,1-2.661.814,4.726,4.726,0,0,1-1.946-.371,4.009,4.009,0,0,1-1.4-1.033,4.084,4.084,0,0,1-.834-1.576,7.36,7.36,0,0,1-.324-1.973,5.685,5.685,0,0,1,.324-1.96,4.621,4.621,0,0,1,.92-1.556,4.166,4.166,0,0,1,1.41-1.026,4.431,4.431,0,0,1,1.761-.357,3.964,3.964,0,0,1,2.092.51,4.164,4.164,0,0,1,1.324,1.331,4.832,4.832,0,0,1,.689,1.748,7.511,7.511,0,0,1,.165,1.807h-7.058a3.7,3.7,0,0,0,.152,1.159,2.544,2.544,0,0,0,.53.987,2.684,2.684,0,0,0,.927.682,3.161,3.161,0,0,0,1.331.258,2.716,2.716,0,0,0,1.609-.457,2.242,2.242,0,0,0,.827-1.384Zm-1.5-2.622a3.017,3.017,0,0,0-.238-1.033,3.189,3.189,0,0,0-.563-.854,2.4,2.4,0,0,0-.854-.55,2.564,2.564,0,0,0-1.053-.218,2.632,2.632,0,0,0-1.086.218,2.362,2.362,0,0,0-.828.563,2.92,2.92,0,0,0-.549.847,3.534,3.534,0,0,0-.238,1.026Z" transform="translate(-182.562 -132.066)" fill="#1a1818"/>
        <path id="Path_1213" data-name="Path 1213" d="M322.932,135.782h1.443v1.993h.033a4.329,4.329,0,0,1,1.4-1.695,3.487,3.487,0,0,1,2.072-.5v1.635a4.494,4.494,0,0,0-1.589.252,2.625,2.625,0,0,0-1.053.748,3.1,3.1,0,0,0-.583,1.2,6.561,6.561,0,0,0-.179,1.6v4.191h-1.542Z" transform="translate(-171.4 -132.068)" fill="#1a1818"/>
        <path id="Path_1214" data-name="Path 1214" d="M325.74,140.143h-1.589v-1.384h1.589v-1.39a2.23,2.23,0,0,1,.662-1.741,2.865,2.865,0,0,1,1.94-.583,3.554,3.554,0,0,1,.5.033,2.515,2.515,0,0,1,.5.106v1.351a1.688,1.688,0,0,0-.437-.106c-.152-.013-.3-.02-.424-.02a1.491,1.491,0,0,0-.88.212.957.957,0,0,0-.3.841v1.3h1.814v1.384H327.3v8.044H325.74Z" transform="translate(-164.549 -135.045)" fill="#1a1818"/>
        <path id="Path_1215" data-name="Path 1215" d="M334.013,142.215a3.936,3.936,0,0,1-1.371,2.4,4.2,4.2,0,0,1-2.655.814,4.793,4.793,0,0,1-1.96-.371,4.135,4.135,0,0,1-1.4-1.033,4.374,4.374,0,0,1-.834-1.576,7.649,7.649,0,0,1-.318-1.973,5.85,5.85,0,0,1,.325-1.96,4.617,4.617,0,0,1,.92-1.556,4.247,4.247,0,0,1,1.4-1.026,4.527,4.527,0,0,1,1.781-.357,3.956,3.956,0,0,1,2.085.51,4.232,4.232,0,0,1,1.324,1.331,5.389,5.389,0,0,1,.7,1.748,7.8,7.8,0,0,1,.146,1.807h-7.037a3.887,3.887,0,0,0,.139,1.159,2.82,2.82,0,0,0,.523.987,2.707,2.707,0,0,0,.933.682,3.225,3.225,0,0,0,1.331.258,2.681,2.681,0,0,0,1.6-.457,2.193,2.193,0,0,0,.834-1.384Zm-1.5-2.622a3.561,3.561,0,0,0-.245-1.033,2.775,2.775,0,0,0-.563-.854,2.4,2.4,0,0,0-.854-.55,2.543,2.543,0,0,0-1.053-.218,2.578,2.578,0,0,0-1.079.218,2.142,2.142,0,0,0-.828.563,2.665,2.665,0,0,0-.549.847,3.133,3.133,0,0,0-.232,1.026Z" transform="translate(-157.124 -132.066)" fill="#1a1818"/>
        <path id="Path_1216" data-name="Path 1216" d="M334.293,138.819a2.192,2.192,0,0,0-2.337-1.88,2.962,2.962,0,0,0-1.4.311,2.431,2.431,0,0,0-.9.814,3.237,3.237,0,0,0-.483,1.178,6.748,6.748,0,0,0-.139,1.37,5.086,5.086,0,0,0,.152,1.278,3.165,3.165,0,0,0,.477,1.1,2.348,2.348,0,0,0,2.119,1.066,2.523,2.523,0,0,0,1.781-.6,2.8,2.8,0,0,0,.8-1.688h1.583a4.4,4.4,0,0,1-1.311,2.695,4.01,4.01,0,0,1-2.834.967,4.85,4.85,0,0,1-1.907-.358,3.723,3.723,0,0,1-1.383-1,4.277,4.277,0,0,1-.841-1.516,6.025,6.025,0,0,1-.285-1.94,6.347,6.347,0,0,1,.285-1.973,4.393,4.393,0,0,1,.828-1.6,3.868,3.868,0,0,1,1.39-1.073,4.483,4.483,0,0,1,1.96-.391,5.788,5.788,0,0,1,1.509.185,3.923,3.923,0,0,1,1.258.589,3.048,3.048,0,0,1,.881,1.02,3.772,3.772,0,0,1,.43,1.45Z" transform="translate(-146.355 -132.066)" fill="#1a1818"/>
        <path id="Path_1217" data-name="Path 1217" d="M332.388,137.989h1.874v1.384h-1.874v5.833a1.632,1.632,0,0,0,.046.444.488.488,0,0,0,.166.258.885.885,0,0,0,.364.106,4.675,4.675,0,0,0,.589.027h.708v1.377h-1.185a6.424,6.424,0,0,1-1.033-.086,1.5,1.5,0,0,1-.689-.3,1.271,1.271,0,0,1-.391-.616,3.549,3.549,0,0,1-.126-1.053v-5.992H329.23v-1.384h1.609v-2.807h1.549Z" transform="translate(-136.001 -134.275)" fill="#1a1818"/>
        <path id="Path_1218" data-name="Path 1218" d="M332.251,136.966H330.7v-1.9h1.549Zm-1.549,1.675h1.549v9.428H330.7Z" transform="translate(-127.728 -134.927)" fill="#1a1818"/>
        <path id="Path_1219" data-name="Path 1219" d="M331.953,138.567a4.412,4.412,0,0,1,.881-1.569,3.856,3.856,0,0,1,1.423-1.04,4.685,4.685,0,0,1,1.973-.384,4.738,4.738,0,0,1,1.966.384A4.1,4.1,0,0,1,339.64,137a4.714,4.714,0,0,1,.867,1.569,6.581,6.581,0,0,1,0,3.873A4.587,4.587,0,0,1,339.64,144a4.3,4.3,0,0,1-1.444,1.053,4.957,4.957,0,0,1-1.966.378,4.9,4.9,0,0,1-1.973-.378A4.036,4.036,0,0,1,332.834,144a4.3,4.3,0,0,1-.881-1.556,6.585,6.585,0,0,1,0-3.873Zm1.562,3.463a3.494,3.494,0,0,0,.636,1.112,2.672,2.672,0,0,0,.947.675,2.809,2.809,0,0,0,2.264,0,2.647,2.647,0,0,0,.94-.675,3.262,3.262,0,0,0,.629-1.112,5.263,5.263,0,0,0,0-3.046,3.138,3.138,0,0,0-.629-1.112,2.638,2.638,0,0,0-.94-.7,2.883,2.883,0,0,0-2.264,0,2.663,2.663,0,0,0-.947.7,3.351,3.351,0,0,0-.636,1.112,5.421,5.421,0,0,0,0,3.046Z" transform="translate(-122.333 -132.066)" fill="#1a1818"/>
        <path id="Path_1220" data-name="Path 1220" d="M333.757,135.78h1.456v1.5h.033A3.086,3.086,0,0,1,336.518,136a3.613,3.613,0,0,1,1.794-.424,4.1,4.1,0,0,1,1.549.258,2.588,2.588,0,0,1,1,.708,2.746,2.746,0,0,1,.53,1.079,5.373,5.373,0,0,1,.159,1.4v6.19H340v-6.382a1.822,1.822,0,0,0-.516-1.377,1.881,1.881,0,0,0-1.39-.51,3.032,3.032,0,0,0-1.231.225,2.2,2.2,0,0,0-.861.609,2.575,2.575,0,0,0-.516.947,3.441,3.441,0,0,0-.185,1.165v5.323h-1.543Z" transform="translate(-110.557 -132.066)" fill="#1a1818"/>
      </g>
    </g>
  </g>
</svg>
