<svg id="afml" xmlns="http://www.w3.org/2000/svg" width="324.938" height="156.839" viewBox="0 0 324.938 156.839">
  <g id="Group_159" data-name="Group 159" transform="translate(88.914)">
    <g id="Group_129" data-name="Group 129" transform="translate(0 51.313)">
      <g id="Group_128" data-name="Group 128">
        <path id="Path_594" data-name="Path 594" d="M306.724,173.318l-12.089-12.169a46,46,0,1,1-92,0L190.857,172.98l-13.334-11.8a71.118,71.118,0,1,0,142.237-.033Z" transform="translate(-177.523 -161.149)" fill="#0060af"/>
      </g>
    </g>
    <g id="Group_153" data-name="Group 153" transform="translate(24.895)">
      <g id="Group_141" data-name="Group 141" transform="translate(19.063 5.492)">
        <g id="Group_130" data-name="Group 130" transform="translate(21.856)">
          <path id="Path_595" data-name="Path 595" d="M193.107,172.11a4.177,4.177,0,0,0,3.794-1.966c1.059-1.629,2.7-4.946,1.423-8.633-1.265-3.668-4.615-4.813-5.316-7.283,0,0-6.058,5.072-5.508,9.163.576,4.111,2.337,4.727,3.549,6.753C192.193,172.282,193.107,172.11,193.107,172.11Z" transform="translate(-187.464 -154.228)" fill="#a0741f"/>
        </g>
        <g id="Group_131" data-name="Group 131" transform="translate(9.839 2.628)">
          <path id="Path_596" data-name="Path 596" d="M186.379,154.625a14.663,14.663,0,0,0,4.76,2.264c3.125,1.437,4.065,3.052,4.27,4.469a9.53,9.53,0,0,0,1.318,3.092s.371.927-1.582,1.231C193.219,165.959,182.837,164.688,186.379,154.625Z" transform="translate(-185.649 -154.625)" fill="#a0741f"/>
        </g>
        <g id="Group_132" data-name="Group 132" transform="translate(35.616 3.284)">
          <path id="Path_597" data-name="Path 597" d="M199.909,154.724A14.82,14.82,0,0,1,195.136,157c-3.125,1.424-4.045,3.032-4.257,4.449a9.717,9.717,0,0,1-1.3,3.125s-.391.887,1.549,1.2C193.077,166.058,203.458,164.787,199.909,154.724Z" transform="translate(-189.542 -154.724)" fill="#a0741f"/>
        </g>
        <g id="Group_133" data-name="Group 133" transform="translate(27.953 11.095)">
          <path id="Path_598" data-name="Path 598" d="M190.738,170.516a3.478,3.478,0,0,0,.04-.742c-.02-.265-.02-.53-.02-.794a6.533,6.533,0,0,1,1.6-4.767,17.261,17.261,0,0,1,10.2-4.164c4.542-.424,7.15-2.3,7.713-3.88.576-1.615,1.212,4.37-1.827,11.52-3.032,7.117-13.168,9.812-18.412,8.66-2.6-.834-1.337-2.867-1.337-2.867.318-.5.708-.98,1.053-1.437.265-.357.523-.715.781-1.059A2.209,2.209,0,0,0,190.738,170.516Z" transform="translate(-188.385 -155.904)" fill="#a0741f"/>
        </g>
        <g id="Group_134" data-name="Group 134" transform="translate(27.613 27.352)">
          <path id="Path_599" data-name="Path 599" d="M190.94,173.6a2.152,2.152,0,0,0,.086-.781,4.024,4.024,0,0,1,.007-.847,6.842,6.842,0,0,1,1.827-5.051,18.439,18.439,0,0,1,11.023-4.27c4.886-.391,7.713-2.337,8.362-4.025s1.178,4.714-2.264,12.3c-3.423,7.561-14.34,10.242-19.948,8.9-2.748-.914-1.337-3.072-1.337-3.072.338-.523.781-1.033,1.172-1.529.265-.371.576-.741.841-1.119A1.366,1.366,0,0,0,190.94,173.6Z" transform="translate(-188.333 -158.359)" fill="#a0741f"/>
        </g>
        <g id="Group_135" data-name="Group 135" transform="translate(27.447 45.821)">
          <path id="Path_600" data-name="Path 600" d="M191.081,175.781a2.175,2.175,0,0,0,.106-.774c0-.285.007-.569.026-.854a7.116,7.116,0,0,1,2.039-5.018,18.7,18.7,0,0,1,11.169-3.946c4.906-.225,7.812-2.112,8.514-3.767.715-1.688.993,4.74-2.728,12.222-3.714,7.455-14.718,9.838-20.259,8.342-2.728-1.006-1.231-3.1-1.231-3.1.357-.53.821-1.006,1.231-1.5.291-.377.589-.735.874-1.1A1.259,1.259,0,0,0,191.081,175.781Z" transform="translate(-188.308 -161.149)" fill="#a0741f"/>
        </g>
        <g id="Group_136" data-name="Group 136" transform="translate(28.048 63.088)">
          <path id="Path_601" data-name="Path 601" d="M191.332,179a2.813,2.813,0,0,0,.086-.821c0-.291.033-.6.053-.9.132-1.807.576-3.913,2.145-5.224a19.534,19.534,0,0,1,11.692-4.091c5.124-.238,8.17-2.178,8.911-3.933s1.02,4.979-2.893,12.784C207.4,184.6,195.9,187.041,190.1,185.465c-2.827-1.059-1.278-3.257-1.278-3.257.391-.55.861-1.04,1.3-1.556q.487-.586.933-1.132A2.323,2.323,0,0,0,191.332,179Z" transform="translate(-188.399 -163.757)" fill="#a0741f"/>
        </g>
        <g id="Group_137" data-name="Group 137" transform="translate(3.994 11.095)">
          <path id="Path_602" data-name="Path 602" d="M204.788,170.516a3.083,3.083,0,0,1-.046-.742q.02-.4.02-.794a6.505,6.505,0,0,0-1.6-4.767,17.225,17.225,0,0,0-10.2-4.164c-4.548-.424-7.15-2.3-7.72-3.88-.576-1.615-1.2,4.37,1.847,11.52,3.026,7.117,13.162,9.812,18.412,8.66,2.6-.834,1.331-2.867,1.331-2.867a16.492,16.492,0,0,0-1.066-1.437c-.245-.357-.51-.715-.768-1.059A4.01,4.01,0,0,1,204.788,170.516Z" transform="translate(-184.766 -155.904)" fill="#a0741f"/>
        </g>
        <g id="Group_138" data-name="Group 138" transform="translate(2.313 27.352)">
          <path id="Path_603" data-name="Path 603" d="M206.288,173.6a2.706,2.706,0,0,1-.073-.781v-.847c-.053-1.741-.391-3.754-1.841-5.051a18.4,18.4,0,0,0-11.01-4.27c-4.893-.391-7.72-2.337-8.388-4.025-.636-1.675-1.159,4.714,2.284,12.3,3.436,7.561,14.347,10.242,19.935,8.9,2.754-.914,1.35-3.072,1.35-3.072-.338-.523-.775-1.033-1.172-1.529-.271-.371-.576-.741-.841-1.119A1.648,1.648,0,0,1,206.288,173.6Z" transform="translate(-184.512 -158.359)" fill="#a0741f"/>
        </g>
        <g id="Group_139" data-name="Group 139" transform="translate(1.811 45.821)">
          <path id="Path_604" data-name="Path 604" d="M206.721,175.781a2.515,2.515,0,0,1-.106-.774c0-.285-.02-.569-.026-.854a7.13,7.13,0,0,0-2.026-5.018,18.825,18.825,0,0,0-11.182-3.946c-4.906-.225-7.8-2.112-8.508-3.767-.708-1.688-1,4.74,2.714,12.222,3.728,7.455,14.724,9.838,20.279,8.342,2.721-1.006,1.231-3.1,1.231-3.1-.377-.53-.828-1.006-1.231-1.5-.291-.377-.6-.735-.887-1.1A1.453,1.453,0,0,1,206.721,175.781Z" transform="translate(-184.436 -161.149)" fill="#a0741f"/>
        </g>
        <g id="Group_140" data-name="Group 140" transform="translate(0 63.088)">
          <path id="Path_605" data-name="Path 605" d="M207.5,179a2.816,2.816,0,0,1-.093-.821c0-.291-.033-.6-.04-.9-.152-1.807-.589-3.913-2.138-5.224a19.593,19.593,0,0,0-11.705-4.091c-5.118-.238-8.17-2.178-8.911-3.933s-1.026,4.979,2.893,12.784c3.926,7.779,15.439,10.222,21.212,8.646,2.84-1.059,1.284-3.257,1.284-3.257-.391-.55-.867-1.04-1.3-1.556-.318-.391-.629-.768-.92-1.132A1.614,1.614,0,0,1,207.5,179Z" transform="translate(-184.163 -163.757)" fill="#a0741f"/>
        </g>
      </g>
      <g id="Group_152" data-name="Group 152">
        <g id="Group_146" data-name="Group 146" transform="translate(68.336)">
          <g id="Group_142" data-name="Group 142">
            <path id="Path_606" data-name="Path 606" d="M194.476,153.4l-2.871,17.864,1.07.155,2.871-17.857-1.07-.162-2.871,17.864,1.07.155,2.871-17.857Z" transform="translate(-191.605 -153.398)" fill="#a0741f"/>
          </g>
          <g id="Group_143" data-name="Group 143" transform="translate(1.674 3.298)">
            <path id="Path_607" data-name="Path 607" d="M200.751,153.9l-8.894,30.827,1.028.324L201.78,154.2l-1.028-.3-8.894,30.827,1.028.324L201.78,154.2Z" transform="translate(-191.858 -153.896)" fill="#a0741f"/>
          </g>
          <g id="Group_144" data-name="Group 144" transform="translate(2.179 6.893)">
            <path id="Path_608" data-name="Path 608" d="M206.559,154.44l-14.625,45.678,1.028.336,14.615-45.691-1.018-.323-14.625,45.678,1.028.336,14.615-45.691Z" transform="translate(-191.934 -154.44)" fill="#a0741f"/>
          </g>
          <g id="Group_145" data-name="Group 145" transform="translate(3.96 11.47)">
            <path id="Path_609" data-name="Path 609" d="M211.328,155.131,192.2,213.578l1.035.336,19.108-58.448-1.018-.336L192.2,213.578l1.035.336,19.108-58.448Z" transform="translate(-192.203 -155.131)" fill="#a0741f"/>
          </g>
        </g>
        <g id="Group_151" data-name="Group 151">
          <g id="Group_147" data-name="Group 147" transform="translate(0 11.47)">
            <path id="Path_610" data-name="Path 610" d="M181.283,155.467l19.1,58.448,1.054-.336L182.3,155.131l-1.018.336,19.1,58.448,1.054-.336L182.3,155.131Z" transform="translate(-181.283 -155.131)" fill="#a0741f"/>
          </g>
          <g id="Group_148" data-name="Group 148" transform="translate(6.272 6.893)">
            <path id="Path_611" data-name="Path 611" d="M182.231,154.763l14.644,45.691,1.018-.336L183.249,154.44l-1.018.323,14.644,45.691,1.018-.336L183.249,154.44Z" transform="translate(-182.231 -154.44)" fill="#a0741f"/>
          </g>
          <g id="Group_149" data-name="Group 149" transform="translate(12.517 3.298)">
            <path id="Path_612" data-name="Path 612" d="M183.174,154.2l8.878,30.847,1.044-.3L184.209,153.9l-1.035.3,8.878,30.847,1.044-.3L184.209,153.9Z" transform="translate(-183.174 -153.896)" fill="#a0741f"/>
          </g>
          <g id="Group_150" data-name="Group 150" transform="translate(20.162)">
            <path id="Path_613" data-name="Path 613" d="M184.329,153.561l2.887,17.857,1.053-.155L185.4,153.4l-1.07.162,2.887,17.857,1.053-.155L185.4,153.4Z" transform="translate(-184.329 -153.398)" fill="#a0741f"/>
          </g>
        </g>
      </g>
    </g>
    <g id="Group_158" data-name="Group 158" transform="translate(12.314 80.596)">
      <g id="Group_154" data-name="Group 154">
        <path id="Path_614" data-name="Path 614" d="M198.166,165.572l1.734,2.079,1.728,2.072-8.7,17.5-1.569-1.913-1.582-1.894,1.814-3.476-5.416-6.521-3.721,1.2-1.529-1.841-1.543-1.86Zm-8.8,6.892,3.8,4.575,3.648-6.892-.013-.013Z" transform="translate(-179.383 -165.572)" fill="#fff"/>
      </g>
      <g id="Group_155" data-name="Group 155" transform="translate(31.084 15.419)">
        <path id="Path_615" data-name="Path 615" d="M184.078,184.876,189.6,167.9l15.082,4.913L204.2,174.3l-.5,1.509-10.646-3.476-1.278,3.9,9.289,3.006-.463,1.476-.483,1.47-9.282-3.026-2.337,7.177-2.2-.735Z" transform="translate(-184.078 -167.901)" fill="#fff"/>
      </g>
      <g id="Group_156" data-name="Group 156" transform="translate(62.287 15.082)">
        <path id="Path_616" data-name="Path 616" d="M197.934,189.824l-2.092.6-2.092.6-4.959-17.154,3.277-.96,3.271-.953,7.859,12.473h.007l-.08-14.724,3.231-.94,3.244-.92,4.952,17.167-2.092.6-2.1.6L206.2,171.783H206.2l.159,15.611-2.211.622-2.2.636-8.3-13.572h0Z" transform="translate(-188.791 -167.85)" fill="#fff"/>
      </g>
      <g id="Group_157" data-name="Group 157" transform="translate(92.225 4.297)">
        <path id="Path_617" data-name="Path 617" d="M206.951,181.3l-13.638-11.533,1.51-1.774,1.5-1.768,11.215,9.487,7.177-8.461,1.2,1.026,1.212,1.013Z" transform="translate(-193.313 -166.221)" fill="#fff"/>
      </g>
    </g>
  </g>
  <g id="Group_161" data-name="Group 161" transform="translate(0 134.852)">
    <g id="Group_160" data-name="Group 160">
      <path id="Path_618" data-name="Path 618" d="M170.614,189.655l-1.536,5.475h-4.985l6.521-21.312h6.316l6.614,21.312h-5.2l-1.642-5.475Zm5.4-3.595-1.331-4.522c-.384-1.271-.761-2.847-1.066-4.125h-.073c-.318,1.278-.636,2.887-.973,4.125L171.3,186.06Z" transform="translate(-164.093 -173.48)" fill="#0060af"/>
      <path id="Path_619" data-name="Path 619" d="M167.508,173.818h4.76v9.421h.1c.47-.814.973-1.589,1.463-2.33l4.826-7.091h5.919l-7.064,9.077,7.448,12.235h-5.641l-5.224-9.2-1.827,2.251v6.945h-4.76Z" transform="translate(-144.899 -173.48)" fill="#0060af"/>
      <path id="Path_620" data-name="Path 620" d="M175.331,173.818V195.13h-4.846V173.818Z" transform="translate(-128.166 -173.48)" fill="#0060af"/>
      <path id="Path_621" data-name="Path 621" d="M177.858,173.818h4.82v13.466c0,6.091-2.92,8.183-7.594,8.183a12.622,12.622,0,0,1-3.509-.49l.536-3.9a7.8,7.8,0,0,0,2.469.364c2,0,3.277-.9,3.277-4.211Z" transform="translate(-122.04 -173.48)" fill="#0060af"/>
      <path id="Path_622" data-name="Path 622" d="M174.915,173.818h13.043v3.952h-8.2v4.866h7.647v3.919h-7.647v8.574h-4.846Z" transform="translate(-103.267 -173.48)" fill="#0060af"/>
      <path id="Path_623" data-name="Path 623" d="M177.48,173.818h4.84v17.26h8.468v4.052H177.48Z" transform="translate(-88.85 -173.48)" fill="#0060af"/>
      <path id="Path_624" data-name="Path 624" d="M200.123,184.545c0,6.991-4.231,11.209-10.467,11.209-6.316,0-10.017-4.767-10.017-10.845,0-6.376,4.072-11.142,10.374-11.142C196.548,173.767,200.123,178.66,200.123,184.545Zm-15.393.271c0,4.184,1.946,7.11,5.177,7.11,3.264,0,5.124-3.079,5.124-7.23,0-3.827-1.834-7.117-5.151-7.117C186.624,177.581,184.73,180.7,184.73,184.817Z" transform="translate(-76.715 -173.767)" fill="#0060af"/>
      <path id="Path_625" data-name="Path 625" d="M188.092,173.818v12.261c0,3.688,1.39,5.548,3.86,5.548,2.522,0,3.913-1.774,3.913-5.548V173.818h4.807v11.957c0,6.574-3.3,9.693-8.878,9.693-5.369,0-8.541-2.953-8.541-9.765V173.818Z" transform="translate(-56.408 -173.48)" fill="#0060af"/>
      <path id="Path_626" data-name="Path 626" d="M186.561,174.231a43.412,43.412,0,0,1,6.415-.437c3.165,0,5.383.477,6.892,1.662a5.454,5.454,0,0,1,1.973,4.489,5.627,5.627,0,0,1-3.767,5.224v.106c1.476.6,2.3,2.019,2.84,3.986.669,2.39,1.331,5.191,1.741,6H197.73a26.046,26.046,0,0,1-1.5-4.959c-.563-2.655-1.47-3.383-3.443-3.416h-1.45v8.375h-4.773Zm4.773,9.163h1.9c2.4,0,3.827-1.185,3.827-3.065,0-1.947-1.337-2.92-3.549-2.959a11.631,11.631,0,0,0-2.178.159Z" transform="translate(-37.81 -173.615)" fill="#0060af"/>
      <path id="Path_627" data-name="Path 627" d="M208.871,186.986c-.086-2.575-.185-5.694-.185-8.779H208.6c-.675,2.734-1.543,5.767-2.377,8.256l-2.575,8.309h-3.767l-2.284-8.236c-.7-2.5-1.43-5.548-1.933-8.329h-.06c-.119,2.873-.232,6.17-.384,8.845l-.377,8.077H190.38l1.364-21.312h6.409l2.1,7.124c.655,2.463,1.318,5.118,1.807,7.62h.1c.589-2.483,1.311-5.3,2.006-7.653l2.284-7.091h6.283l1.185,21.312H209.2Z" transform="translate(-16.345 -173.48)" fill="#0060af"/>
      <path id="Path_628" data-name="Path 628" d="M199.379,173.818V195.13h-4.84V173.818Z" transform="translate(7.031 -173.48)" fill="#0060af"/>
      <path id="Path_629" data-name="Path 629" d="M195.947,173.818h4.846v17.26h8.474v4.052H195.947Z" transform="translate(14.945 -173.48)" fill="#0060af"/>
      <path id="Path_630" data-name="Path 630" d="M198.435,173.818h4.833v17.26h8.488v4.052H198.435Z" transform="translate(28.929 -173.48)" fill="#0060af"/>
      <path id="Path_631" data-name="Path 631" d="M201.772,190.458a12.336,12.336,0,0,0,5.349,1.324c2.2,0,3.383-.914,3.383-2.317,0-1.324-1.026-2.092-3.575-3.006-3.535-1.231-5.859-3.178-5.859-6.276,0-3.628,3.039-6.415,8.071-6.415a13.089,13.089,0,0,1,5.442,1.066l-1.079,3.88a10.463,10.463,0,0,0-4.469-1.013c-2.072,0-3.079.96-3.079,2.059,0,1.364,1.192,1.966,3.946,3.012,3.76,1.377,5.528,3.35,5.528,6.356,0,3.562-2.741,6.614-8.6,6.614a14.1,14.1,0,0,1-6.032-1.291Z" transform="translate(42.216 -173.767)" fill="#0060af"/>
      <path id="Path_632" data-name="Path 632" d="M204.56,173.818h4.833v17.26h8.481v4.052H204.56Z" transform="translate(63.355 -173.48)" fill="#0060af"/>
      <path id="Path_633" data-name="Path 633" d="M212.039,177.857h-5.733v-4.039H222.7v4.039h-5.819V195.13h-4.84Z" transform="translate(73.169 -173.48)" fill="#0060af"/>
      <path id="Path_634" data-name="Path 634" d="M209.214,174.231a44.246,44.246,0,0,1,6.528-.437c4.059,0,6.66.722,8.726,2.271,2.211,1.642,3.615,4.264,3.615,8.044,0,4.072-1.5,6.892-3.555,8.62-2.238,1.887-5.647,2.747-9.838,2.747a40.966,40.966,0,0,1-5.475-.3Zm4.846,17.4a9.211,9.211,0,0,0,1.682.093c4.356.04,7.2-2.37,7.2-7.475.027-4.416-2.556-6.753-6.707-6.753a8.879,8.879,0,0,0-2.178.2Z" transform="translate(89.513 -173.615)" fill="#0060af"/>
      <path id="Path_635" data-name="Path 635" d="M212.32,179.128a2.766,2.766,0,0,1,2.847-2.92,2.915,2.915,0,0,1-.033,5.826A2.755,2.755,0,0,1,212.32,179.128Z" transform="translate(106.971 -160.047)" fill="#0060af"/>
    </g>
  </g>
</svg>
