<svg id="atml" xmlns="http://www.w3.org/2000/svg" width="324.952" height="171.85" viewBox="0 0 324.952 171.85">
  <g id="Group_250" data-name="Group 250" transform="translate(0 150.989)">
    <g id="Group_249" data-name="Group 249">
      <g id="Group_248" data-name="Group 248">
        <path id="Path_1010" data-name="Path 1010" d="M364.17,148.131l-1.45,5.177h-4.74l6.19-20.186h5.985l6.27,20.186h-4.906l-1.576-5.177Zm5.118-3.416-1.258-4.29c-.357-1.2-.721-2.7-1.013-3.893h-.066c-.291,1.192-.6,2.721-.933,3.893l-1.179,4.29Z" transform="translate(-357.98 -132.784)" fill="#00973d"/>
        <path id="Path_1011" data-name="Path 1011" d="M361.218,133.122h4.522v8.918h.08c.45-.774.933-1.49,1.384-2.211l4.575-6.707h5.614l-6.693,8.593,7.058,11.593H372.42l-4.952-8.726-1.728,2.139v6.587h-4.522Z" transform="translate(-339.781 -132.784)" fill="#00973d"/>
        <path id="Path_1012" data-name="Path 1012" d="M368.621,133.122v20.186H364.04V133.122Z" transform="translate(-323.919 -132.784)" fill="#00973d"/>
        <path id="Path_1013" data-name="Path 1013" d="M371.049,133.122h4.535V145.88c0,5.753-2.741,7.766-7.183,7.766a12.332,12.332,0,0,1-3.33-.49l.516-3.681a7.173,7.173,0,0,0,2.33.364c1.933,0,3.132-.874,3.132-4.025Z" transform="translate(-318.125 -132.784)" fill="#00973d"/>
        <path id="Path_1014" data-name="Path 1014" d="M373.261,136.955h-5.429v-3.833H383.35v3.833h-5.515v16.353h-4.575Z" transform="translate(-302.606 -132.784)" fill="#00973d"/>
        <path id="Path_1015" data-name="Path 1015" d="M382.6,144.768h-7.429v4.793h8.3v3.747h-12.89V133.122h12.467v3.734h-7.879v4.2H382.6Z" transform="translate(-287.121 -132.784)" fill="#00973d"/>
        <path id="Path_1016" data-name="Path 1016" d="M384.97,153.308l-1.834-3.655c-.748-1.4-1.225-2.45-1.8-3.621h-.046c-.43,1.172-.947,2.218-1.576,3.621l-1.675,3.655h-5.217l5.839-10.222-5.628-9.964h5.244l1.787,3.674c.589,1.231,1.039,2.225,1.516,3.363h.06c.49-1.291.854-2.185,1.377-3.363l1.695-3.674h5.237l-5.687,9.845,5.985,10.341Z" transform="translate(-274.565 -132.784)" fill="#00973d"/>
        <path id="Path_1017" data-name="Path 1017" d="M381.092,136.955h-5.429v-3.833H391.2v3.833H385.68v16.353h-4.588Z" transform="translate(-258.591 -132.784)" fill="#00973d"/>
        <path id="Path_1018" data-name="Path 1018" d="M382.995,133.122v20.186H378.42V133.122Z" transform="translate(-243.095 -132.784)" fill="#00973d"/>
        <path id="Path_1019" data-name="Path 1019" d="M379.755,133.122h4.581v16.353h8.038v3.833H379.755Z" transform="translate(-235.592 -132.784)" fill="#00973d"/>
        <path id="Path_1020" data-name="Path 1020" d="M394.141,144.768h-7.435v4.793h8.3v3.747h-12.9V133.122h12.48v3.734h-7.885v4.2h7.435Z" transform="translate(-222.35 -132.784)" fill="#00973d"/>
        <path id="Path_1021" data-name="Path 1021" d="M403,145.575c-.093-2.423-.179-5.363-.179-8.289h-.086c-.635,2.569-1.47,5.442-2.264,7.812l-2.45,7.892h-3.562l-2.172-7.839c-.649-2.357-1.344-5.237-1.814-7.865h-.06c-.119,2.714-.206,5.826-.371,8.355l-.351,7.667h-4.224l1.291-20.186h6.078l1.986,6.733c.609,2.344,1.245,4.86,1.708,7.216h.08c.563-2.337,1.271-5,1.92-7.243l2.158-6.707h5.965l1.1,20.186h-4.456Z" transform="translate(-203.498 -132.784)" fill="#00973d"/>
        <path id="Path_1022" data-name="Path 1022" d="M393.993,133.122v20.186h-4.588V133.122Z" transform="translate(-181.353 -132.784)" fill="#00973d"/>
        <path id="Path_1023" data-name="Path 1023" d="M390.741,133.122h4.588v16.353h8.011v3.833h-12.6Z" transform="translate(-173.844 -132.784)" fill="#00973d"/>
        <path id="Path_1024" data-name="Path 1024" d="M393.1,133.122h4.575v16.353h8.037v3.833H393.1Z" transform="translate(-160.596 -132.784)" fill="#00973d"/>
        <path id="Path_1025" data-name="Path 1025" d="M396.264,148.9a11.649,11.649,0,0,0,5.058,1.245c2.105,0,3.2-.867,3.2-2.178,0-1.264-.96-1.98-3.377-2.853-3.357-1.172-5.535-3.019-5.535-5.958,0-3.449,2.86-6.084,7.634-6.084a12.428,12.428,0,0,1,5.151,1.02l-1.026,3.674a9.727,9.727,0,0,0-4.217-.947c-1.979,0-2.946.9-2.946,1.96,0,1.271,1.145,1.841,3.76,2.82,3.569,1.331,5.237,3.191,5.237,6.038,0,3.383-2.609,6.263-8.15,6.263a12.891,12.891,0,0,1-5.72-1.245Z" transform="translate(-148.012 -133.071)" fill="#00973d"/>
        <path id="Path_1026" data-name="Path 1026" d="M398.9,133.122H403.5v16.353h8.031v3.833H398.9Z" transform="translate(-127.98 -132.784)" fill="#00973d"/>
        <path id="Path_1027" data-name="Path 1027" d="M405.969,136.955H400.56v-3.833h15.506v3.833h-5.515v16.353h-4.581Z" transform="translate(-118.655 -132.784)" fill="#00973d"/>
        <path id="Path_1028" data-name="Path 1028" d="M403.313,133.509a43.612,43.612,0,0,1,6.17-.411c3.84,0,6.323.688,8.269,2.152,2.1,1.576,3.423,4.058,3.423,7.614,0,3.886-1.41,6.541-3.357,8.19-2.125,1.768-5.363,2.615-9.315,2.615a39.855,39.855,0,0,1-5.191-.311Zm4.595,16.485a7.507,7.507,0,0,0,1.576.1c4.145.02,6.846-2.251,6.846-7.071.026-4.2-2.436-6.429-6.362-6.429a9.507,9.507,0,0,0-2.059.185Z" transform="translate(-103.182 -132.919)" fill="#00973d"/>
        <path id="Path_1029" data-name="Path 1029" d="M406.256,138.166a2.628,2.628,0,0,1,2.7-2.781,2.773,2.773,0,0,1-.053,5.541A2.611,2.611,0,0,1,406.256,138.166Z" transform="translate(-86.64 -120.065)" fill="#00973d"/>
      </g>
    </g>
  </g>
  <g id="Group_254" data-name="Group 254" transform="translate(90.113 0)">
    <g id="Group_251" data-name="Group 251">
      <path id="Path_1030" data-name="Path 1030" d="M511.073,249.734H371.591V110.265H511.073Zm-137.562-1.9H509.174V112.178H373.511Z" transform="translate(-371.591 -110.265)" fill="#002581"/>
    </g>
    <g id="Group_253" data-name="Group 253" transform="translate(13.95 17.965)">
      <path id="Path_1031" data-name="Path 1031" d="M432.368,156.8l-2.919-35.824c.006-.073.053-.139.053-.192,0-3.178-12.513-4.886-24.245-4.886-11.347,0-23.357,1.6-24.171,4.555h-.013l-.007.073a1.119,1.119,0,0,0-.053.258l.027.1L378.08,156.8c-.609,6.773,3.006,9.481,9.077,11.626,6.21,2.238,17.081,2.45,17.511,2.45h1.119c.477,0,11.314-.212,17.558-2.45C429.376,166.278,432.977,163.57,432.368,156.8Z" transform="translate(-349.445 -96.586)" fill="none" stroke="#ec401b" stroke-miterlimit="10" stroke-width="0.029"/>
      <g id="Group_252" data-name="Group 252">
        <path id="Path_1032" data-name="Path 1032" d="M381.966,123.372l.129-4.752-3.5-2.528,1.364-.7,2.309,1.733v-2.9l1.384-.685-.084,4.409,3.808,2.677-1.409.718-2.515-1.829-.071,3.135Z" transform="translate(-346.165 -109.795)" fill="#002581"/>
        <path id="Path_1033" data-name="Path 1033" d="M383.882,121.871l-2.055-6.343-1.842.6-.407-1.293,4.926-1.623.426,1.3-1.836.595,2.037,6.362Z" transform="translate(-340.653 -111.655)" fill="#002581"/>
        <path id="Path_1034" data-name="Path 1034" d="M382.209,121.247l-1.642-7.862,1.274-.258,1.642,7.842Z" transform="translate(-335.088 -112.144)" fill="#002581"/>
        <path id="Path_1035" data-name="Path 1035" d="M381.083,113.174l.828,7.934,4.565-.479-.123-1.358-3.278.356-.666-6.575Z" transform="translate(-332.19 -112.566)" fill="#002581"/>
        <path id="Path_1036" data-name="Path 1036" d="M382.375,112.978,382.038,121l4.946.24.071-1.351-3.659-.181.11-2.166,3.265.148.058-1.357-3.258-.142.072-1.778,3.511.162.058-1.358Z" transform="translate(-326.822 -112.978)" fill="#002581"/>
        <path id="Path_1037" data-name="Path 1037" d="M383.321,120.836l2.275-7.694,1.882.562-.407,5.586,2.663-4.907,1.888.549-2.25,7.726-1.17-.356,1.779-6.058-3.039,5.677-1.2-.35.537-6.427-1.772,6.052Z" transform="translate(-319.61 -112.056)" fill="#002581"/>
        <rect id="Rectangle_30" data-name="Rectangle 30" width="8.033" height="1.317" transform="translate(70.959 11.244) rotate(-66.074)" fill="#002581"/>
        <path id="Path_1038" data-name="Path 1038" d="M384.773,120.691l3.957-6.9,1.125.666-3.259,5.728,2.819,1.649-.659,1.177Z" transform="translate(-311.448 -108.406)" fill="#002581"/>
        <path id="Path_1039" data-name="Path 1039" d="M485.242,119.927h-17.6c.007.391.04.781.04,1.165a38.173,38.173,0,1,1-76.342,0c0-.4.033-.775.033-1.165H373.731c0,.391-.033.761-.033,1.165a58.312,58.312,0,0,0,.775,9.057l7.144.874a48.82,48.82,0,0,0,7.2,17.485l-4.436,5.614a55.686,55.686,0,0,0,12.069,12.3l5.409-4.575a48.449,48.449,0,0,0,17.578,7.587l1.457,7.322a55,55,0,0,0,8.62.708,58.864,58.864,0,0,0,8-.636l1.132-7.163a48.116,48.116,0,0,0,17.373-7.077l5.965,4.257a56.722,56.722,0,0,0,12.387-12.367l-4.171-5.972a48.962,48.962,0,0,0,7.177-17.419l7.263-1.715a58.769,58.769,0,0,0,.668-8.282c0-.4-.033-.775-.059-1.165" transform="translate(-373.698 -73.924)" fill="#002581"/>
        <path id="Path_1040" data-name="Path 1040" d="M426.1,120.781c0,1.635-8.335,4.012-23.391,4.012s-23.4-2.377-23.4-4.012c0-1.655,8.342-4.045,23.4-4.045s23.391,2.39,23.391,4.045m-23.391-4.886c-11.758,0-24.244,1.708-24.244,4.886,0,3.151,12.486,4.879,24.244,4.879,11.732,0,24.245-1.728,24.245-4.879,0-3.178-12.513-4.886-24.245-4.886" transform="translate(-346.899 -96.586)" fill="#ec401b"/>
        <path id="Path_1041" data-name="Path 1041" d="M393.332,117.656l.04-.1c-.232.252-2.185.8-5.714.8s-5.482-.549-5.687-.8l.02.1-.02.08c.205-.285,2.152-.821,5.687-.821s5.482.536,5.714.821Zm-5.674-1.576c-1.1,0-6.514.093-6.514,1.576s5.415,1.556,6.514,1.556c1.079,0,6.515-.066,6.515-1.556s-5.436-1.576-6.515-1.576" transform="translate(-331.847 -95.546)" fill="#ec401b"/>
        <path id="Path_1042" data-name="Path 1042" d="M393.732,118.025l.033-.086c-.238.278-2.456.814-5.932.814s-5.667-.536-5.925-.814l.04.086v.066l.2-1.655-.834-.06c0,1.483,5.415,1.569,6.514,1.569,1.079,0,6.515-.086,6.515-1.569l-.841.06.225,1.655Zm-.225-1.649.04-.079c-.232.258-2.185.795-5.714.795s-5.482-.536-5.687-.795l.02.079-.847-.04-.205,1.642v.046c0,1.483,5.6,1.576,6.72,1.576s6.733-.093,6.733-1.576v-.046l-.218-1.642Z" transform="translate(-332.021 -94.327)" fill="#ec401b"/>
        <path id="Path_1043" data-name="Path 1043" d="M428.561,117.589l2.979,36.354c.576,6.256-2.668,8.68-8.474,10.745-6.117,2.191-17.18,2.41-17.28,2.41H404.7c-.113,0-11.189-.218-17.3-2.41-5.8-2.066-9.044-4.489-8.488-10.745l2.993-36.354-.821-.152c-.013.053-.444,1.695,2.443,2.708,2.847,1.033,12.433,2.887,21.728,2.536,6.1-.053,17.115-.5,22.146-2.748,1.238-.589,1.993-1.291,2.105-1.9a.843.843,0,0,0-.238-.768l-.8-.847Zm-1.5,1.569c-3.628,1.629-11.387,2.6-21.828,2.688-9.2.338-18.63-1.463-21.417-2.476-1.695-.616-1.986-1.384-1.913-1.715l-.828-.139-2.992,36.347c-.609,6.773,3.006,9.481,9.077,11.626,6.21,2.238,17.081,2.45,17.511,2.45h1.119c.477,0,11.314-.212,17.558-2.45,6.031-2.145,9.633-4.853,9.024-11.626L429.4,117.516l-.708.338h.007c.013.113-.311.682-1.635,1.3" transform="translate(-349.445 -93.652)" fill="#ec401b"/>
        <path id="Path_1044" data-name="Path 1044" d="M378.595,140.109l43.765-22.344-.369-.757-43.784,22.351Z" transform="translate(-348.355 -90.332)" fill="#ec401b"/>
        <path id="Path_1045" data-name="Path 1045" d="M378.549,143.278l49.907-25.487-.356-.756L378.155,142.56Z" transform="translate(-348.645 -90.177)" fill="#ec401b"/>
        <path id="Path_1046" data-name="Path 1046" d="M428.832,117.591l-50.76,25.6.368.743,50.754-25.6Z" transform="translate(-349.112 -87.055)" fill="#ec401b"/>
        <path id="Path_1047" data-name="Path 1047" d="M429.5,118.043l-51.445,25.583.381.757L429.876,118.8Z" transform="translate(-349.205 -84.513)" fill="#ec401b"/>
        <path id="Path_1048" data-name="Path 1048" d="M429.41,118.523l-51.355,25.694.381.769,51.335-25.713Z" transform="translate(-349.205 -81.813)" fill="#ec401b"/>
        <path id="Path_1049" data-name="Path 1049" d="M428.961,119.02,378.2,144.312l.381.77,50.747-25.306Z" transform="translate(-348.382 -79.025)" fill="#ec401b"/>
        <path id="Path_1050" data-name="Path 1050" d="M428.054,119.456l-49.623,24.917.375.757,49.615-24.911Z" transform="translate(-347.092 -76.571)" fill="#ec401b"/>
        <path id="Path_1051" data-name="Path 1051" d="M425.491,119.911l-46.583,23.463.374.737,46.552-23.463Z" transform="translate(-344.414 -74.013)" fill="#ec401b"/>
        <path id="Path_1052" data-name="Path 1052" d="M423.168,120.375l-43.784,22.1.369.744,43.809-22.086Z" transform="translate(-341.741 -71.406)" fill="#ec401b"/>
        <path id="Path_1053" data-name="Path 1053" d="M419.139,120.829,380.12,140.917l.382.737,39.006-20.082Z" transform="translate(-337.602 -68.854)" fill="#ec401b"/>
        <path id="Path_1054" data-name="Path 1054" d="M415.269,121.355,380.86,138.837l.362.75L415.645,122.1Z" transform="translate(-333.441 -65.901)" fill="#ec401b"/>
        <path id="Path_1055" data-name="Path 1055" d="M410.7,121.763l-28.972,15.258.395.756,28.939-15.252Z" transform="translate(-328.584 -63.606)" fill="#ec401b"/>
        <path id="Path_1056" data-name="Path 1056" d="M405.372,122.271l-22.636,11.605.375.737,22.642-11.579Z" transform="translate(-322.897 -60.746)" fill="#ec401b"/>
        <path id="Path_1057" data-name="Path 1057" d="M397.447,122.857l-13.468,6.75.349.756,13.487-6.756Z" transform="translate(-315.91 -57.453)" fill="#ec401b"/>
        <path id="Path_1058" data-name="Path 1058" d="M378.455,117.478l22.493,11.844.369-.763-22.48-11.825Z" transform="translate(-346.96 -91.868)" fill="#ec401b"/>
        <path id="Path_1059" data-name="Path 1059" d="M380.206,117.87l13.849,7.506.394-.743-13.868-7.5Z" transform="translate(-337.119 -89.629)" fill="#ec401b"/>
        <path id="Path_1060" data-name="Path 1060" d="M381.283,117.955,391.6,123.3l.362-.75-10.293-5.334Z" transform="translate(-331.065 -89.184)" fill="#ec401b"/>
        <path id="Path_1061" data-name="Path 1061" d="M382.247,117.992l7.254,3.4.342-.782-7.241-3.382Z" transform="translate(-325.647 -89.091)" fill="#ec401b"/>
        <path id="Path_1062" data-name="Path 1062" d="M383.206,117.943l3.944,2.095.4-.757-3.937-2.095Z" transform="translate(-320.257 -89.327)" fill="#ec401b"/>
        <path id="Path_1063" data-name="Path 1063" d="M378.436,118.046l18.918,9.769.368-.743L378.83,117.31Z" transform="translate(-347.07 -88.635)" fill="#ec401b"/>
        <path id="Path_1064" data-name="Path 1064" d="M378.395,118.511,394.5,126.7l.375-.763-16.125-8.179Z" transform="translate(-347.301 -86.1)" fill="#ec401b"/>
        <path id="Path_1065" data-name="Path 1065" d="M378.434,119.1l-.086-.02c.549.172,8.21,4.178,13.208,6.8l.4-.735c-13.063-6.905-13.413-6.905-13.519-6.905Z" transform="translate(-347.562 -83.417)" fill="#ec401b"/>
        <rect id="Rectangle_31" data-name="Rectangle 31" width="0.836" height="11.322" transform="translate(30.614 38.888) rotate(-63.141)" fill="#ec401b"/>
        <path id="Path_1066" data-name="Path 1066" d="M378.253,119.949l7.3,3.873.381-.743-7.312-3.88Z" transform="translate(-348.097 -78.015)" fill="#ec401b"/>
        <path id="Path_1067" data-name="Path 1067" d="M378.236,120.434l4.332,2.354.4-.757-4.358-2.354Z" transform="translate(-348.19 -75.325)" fill="#ec401b"/>
        <path id="Path_1068" data-name="Path 1068" d="M378.207,120.764l1.358.989.5-.659-1.358-1Z" transform="translate(-348.355 -72.998)" fill="#ec401b"/>
        <path id="Path_1069" data-name="Path 1069" d="M383.811,118.383l-.285,1.43-1.9.172-.53,2.562,1.649.92-.291,1.371-7.236-4.184.278-1.364Zm-3.568,1.728-3.092.265,2.721,1.49Z" transform="translate(-365.155 -82.602)" fill="#002581"/>
        <path id="Path_1070" data-name="Path 1070" d="M382.819,125.39l-7.378-2.981.485-1.261,3.278,1.339-2.283-3.821.654-1.649,1.965,3.465,5.457-.608-.608,1.591-4.138.3.84,1.487,2.224.912Z" transform="translate(-363.899 -90.276)" fill="#002581"/>
        <path id="Path_1071" data-name="Path 1071" d="M382.863,121.62l-6.969-3.834.627-1.171,6.989,3.854Z" transform="translate(-361.358 -92.538)" fill="#002581"/>
        <path id="Path_1072" data-name="Path 1072" d="M376.345,116.97l.742-1.092,4.145,2.867a5.717,5.717,0,0,1,1.192.98,2.174,2.174,0,0,1,.529,1.225,2.1,2.1,0,0,1-.41,1.344,1.892,1.892,0,0,1-1.384.867,3.333,3.333,0,0,1-1.893-.675l.549-1.125a3.055,3.055,0,0,0,.92.4.7.7,0,0,0,.7-.311.642.642,0,0,0,.1-.682,3.313,3.313,0,0,0-.953-.881Z" transform="translate(-358.82 -96.682)" fill="#002581"/>
        <path id="Path_1073" data-name="Path 1073" d="M383.861,122.788l-4.609-4.778-1.371,1.358-.95-.976,3.685-3.66.957.977-1.371,1.37,4.584,4.778Z" transform="translate(-355.528 -103.121)" fill="#002581"/>
        <path id="Path_1074" data-name="Path 1074" d="M382.372,123.478l-4.642-6.517,3.937-2.858.776,1.119-2.858,2.05,1.016,1.455,2.67-1.933.789,1.118-2.67,1.914,1.267,1.778,2.968-2.14.788,1.1Z" transform="translate(-351.033 -106.661)" fill="#002581"/>
        <path id="Path_1075" data-name="Path 1075" d="M385.494,120.571l4.882-6.245,1.034.828-4.047,5.192,2.573,2.049-.853,1.061Z" transform="translate(-307.397 -105.404)" fill="#002581"/>
        <path id="Path_1076" data-name="Path 1076" d="M387.2,117.822l.98.834a2.092,2.092,0,0,0-.516,1.152,1.461,1.461,0,0,0,1.271,1.437,1.158,1.158,0,0,0,.781-.285.825.825,0,0,0,.258-.457,1.21,1.21,0,0,0-.06-.569c-.073-.179-.225-.516-.49-1.039a3.329,3.329,0,0,1-.43-1.629,2.241,2.241,0,0,1,.748-1.523,1.955,1.955,0,0,1,1.033-.6,1.935,1.935,0,0,1,1.145.046,2.828,2.828,0,0,1,1.079.741,2.534,2.534,0,0,1,.781,1.814,2.609,2.609,0,0,1-.827,1.695l-.96-.907a1.607,1.607,0,0,0,.4-.88,1.181,1.181,0,0,0-.384-.8,1.385,1.385,0,0,0-.834-.47.543.543,0,0,0-.477.192.659.659,0,0,0-.225.47,2.763,2.763,0,0,0,.437,1.265,5.765,5.765,0,0,1,.556,1.437,1.959,1.959,0,0,1-.1,1.086,2.922,2.922,0,0,1-.761,1.079,2.557,2.557,0,0,1-1.125.642,1.944,1.944,0,0,1-1.258-.026,2.944,2.944,0,0,1-1.172-.841,2.452,2.452,0,0,1-.8-1.88,3.374,3.374,0,0,1,.947-1.986" transform="translate(-303.153 -101.162)" fill="#002581"/>
        <path id="Path_1077" data-name="Path 1077" d="M386.983,120.263l6.8-4.066.66,1.118-5.619,3.408,1.675,2.845-1.145.685Z" transform="translate(-299.026 -94.893)" fill="#002581"/>
        <path id="Path_1078" data-name="Path 1078" d="M387.444,121.891l6.045-2.67-.756-1.784,1.235-.537,2.056,4.8-1.247.53-.75-1.784-6.045,2.657Z" transform="translate(-296.436 -90.941)" fill="#002581"/>
        <path id="Path_1079" data-name="Path 1079" d="M395.368,117.924l.6,2.344a4.864,4.864,0,0,1,.179,1.265,2.272,2.272,0,0,1-.463,1.145,3.563,3.563,0,0,1-1.086.92,7.057,7.057,0,0,1-1.775.708,6.253,6.253,0,0,1-1.675.218,3.558,3.558,0,0,1-1.556-.318,2.4,2.4,0,0,1-.828-.735,3.085,3.085,0,0,1-.464-1.106l-.616-2.423Zm-.967,1.622-5.091,1.344.239.967a4.27,4.27,0,0,0,.265.748,1.274,1.274,0,0,0,.463.437,1.733,1.733,0,0,0,.828.146,5.733,5.733,0,0,0,1.456-.238,5.828,5.828,0,0,0,1.331-.49,1.745,1.745,0,0,0,.636-.569,1.116,1.116,0,0,0,.225-.689,5.655,5.655,0,0,0-.185-1.079Z" transform="translate(-295.105 -85.182)" fill="#002581"/>
        <rect id="Rectangle_32" data-name="Rectangle 32" width="1.516" height="1.254" transform="matrix(0.992, -0.128, 0.128, 0.992, 94.045, 41.256)" fill="#002581"/>
      </g>
    </g>
  </g>
</svg>
