<svg xmlns="http://www.w3.org/2000/svg" xmlns:xlink="http://www.w3.org/1999/xlink" width="150" height="120" viewBox="0 0 150 120">
  <defs>
    <clipPath id="clip-acw">
      <rect width="150" height="120"/>
    </clipPath>
  </defs>
  <g id="acw" clip-path="url(#clip-acw)">
    <g id="acw-2" data-name="acw" transform="translate(-196.026 -11.33)">
      <g id="Group_294" data-name="Group 294" transform="translate(199.313 97.053)">
        <g id="Group_293" data-name="Group 293">
          <g id="Group_292" data-name="Group 292">
            <path id="Path_1297" data-name="Path 1297" d="M201.809,74.612l-.581,2.1h-1.915l2.5-8.164h2.421l2.533,8.164h-1.987l-.63-2.1Zm2.07-1.384-.508-1.733c-.147-.485-.291-1.089-.411-1.574h-.025c-.12.485-.242,1.1-.374,1.574l-.485,1.733Z" transform="translate(-199.313 -68.408)" fill="#0060af"/>
            <path id="Path_1298" data-name="Path 1298" d="M203.781,68.544h1.828v3.6h.039c.178-.314.374-.6.556-.9l1.853-2.71h2.264l-2.7,3.475,2.845,4.688h-2.155l-2-3.529-.7.862v2.667h-1.828Z" transform="translate(-195.121 -68.408)" fill="#0060af"/>
            <path id="Path_1299" data-name="Path 1299" d="M209.533,68.544v8.164h-1.855V68.544Z" transform="translate(-191.465 -68.408)" fill="#0060af"/>
            <path id="Path_1300" data-name="Path 1300" d="M211.512,68.544h1.841V73.7c0,2.324-1.114,3.136-2.909,3.136a4.832,4.832,0,0,1-1.341-.192l.2-1.492a2.979,2.979,0,0,0,.948.145c.773,0,1.258-.347,1.258-1.622Z" transform="translate(-190.128 -68.408)" fill="#0060af"/>
            <path id="Path_1301" data-name="Path 1301" d="M219.654,76.541a5.258,5.258,0,0,1-2.1.353c-2.822,0-4.274-1.756-4.274-4.084a4.159,4.159,0,0,1,4.456-4.336,4.813,4.813,0,0,1,2.01.362l-.376,1.467a3.946,3.946,0,0,0-1.549-.3,2.683,2.683,0,0,0,.012,5.365,4.658,4.658,0,0,0,1.537-.264Z" transform="translate(-186.207 -68.474)" fill="#0060af"/>
            <path id="Path_1302" data-name="Path 1302" d="M222.112,73.254h-3v1.94h3.357v1.514h-5.21V68.544h5.039v1.51h-3.186v1.7h3Z" transform="translate(-182.48 -68.408)" fill="#0060af"/>
            <path id="Path_1303" data-name="Path 1303" d="M220.654,76.708V68.544h2.155l1.7,2.991a23.386,23.386,0,0,1,1.333,2.8h.035a30.542,30.542,0,0,1-.159-3.4V68.544h1.7v8.164h-1.938l-1.742-3.151a29.472,29.472,0,0,1-1.419-2.882l-.037.012c.048,1.076.074,2.229.074,3.558v2.463Z" transform="translate(-179.292 -68.408)" fill="#0060af"/>
            <path id="Path_1304" data-name="Path 1304" d="M226.9,70.093h-2.2V68.544h6.278v1.549h-2.231v6.615H226.9Z" transform="translate(-175.489 -68.408)" fill="#0060af"/>
            <path id="Path_1305" data-name="Path 1305" d="M228.512,68.681a16.269,16.269,0,0,1,2.46-.169,4.176,4.176,0,0,1,2.642.642,2.071,2.071,0,0,1,.75,1.709,2.165,2.165,0,0,1-1.44,2.008v.037a2.062,2.062,0,0,1,1.089,1.525c.254.921.51,1.987.667,2.3h-1.89a10.291,10.291,0,0,1-.57-1.9c-.217-1.019-.57-1.3-1.318-1.308h-.558v3.212h-1.832Zm1.832,3.512h.725c.921,0,1.465-.459,1.465-1.175,0-.75-.508-1.126-1.355-1.138a4.566,4.566,0,0,0-.835.058Z" transform="translate(-171.919 -68.438)" fill="#0060af"/>
            <path id="Path_1306" data-name="Path 1306" d="M234.524,74.612l-.583,2.1H232.03l2.494-8.164h2.423l2.531,8.164h-1.987l-.63-2.1Zm2.07-1.384-.508-1.733c-.145-.485-.291-1.089-.411-1.574h-.025c-.12.485-.24,1.1-.374,1.574l-.484,1.733Z" transform="translate(-168.619 -68.408)" fill="#0060af"/>
            <path id="Path_1307" data-name="Path 1307" d="M236.5,68.544h1.853v6.609h3.245v1.554h-5.1Z" transform="translate(-164.428 -68.408)" fill="#0060af"/>
            <path id="Path_1308" data-name="Path 1308" d="M242.464,76.708l-1.938-8.164H242.5l.618,3.363c.18.971.351,2.023.487,2.849h.021c.134-.884.328-1.866.535-2.872l.688-3.339h1.963l.655,3.436c.182.957.314,1.83.434,2.737h.025c.12-.907.3-1.861.473-2.834l.665-3.339h1.878l-2.107,8.164h-2l-.692-3.514c-.157-.826-.289-1.587-.386-2.52h-.025c-.145.919-.277,1.694-.471,2.52l-.777,3.514Z" transform="translate(-160.648 -68.408)" fill="#0060af"/>
            <path id="Path_1309" data-name="Path 1309" d="M254.06,72.6c0,2.679-1.624,4.3-4.008,4.3-2.423,0-3.841-1.828-3.841-4.152a3.954,3.954,0,0,1,3.973-4.278A3.8,3.8,0,0,1,254.06,72.6Zm-5.9.109c0,1.6.754,2.725,1.989,2.725s1.961-1.186,1.961-2.774c0-1.465-.7-2.725-1.973-2.725C248.889,69.939,248.16,71.127,248.16,72.713Z" transform="translate(-155.316 -68.474)" fill="#0060af"/>
            <path id="Path_1310" data-name="Path 1310" d="M250.947,68.681a16.183,16.183,0,0,1,2.458-.169,4.173,4.173,0,0,1,2.64.642,2.071,2.071,0,0,1,.75,1.709,2.161,2.161,0,0,1-1.438,2.008v.037a2.053,2.053,0,0,1,1.085,1.525c.258.921.512,1.987.671,2.3h-1.89a10.236,10.236,0,0,1-.572-1.9c-.215-1.019-.568-1.3-1.32-1.308h-.556v3.212h-1.828Zm1.828,3.512h.727c.921,0,1.465-.459,1.465-1.175,0-.75-.508-1.126-1.357-1.138a4.584,4.584,0,0,0-.835.058Z" transform="translate(-150.872 -68.438)" fill="#0060af"/>
            <path id="Path_1311" data-name="Path 1311" d="M254.714,68.544h1.828v3.6h.035c.184-.314.378-.6.56-.9l1.851-2.71h2.268l-2.7,3.475,2.847,4.688h-2.157l-2-3.529-.7.862v2.667h-1.828Z" transform="translate(-147.338 -68.408)" fill="#0060af"/>
            <path id="Path_1312" data-name="Path 1312" d="M258.826,74.87a4.716,4.716,0,0,0,2.043.51c.849,0,1.3-.355,1.3-.886,0-.51-.39-.8-1.37-1.153-1.355-.469-2.24-1.223-2.24-2.409,0-1.394,1.161-2.458,3.093-2.458a5,5,0,0,1,2.078.411l-.409,1.49a3.877,3.877,0,0,0-1.711-.388c-.8,0-1.184.362-1.184.785,0,.523.461.754,1.514,1.153,1.442.531,2.12,1.285,2.12,2.438,0,1.364-1.052,2.529-3.293,2.529a5.3,5.3,0,0,1-2.314-.5Z" transform="translate(-143.833 -68.474)" fill="#0060af"/>
            <path id="Path_1313" data-name="Path 1313" d="M263.9,68.544v3.134h3.039V68.544h1.839v8.164h-1.839V73.291H263.9v3.417h-1.855V68.544Z" transform="translate(-140.457 -68.408)" fill="#0060af"/>
            <path id="Path_1314" data-name="Path 1314" d="M274.07,72.6c0,2.679-1.622,4.3-4.008,4.3-2.423,0-3.841-1.828-3.841-4.152a3.953,3.953,0,0,1,3.973-4.278A3.805,3.805,0,0,1,274.07,72.6Zm-5.9.109c0,1.6.75,2.725,1.985,2.725s1.961-1.186,1.961-2.774c0-1.465-.7-2.725-1.973-2.725C268.9,69.939,268.172,71.127,268.172,72.713Z" transform="translate(-136.543 -68.474)" fill="#0060af"/>
            <path id="Path_1315" data-name="Path 1315" d="M270.956,68.681a15.133,15.133,0,0,1,2.494-.169,3.911,3.911,0,0,1,2.494.653,2.372,2.372,0,0,1,.874,1.89,2.605,2.605,0,0,1-.752,1.936,3.773,3.773,0,0,1-2.653.862,4.466,4.466,0,0,1-.63-.039v2.923h-1.828Zm1.828,3.708a3.112,3.112,0,0,0,.622.047c.981,0,1.582-.5,1.582-1.33,0-.756-.517-1.2-1.442-1.2a3.009,3.009,0,0,0-.762.074Z" transform="translate(-132.1 -68.438)" fill="#0060af"/>
          </g>
        </g>
      </g>
      <g id="Group_307" data-name="Group 307" transform="translate(243.459 38.011)">
        <g id="Group_302" data-name="Group 302">
          <g id="Group_300" data-name="Group 300">
            <g id="Group_299" data-name="Group 299">
              <g id="Group_298" data-name="Group 298">
                <g id="Group_295" data-name="Group 295" transform="translate(11.113 11.113)">
                  <path id="Path_1316" data-name="Path 1316" d="M260.087,52.065a16.131,16.131,0,1,1-32.263,0Z" transform="translate(-227.824 -35.939)" fill="#1a1818" stroke="#1a1818" stroke-width="0.318"/>
                  <path id="Path_1317" data-name="Path 1317" d="M227.824,59.871a16.131,16.131,0,0,1,32.263,0Z" transform="translate(-227.824 -43.745)" fill="#ffa800"/>
                </g>
                <g id="Group_297" data-name="Group 297">
                  <g id="Group_296" data-name="Group 296">
                    <path id="Path_1318" data-name="Path 1318" d="M251.511,38.056l-5.1-.045-1.428,4.45a23.716,23.716,0,0,0-3.779,1.068l-3.413-3.022-4.384,2.6,1.054,4.378a22.645,22.645,0,0,0-2.9,2.919l-4.81-.882-2.411,4.514,3.212,3.405a22.862,22.862,0,0,0-1.006,3.9L222.2,62.792l-.112,5.113,4.522,1.471a22.748,22.748,0,0,0,1.111,3.991l-3.089,3.617,2.545,4.436,4.561-1.25a23.114,23.114,0,0,0,2.735,2.723l-.965,4.661,4.438,2.549L241.33,86.9a22.89,22.89,0,0,0,3.921,1.064l1.521,4.533,5.092-.064,1.3-4.4a22.887,22.887,0,0,0,4.121-1.068l3.324,3.155,4.466-2.454-.942-4.609a23.347,23.347,0,0,0,3.324-3.37l4.221.9,2.531-4.421-2.985-3.2a22.959,22.959,0,0,0,1.085-4.32l4.274-1.5-.149-5.088-4.279-1.188a22.8,22.8,0,0,0-1.341-4.508l2.942-3.438L271.069,48.6l-4.425,1.145A23.261,23.261,0,0,0,263.47,46.8l.932-4.27-4.409-2.551-3.446,3.186a22.689,22.689,0,0,0-3.727-.882Zm14.013,27.107a16.128,16.128,0,1,1-16.155-16.1A16.121,16.121,0,0,1,265.524,65.163Z" transform="translate(-222.09 -38.011)" fill="#0060af" stroke="#1a1818" stroke-width="0.548"/>
                  </g>
                  <path id="Path_1319" data-name="Path 1319" d="M233.953,58.413" transform="translate(-210.961 -18.871)" fill="none" stroke="#e50019" stroke-width="0.011"/>
                </g>
              </g>
            </g>
          </g>
          <g id="Group_301" data-name="Group 301" transform="translate(5.886 19.126)">
            <path id="Path_1320" data-name="Path 1320" d="M226.538,47.879l2.593,2.456-.38,1.316-3.475.616.355-1.238.393-.066.459-1.6-.295-.271Zm.612,2.033-.269.924,1.163-.169Z" transform="translate(-224.987 -47.879)" fill="#fff"/>
            <path id="Path_1321" data-name="Path 1321" d="M225.362,50.546l3.165.2-.079,1.213-1.407-.091,1.345,1.1-.089,1.4-1.37-1.229-1.8,1.054.085-1.347,1.76-.985-1.688-.11Z" transform="translate(-225.127 -45.377)" fill="#fff"/>
            <path id="Path_1322" data-name="Path 1322" d="M225.3,54.123l-.11-1.209,3.155-.295.114,1.213Z" transform="translate(-225.066 -43.432)" fill="#fff"/>
            <path id="Path_1323" data-name="Path 1323" d="M225.317,53.979l.83-.186c.006.031.01.062.014.085l.017.079a.822.822,0,0,0,.2.436c.081.07.238.081.469.027l1.721-.38.264,1.19L226.7,55.7a.883.883,0,0,1-.833-.134,2.129,2.129,0,0,1-.452-1.062c-.017-.072-.035-.145-.048-.225S225.336,54.1,225.317,53.979Z" transform="translate(-224.949 -42.331)" fill="#fff"/>
            <path id="Path_1324" data-name="Path 1324" d="M227.157,59.577a2.882,2.882,0,0,1-.171-.238,3.128,3.128,0,0,1-.165-.287,3.235,3.235,0,0,1-.442-1.8,1.353,1.353,0,0,1,.717-1.147,1.386,1.386,0,0,1,1.386.076,3.223,3.223,0,0,1,1.26,1.382c.037.078.076.157.112.242a2.51,2.51,0,0,1,.107.281l-.8.492a2.355,2.355,0,0,0-.085-.326,2.3,2.3,0,0,0-.124-.289,1.719,1.719,0,0,0-.6-.7.61.61,0,0,0-.634-.058.634.634,0,0,0-.322.554,1.579,1.579,0,0,0,.211.862,2.185,2.185,0,0,0,.2.312,2.83,2.83,0,0,0,.252.277Z" transform="translate(-223.961 -40.304)" fill="#fff"/>
            <path id="Path_1325" data-name="Path 1325" d="M229.582,61.009l-.89.283-1.6-2.053,2.5-1.954,1.6,2.041-.539.68-.977-1.244-.252.2.651.83-.657.519-.651-.833-.233.184Z" transform="translate(-223.287 -39.054)" fill="#fff"/>
            <path id="Path_1326" data-name="Path 1326" d="M228.315,60.967l2.07-2.4.405.347.419,2.19.907-1.052.915.789-2.066,2.407-.417-.359-.413-2.169-.893,1.045Z" transform="translate(-222.136 -37.855)" fill="#fff"/>
            <path id="Path_1327" data-name="Path 1327" d="M232.663,61.518l-1.176,2.054-1.056-.607,1.178-2.051-.828-.477.508-.63,2.489,1.425-.285.76Z" transform="translate(-220.152 -36.687)" fill="#fff"/>
            <path id="Path_1328" data-name="Path 1328" d="M231.749,63.6l1.051-2.991,1.254.444a3.042,3.042,0,0,1,1.248.711.805.805,0,0,1,.217.864.679.679,0,0,1-.353.4,1.114,1.114,0,0,1-.609.091l.514,1.653-1.258-.448-.467-1.6-.45,1.279Zm1.7-1.178.114.041a1.025,1.025,0,0,0,.5.07.33.33,0,0,0,.26-.221.341.341,0,0,0-.058-.337.887.887,0,0,0-.411-.256l-.14-.05Z" transform="translate(-218.914 -35.934)" fill="#fff"/>
            <path id="Path_1329" data-name="Path 1329" d="M233.634,64.243l2.014-2.95,1.361.169,1.157,3.332-1.277-.151-.126-.376-1.653-.2-.219.329Zm1.911-.923.959.116-.353-1.12Z" transform="translate(-217.146 -35.294)" fill="#fff"/>
            <path id="Path_1330" data-name="Path 1330" d="M239.362,63.53l-.31.9-2.568.205-.248-3.161,1.209-.1.18,2.293Z" transform="translate(-214.705 -35.216)" fill="#fff"/>
            <path id="Path_1331" data-name="Path 1331" d="M240.457,64.732l-1.833-2.671,1.128-.473.793,1.268.291-1.756,1.446,1.029-.3-1.477,1.1-.463.669,3.155-.882.374-1.335-.981-.217,1.636Z" transform="translate(-212.465 -36.33)" fill="#fff"/>
            <path id="Path_1332" data-name="Path 1332" d="M242.327,59.763a3.455,3.455,0,0,1,.735-.428,2.528,2.528,0,0,1,.735-.2,1.865,1.865,0,0,1,.839.085,1.228,1.228,0,0,1,.845,1.107,1.9,1.9,0,0,1-.139.833,2.51,2.51,0,0,1-.384.665,3.349,3.349,0,0,1-.6.589,3.309,3.309,0,0,1-.729.426,2.509,2.509,0,0,1-.738.2,1.934,1.934,0,0,1-.839-.085,1.275,1.275,0,0,1-.591-.426,1.2,1.2,0,0,1-.254-.686,1.846,1.846,0,0,1,.134-.828,2.526,2.526,0,0,1,.384-.661A3.456,3.456,0,0,1,242.327,59.763Zm.537.7a1.346,1.346,0,0,0-.492.661.662.662,0,0,0,.085.64.67.67,0,0,0,.6.254,1.348,1.348,0,0,0,.768-.3,1.371,1.371,0,0,0,.494-.665.669.669,0,0,0-.085-.64.678.678,0,0,0-.591-.248A1.356,1.356,0,0,0,242.864,60.461Z" transform="translate(-210.051 -37.327)" fill="#fff"/>
            <path id="Path_1333" data-name="Path 1333" d="M245.264,61.645l-2.438-2.023.843-1.021a3.149,3.149,0,0,1,1.1-.926.813.813,0,0,1,.888.1.69.69,0,0,1,.246.463,1.088,1.088,0,0,1-.126.6l1.731.093-.851,1.029-1.667-.118,1.045.862Zm-.519-2.006.076-.091a.985.985,0,0,0,.242-.45.334.334,0,0,0-.116-.322.33.33,0,0,0-.333-.058.894.894,0,0,0-.382.3l-.1.118Z" transform="translate(-208.522 -38.77)" fill="#fff"/>
            <path id="Path_1334" data-name="Path 1334" d="M246.8,60.223,244,58.725l.574-1.068,1.242.665-.762-1.56.661-1.238.737,1.684L248.525,57l-.638,1.186-2.008.169,1.488.8Z" transform="translate(-207.42 -40.708)" fill="#fff"/>
            <path id="Path_1335" data-name="Path 1335" d="M247.732,57.543l-.839-.24c.052-.079.1-.159.138-.231a1.073,1.073,0,0,0,.093-.217.68.68,0,0,0,.037-.335.209.209,0,0,0-.132-.176c-.087-.027-.238.045-.45.219-.068.058-.124.1-.165.138a1.356,1.356,0,0,1-.444.238.67.67,0,0,1-.405-.012.8.8,0,0,1-.533-.636,2.18,2.18,0,0,1,.093-1.171c.047-.14.1-.267.147-.386a2.715,2.715,0,0,1,.174-.335l.746.242c-.062.087-.116.169-.163.246a1.788,1.788,0,0,0-.1.215.75.75,0,0,0-.045.355.2.2,0,0,0,.134.176c.085.029.221-.048.405-.225.072-.068.132-.122.176-.159a1.223,1.223,0,0,1,.475-.281.8.8,0,0,1,.467,0,.828.828,0,0,1,.562.673,2.568,2.568,0,0,1-.141,1.31c-.039.107-.074.209-.114.306S247.773,57.454,247.732,57.543Z" transform="translate(-206.494 -41.762)" fill="#fff"/>
            <path id="Path_1336" data-name="Path 1336" d="M248.425,56.266l-3.142-.423.163-1.2,1.093.147.136-1.014-1.1-.145.161-1.2,3.14.419-.161,1.2-1.221-.163-.134,1.012,1.219.163Z" transform="translate(-206.217 -43.611)" fill="#fff"/>
            <path id="Path_1337" data-name="Path 1337" d="M245.4,52.345a3.347,3.347,0,0,1,.017-.849,2.28,2.28,0,0,1,.221-.727,1.854,1.854,0,0,1,.514-.674,1.21,1.21,0,0,1,.665-.283,1.241,1.241,0,0,1,.715.145,1.906,1.906,0,0,1,.64.556,2.508,2.508,0,0,1,.36.674,3.282,3.282,0,0,1,.182.826,3.071,3.071,0,0,1-.014.845,2.452,2.452,0,0,1-.221.733,1.886,1.886,0,0,1-.514.667,1.245,1.245,0,0,1-1.39.14,1.888,1.888,0,0,1-.63-.55,2.554,2.554,0,0,1-.362-.674A3.465,3.465,0,0,1,245.4,52.345Zm.878-.093a1.4,1.4,0,0,0,.3.769.677.677,0,0,0,.589.264.666.666,0,0,0,.519-.376,1.534,1.534,0,0,0-.159-1.582.659.659,0,0,0-.583-.264.67.67,0,0,0-.523.372A1.35,1.35,0,0,0,246.282,52.252Z" transform="translate(-206.121 -46.071)" fill="#fff"/>
            <path id="Path_1338" data-name="Path 1338" d="M248.55,50.459l-3,1.018-.4-1.159a3.105,3.105,0,0,1-.209-1.5.921.921,0,0,1,.657-.74.983.983,0,0,1,.971.169,2.4,2.4,0,0,1,.721,1.157l.058.174.806-.273Zm-1.946-.626-.05-.13a.842.842,0,0,0-.238-.405.3.3,0,0,0-.312-.066.324.324,0,0,0-.223.244.9.9,0,0,0,.054.475l.045.128Z" transform="translate(-206.558 -47.746)" fill="#fff"/>
          </g>
        </g>
        <g id="Group_306" data-name="Group 306" transform="translate(11.177 11.048)">
          <path id="Path_1339" data-name="Path 1339" d="M260.114,59.815a16.129,16.129,0,1,1-16.155-16.1A16.121,16.121,0,0,1,260.114,59.815Z" transform="translate(-227.857 -43.711)" fill="none" stroke="#1a1818" stroke-width="0.548"/>
          <g id="Group_305" data-name="Group 305" transform="translate(4.19 5.121)">
            <g id="Group_303" data-name="Group 303">
              <path id="Path_1340" data-name="Path 1340" d="M239.806,51.96l-4.75,4.727a3.384,3.384,0,0,1-2.467,1,2.506,2.506,0,0,0-1.62,3.824l.587.091.729-1.19s.322-.583,1.176-.178c0,0,1.128.5.744,1.1l-.579,1.066.453.57s2.3-.541,2.51-2.618c0,0-.409-1.221.4-1.8l4.69-4.681c4.016,4.136,8.21,8.5,8.21,8.5.4.246.62.831,2.027-1.062,0,0,.954-.682.211-1.394-.273-.264-4.809-4.287-8.943-7.956" transform="translate(-229.504 -41.093)" fill="#ffa800"/>
              <path id="Path_1341" data-name="Path 1341" d="M243.918,57.435l4.066-4.084a2.434,2.434,0,0,1,2.087-.921s3.427-.421,1.915-3.985l-.543-.072-.6,1.1s-.3.715-1.328.217c-.568-.277-1.045-.705-.723-1.145l.514-.853-.432-.678s-2.109.775-2.419,2.2a3.1,3.1,0,0,1-.384,2.266l-4.159,4.146c-3.111-2.752-5.679-5.028-5.679-5.028a2.178,2.178,0,0,1,1.283-2.756,7.286,7.286,0,0,1,1.909-.878,2.038,2.038,0,0,0,.4-.616,11.257,11.257,0,0,0-6.863,3.405c-.244.647-.023,1.512-1.506,1.611-.366.376-1.01,1.025-1.132,1.149s-.492.314-.184.649l1.552,1.535c0,.184.554.091.709-.281a6.513,6.513,0,0,1,1.012-1.116c.029-.465-.165-1.638,1.6-1.4.337.24,2.857,2.762,5.557,5.528Z" transform="translate(-230.019 -46.353)" fill="#1a1818"/>
            </g>
            <g id="Group_304" data-name="Group 304">
              <path id="Path_1342" data-name="Path 1342" d="M240.32,57.22l-4.75,4.727a3.384,3.384,0,0,1-2.467,1,2.506,2.506,0,0,0-1.62,3.824l.587.091.729-1.19s.322-.583,1.176-.178c0,0,1.128.5.744,1.1l-.58,1.066.454.57s2.3-.541,2.51-2.618c0,0-.409-1.221.4-1.8l4.69-4.681c4.016,4.136,8.21,8.5,8.21,8.5.4.246.62.831,2.027-1.062,0,0,.954-.682.211-1.394-.273-.264-4.528-4.014-8.662-7.681l-.06-.06,4.066-4.084a2.434,2.434,0,0,1,2.087-.921s3.427-.421,1.915-3.985l-.543-.072-.6,1.1s-.3.715-1.328.217c-.568-.277-1.045-.705-.723-1.145l.514-.853-.432-.678s-2.109.775-2.419,2.2a3.1,3.1,0,0,1-.384,2.266l-4.159,4.146c-3.111-2.752-5.679-5.028-5.679-5.028a2.178,2.178,0,0,1,1.283-2.756,7.286,7.286,0,0,1,1.909-.878,2.038,2.038,0,0,0,.4-.616,11.257,11.257,0,0,0-6.863,3.405c-.244.647-.023,1.512-1.506,1.611-.366.376-1.01,1.025-1.132,1.149s-.492.314-.184.649l1.552,1.535c0,.184.554.091.709-.281a6.513,6.513,0,0,1,1.012-1.116c.029-.465-.165-1.638,1.6-1.4.328.235,2.719,2.618,5.328,5.3Z" transform="translate(-230.019 -46.353)" fill="none" stroke="#fff" stroke-width="0.365"/>
            </g>
          </g>
        </g>
      </g>
    </g>
  </g>
</svg>
