<svg id="aapf" xmlns="http://www.w3.org/2000/svg" xmlns:xlink="http://www.w3.org/1999/xlink" width="361.597" height="146.189" viewBox="0 0 361.597 146.189">
  <defs>
    <linearGradient id="linear-gradient" x1="-129.947" y1="8.396" x2="-128.63" y2="8.396" gradientUnits="objectBoundingBox">
      <stop offset="0" stop-color="#88ba2b"/>
      <stop offset="0.175" stop-color="#7db22c"/>
      <stop offset="0.476" stop-color="#62a02f"/>
      <stop offset="0.864" stop-color="#358135"/>
      <stop offset="1" stop-color="#247638"/>
    </linearGradient>
    <linearGradient id="linear-gradient-2" x1="-47.218" y1="22.711" x2="-46.239" y2="22.711" xlink:href="#linear-gradient"/>
  </defs>
  <g id="Group_204" data-name="Group 204" transform="translate(21.543)">
    <g id="Group_201" data-name="Group 201">
      <g id="Group_194" data-name="Group 194" transform="translate(58.418)">
        <path id="Path_751" data-name="Path 751" d="M305.759,178.647a41.294,41.294,0,0,1,10.891-13.5,56.742,56.742,0,0,1,12.546-7.693,61.169,61.169,0,0,1,15.075-3.946,60.219,60.219,0,0,1,5.19,14.526,61.736,61.736,0,0,1,1.086,14.8A38.742,38.742,0,0,1,345.78,199.4a28.466,28.466,0,0,1-6.025,8.223,24.982,24.982,0,0,1-7.9,4.992,21.077,21.077,0,0,1-9,1.47,21.382,21.382,0,0,1-8.752-2.3,20.423,20.423,0,0,1-10.706-14A28.163,28.163,0,0,1,305.759,178.647Z" transform="translate(-302.659 -153.509)" fill="url(#linear-gradient)"/>
        <g id="Group_190" data-name="Group 190" transform="translate(12.488 39.315)">
          <path id="Path_752" data-name="Path 752" d="M304.83,168.163l15.944-8.715-4.39,2.4-11.839,5.69Z" transform="translate(-304.545 -159.447)" fill="#fff"/>
        </g>
        <g id="Group_191" data-name="Group 191" transform="translate(18.902 30.082)">
          <path id="Path_753" data-name="Path 753" d="M305.688,162.87l14.321-4.817-3.652,1.293-10.843,2.891Z" transform="translate(-305.514 -158.053)" fill="#fff"/>
        </g>
        <g id="Group_192" data-name="Group 192" transform="translate(9.229 27.373)">
          <path id="Path_754" data-name="Path 754" d="M308.514,175.217l-4.461-17.573.724,2.76,3.084,14.955Z" transform="translate(-304.053 -157.644)" fill="#fff"/>
        </g>
        <g id="Group_193" data-name="Group 193" transform="translate(9.81 13.162)">
          <path id="Path_755" data-name="Path 755" d="M311.989,224.808a35.4,35.4,0,0,1-7.812-24.026c.6-13.5,8.382-27.144,23.146-40.518l4.793-4.767c-14.618,13.254-26.681,31.977-27.264,45.3a34.835,34.835,0,0,0,7.634,23.563Z" transform="translate(-304.14 -155.497)" fill="#fff"/>
        </g>
      </g>
      <g id="Group_200" data-name="Group 200" transform="translate(0 37.946)">
        <path id="Path_756" data-name="Path 756" d="M364.987,179.317a16.8,16.8,0,0,1-1.364,9.851,26.141,26.141,0,0,1-6.415,8.521,39.3,39.3,0,0,1-21.153,9.474,36.718,36.718,0,0,1-12.526-.609,60.3,60.3,0,0,1-11.911-4.012,57.034,57.034,0,0,1-10.149-5.892,58.886,58.886,0,0,1-7.634-6.561,57.662,57.662,0,0,1,5.363-8.607,75.288,75.288,0,0,1,7.819-8.859,56.4,56.4,0,0,1,9.9-7.706,40.134,40.134,0,0,1,11.639-4.879,41.146,41.146,0,0,1,12.348-.569,34.033,34.033,0,0,1,11.169,3.105,25.262,25.262,0,0,1,8.534,6.66A20.848,20.848,0,0,1,364.987,179.317Z" transform="translate(-293.835 -159.241)" fill="url(#linear-gradient-2)"/>
        <g id="Group_195" data-name="Group 195" transform="translate(23.013 16.221)">
          <path id="Path_757" data-name="Path 757" d="M369.462,177.967a35.514,35.514,0,0,0-20.471-14.85c-13.023-3.6-28.4-.384-45.649,9.533l-6.031,3.105c17.114-9.818,38.657-15.525,51.528-12a34.873,34.873,0,0,1,20.034,14.526Z" transform="translate(-297.311 -161.691)" fill="#fff"/>
        </g>
        <g id="Group_196" data-name="Group 196" transform="translate(34.318 21.708)">
          <path id="Path_758" data-name="Path 758" d="M305.219,162.52l-5.476,11.463-.724,1.609,6.82-12.788Z" transform="translate(-299.019 -162.52)" fill="#fff"/>
        </g>
        <g id="Group_197" data-name="Group 197" transform="translate(39.051 17.558)">
          <path id="Path_759" data-name="Path 759" d="M315.606,161.893,302.462,175.98l-2.729,2.761,16.351-16.383Z" transform="translate(-299.733 -161.893)" fill="#fff"/>
        </g>
        <g id="Group_198" data-name="Group 198" transform="translate(36.465 9.502)">
          <path id="Path_760" data-name="Path 760" d="M311.265,169.8l-10.028-7.623-1.894-1.5,11.514,9.672Z" transform="translate(-299.343 -160.676)" fill="#fff"/>
        </g>
        <g id="Group_199" data-name="Group 199" transform="translate(48.477 8.597)">
          <path id="Path_761" data-name="Path 761" d="M312.6,168.3l-7.086-4.552-4.358-3.207,11.088,8.327Z" transform="translate(-301.157 -160.539)" fill="#fff"/>
        </g>
      </g>
    </g>
    <g id="Group_203" data-name="Group 203" transform="translate(61.605 52.475)">
      <path id="Path_762" data-name="Path 762" d="M485.61,213.777c0,4.694-3.383,8.487-7.56,8.487H310.7c-4.177,0-7.561-3.794-7.561-8.487V169.923c0-4.674,3.383-8.488,7.561-8.488H478.049c4.177,0,7.56,3.814,7.56,8.488Z" transform="translate(-303.14 -161.435)" fill="#358736"/>
      <path id="Path_763" data-name="Path 763" d="M482.1,212.788c0,4.575-3.31,8.316-7.4,8.316H310.829c-4.092,0-7.4-3.741-7.4-8.316V169.847c0-4.588,3.31-8.316,7.4-8.316H474.7c4.092,0,7.4,3.727,7.4,8.316Z" transform="translate(-301.527 -160.895)" fill="#fff"/>
      <path id="Path_764" data-name="Path 764" d="M476.853,211.3c0,4.442-3.2,8.044-7.177,8.044H311.014c-3.966,0-7.157-3.6-7.157-8.044V169.738c0-4.449,3.191-8.064,7.157-8.064H469.676c3.972,0,7.177,3.615,7.177,8.064Z" transform="translate(-299.11 -160.092)" fill="#88ba2b"/>
      <g id="Group_202" data-name="Group 202" transform="translate(13.539 8.511)">
        <path id="Path_765" data-name="Path 765" d="M345.438,198.415a5.547,5.547,0,0,1-.146,4.82,6.206,6.206,0,0,1-3.363,2.84,6.6,6.6,0,0,1-4.575.1,5.378,5.378,0,0,1-3.238-3.522l-.867-2.125H317.916l-.933,2.125a5.342,5.342,0,0,1-3.257,3.522,6.548,6.548,0,0,1-4.555-.1,6.088,6.088,0,0,1-3.35-2.84,5.455,5.455,0,0,1-.159-4.82l6.574-14.579a5.575,5.575,0,0,1,3.257-3.6,6.439,6.439,0,0,1,4.555.093,6.626,6.626,0,0,1,3.35,2.906,5.482,5.482,0,0,1,.139,4.82l-.722,1.609h5.912L320.916,170.9a5.458,5.458,0,0,1,.139-4.8,6.691,6.691,0,0,1,3.35-2.926,6.434,6.434,0,0,1,4.568-.066,5.457,5.457,0,0,1,3.251,3.575Z" transform="translate(-305.185 -162.721)" fill="#fff" stroke="#247638" stroke-width="0.275"/>
        <path id="Path_766" data-name="Path 766" d="M351.666,198.415a5.459,5.459,0,0,1-.146,4.82,6.228,6.228,0,0,1-3.363,2.84,6.547,6.547,0,0,1-4.555.1,5.372,5.372,0,0,1-3.257-3.522l-.867-2.125H324.171l-.96,2.125a5.341,5.341,0,0,1-3.257,3.522,6.568,6.568,0,0,1-4.562-.1,6.28,6.28,0,0,1-3.343-2.84,5.5,5.5,0,0,1-.146-4.82l6.574-14.579a5.5,5.5,0,0,1,3.224-3.6,6.621,6.621,0,0,1,7.925,3,5.483,5.483,0,0,1,.139,4.82l-.728,1.609h5.919L327.144,170.9a5.475,5.475,0,0,1,.159-4.8,6.531,6.531,0,0,1,3.35-2.926,6.4,6.4,0,0,1,4.555-.066,5.527,5.527,0,0,1,3.257,3.575Z" transform="translate(-270.114 -162.721)" fill="#fff" stroke="#247638" stroke-width="0.275"/>
        <path id="Path_767" data-name="Path 767" d="M329.857,200.172c0,4.151-2,6.2-6.058,6.2-3.986,0-5.959-2.046-5.9-6.2V185.859c-.092-4.893,2.158-7.375,6.779-7.375h15.168c1.615,0,2.417-.583,2.417-1.8s-.8-1.827-2.417-1.827H323.654c-3.787,0-5.754-2.019-5.826-6.064q-.159-6.058,5.753-6.058H339.2q13.576,0,13.572,13.95,0,13.923-13.493,13.923h-9.421Z" transform="translate(-234.15 -162.65)" fill="#fff" stroke="#247638" stroke-width="0.275"/>
        <path id="Path_768" data-name="Path 768" d="M335.183,190.606v9.706a5.53,5.53,0,0,1-1.794,4.449,6.546,6.546,0,0,1-8.395,0,5.508,5.508,0,0,1-1.794-4.449V168.791c0-4.039,2.006-6.058,5.985-6.058h24.086a5.723,5.723,0,0,1,4.462,1.794,6.512,6.512,0,0,1,0,8.541,5.741,5.741,0,0,1-4.462,1.787H335.183v3.628h18.087a5.669,5.669,0,0,1,4.462,1.814,6.485,6.485,0,0,1,0,8.521,5.7,5.7,0,0,1-4.462,1.787Z" transform="translate(-203.93 -162.65)" fill="#fff" stroke="#247638" stroke-width="0.275"/>
      </g>
    </g>
  </g>
  <g id="Group_205" data-name="Group 205" transform="translate(0 126.466)">
    <path id="Path_769" data-name="Path 769" d="M300.148,188.571h-4.7l-.629,3.138h-4.237l5.032-19.047h4.5l5.051,19.047h-4.336Zm-.854-4.131-1.483-6.839-1.457,6.839Z" transform="translate(-290.581 -172.324)" fill="#1a1818"/>
    <path id="Path_770" data-name="Path 770" d="M292.984,172.662h4.144v7.19l4.343-7.19h5.515l-4.9,7.19,5.1,11.857h-5.1l-2.814-7.839-2.145,3.2v4.641h-4.144Z" transform="translate(-277.075 -172.324)" fill="#1a1818"/>
    <path id="Path_771" data-name="Path 771" d="M295.363,172.662h4.144v19.047h-4.144Z" transform="translate(-263.703 -172.324)" fill="#1a1818"/>
    <path id="Path_772" data-name="Path 772" d="M302.908,172.662h4.144V183.01a23.15,23.15,0,0,1-.4,4.959A5.609,5.609,0,0,1,305,190.855a4.35,4.35,0,0,1-3.138,1.192,5.494,5.494,0,0,1-3.158-.781,4.981,4.981,0,0,1-1.715-2.284,11.3,11.3,0,0,1-.708-3.721l3.952-.748a9.893,9.893,0,0,0,.152,1.86,2.532,2.532,0,0,0,.483.993.965.965,0,0,0,.689.232,1.089,1.089,0,0,0,1.026-.728,6.627,6.627,0,0,0,.325-2.463Z" transform="translate(-258.544 -172.324)" fill="#1a1818"/>
    <path id="Path_773" data-name="Path 773" d="M308.671,188.571h-4.714l-.656,3.138h-4.237l5.052-19.047h4.522l5.025,19.047h-4.343Zm-.887-4.131-1.47-6.839-1.457,6.839Z" transform="translate(-242.902 -172.324)" fill="#1a1818"/>
    <path id="Path_774" data-name="Path 774" d="M308.6,185.1v-3.972H315v8.137a12.106,12.106,0,0,1-3.257,2.4,7.681,7.681,0,0,1-3.35.662,6.225,6.225,0,0,1-3.9-1.172,7.23,7.23,0,0,1-2.317-3.436,15.488,15.488,0,0,1-.834-5.263,14.862,14.862,0,0,1,.907-5.422,7.406,7.406,0,0,1,2.655-3.489,6.375,6.375,0,0,1,3.668-.94,7.381,7.381,0,0,1,3.317.583,4.715,4.715,0,0,1,1.84,1.774,10.319,10.319,0,0,1,1.079,3.045l-3.992,1.013a3.354,3.354,0,0,0-.834-1.649,2.1,2.1,0,0,0-1.5-.569,2.446,2.446,0,0,0-2.178,1.344,8.681,8.681,0,0,0-.795,4.257,8.942,8.942,0,0,0,.795,4.409,2.568,2.568,0,0,0,2.3,1.331,3.119,3.119,0,0,0,1.311-.285,6.5,6.5,0,0,0,1.45-.973V185.1Z" transform="translate(-230.115 -172.611)" fill="#1a1818"/>
    <path id="Path_775" data-name="Path 775" d="M303.782,191.709V172.662h6.892a7.08,7.08,0,0,1,2.946.477,3.457,3.457,0,0,1,1.629,1.721,8.227,8.227,0,0,1,.159,5.826,4.986,4.986,0,0,1-1.331,1.86,3.959,3.959,0,0,1-1.437.768,3.845,3.845,0,0,1,1.066.689,4.9,4.9,0,0,1,.656,1.006,7.439,7.439,0,0,1,.582,1.185l2.02,5.515H312.27l-2.218-5.813a4.151,4.151,0,0,0-.742-1.47,1.379,1.379,0,0,0-1.006-.444h-.377v7.726Zm4.144-11.341h1.761a4.118,4.118,0,0,0,1.092-.252,1.076,1.076,0,0,0,.655-.583,2.29,2.29,0,0,0,.265-1.119,2.115,2.115,0,0,0-.4-1.417,1.932,1.932,0,0,0-1.536-.5h-1.834Z" transform="translate(-216.383 -172.324)" fill="#1a1818"/>
    <path id="Path_776" data-name="Path 776" d="M305.846,182.482c0-3.105.6-5.528,1.821-7.25a6.35,6.35,0,0,1,10.242-.053c1.218,1.7,1.807,4.092,1.807,7.157a16.043,16.043,0,0,1-.781,5.475,7.346,7.346,0,0,1-2.3,3.33,5.777,5.777,0,0,1-3.708,1.192,6.57,6.57,0,0,1-3.754-1.026,7.223,7.223,0,0,1-2.416-3.271A14.455,14.455,0,0,1,305.846,182.482Zm4.144.033a8.63,8.63,0,0,0,.742,4.145,2.309,2.309,0,0,0,2.052,1.258,2.273,2.273,0,0,0,2.059-1.225,9.35,9.35,0,0,0,.741-4.449,7.7,7.7,0,0,0-.761-3.926,2.307,2.307,0,0,0-2.065-1.245,2.256,2.256,0,0,0-2.006,1.265A8.389,8.389,0,0,0,309.99,182.515Z" transform="translate(-204.783 -172.611)" fill="#1a1818"/>
    <path id="Path_777" data-name="Path 777" d="M309.22,172.662h6.892a3.911,3.911,0,0,1,3.363,1.523,7.311,7.311,0,0,1,1.119,4.323,7.464,7.464,0,0,1-1.218,4.522,4.366,4.366,0,0,1-3.727,1.609h-2.264v7.071H309.22Zm4.164,8.137H314.4a2.108,2.108,0,0,0,1.681-.609,2.231,2.231,0,0,0,.5-1.509,2.776,2.776,0,0,0-.424-1.516,1.771,1.771,0,0,0-1.6-.622h-1.165Z" transform="translate(-185.819 -172.324)" fill="#1a1818"/>
    <path id="Path_778" data-name="Path 778" d="M311.275,191.709V172.662h6.892a6.977,6.977,0,0,1,2.926.477,3.409,3.409,0,0,1,1.648,1.721,7.981,7.981,0,0,1,.139,5.826,4.733,4.733,0,0,1-1.311,1.86,4.063,4.063,0,0,1-1.456.768A3.371,3.371,0,0,1,321.2,184a5.647,5.647,0,0,1,.675,1.006,8.989,8.989,0,0,1,.563,1.185l2.026,5.515h-4.694l-2.218-5.813a4.5,4.5,0,0,0-.748-1.47,1.411,1.411,0,0,0-1.026-.444h-.357v7.726Zm4.145-11.341h1.741a4.038,4.038,0,0,0,1.1-.252,1.091,1.091,0,0,0,.676-.583,2.153,2.153,0,0,0,.265-1.119,2.229,2.229,0,0,0-.41-1.417,1.923,1.923,0,0,0-1.536-.5H315.42Z" transform="translate(-174.269 -172.324)" fill="#1a1818"/>
    <path id="Path_779" data-name="Path 779" d="M313.339,182.482c0-3.105.6-5.528,1.821-7.25a5.833,5.833,0,0,1,5.1-2.622,5.949,5.949,0,0,1,5.157,2.569,12.247,12.247,0,0,1,1.8,7.157,16.341,16.341,0,0,1-.794,5.475,7.571,7.571,0,0,1-2.278,3.33,5.929,5.929,0,0,1-3.747,1.192,6.533,6.533,0,0,1-3.734-1.026,7.221,7.221,0,0,1-2.417-3.271A14.455,14.455,0,0,1,313.339,182.482Zm4.145.033a8.711,8.711,0,0,0,.741,4.145,2.3,2.3,0,0,0,2.039,1.258,2.33,2.33,0,0,0,2.092-1.225,9.7,9.7,0,0,0,.708-4.449,7.944,7.944,0,0,0-.748-3.926,2.3,2.3,0,0,0-4.092.02A8.737,8.737,0,0,0,317.484,182.515Z" transform="translate(-162.668 -172.611)" fill="#1a1818"/>
    <path id="Path_780" data-name="Path 780" d="M325.107,184.2l3.635,1.562a11.929,11.929,0,0,1-1.152,3.635,6.075,6.075,0,0,1-1.953,2.2,5.481,5.481,0,0,1-2.973.742,6.387,6.387,0,0,1-3.562-.907,7,7,0,0,1-2.39-3.171,14.422,14.422,0,0,1-1.013-5.826c0-3.158.6-5.568,1.775-7.269a5.733,5.733,0,0,1,5-2.549,5.322,5.322,0,0,1,3.979,1.47,9.161,9.161,0,0,1,2.165,4.482l-3.668,1.139a4.39,4.39,0,0,0-.411-1.265,2.773,2.773,0,0,0-.847-1.039,1.785,1.785,0,0,0-1.119-.377,2.37,2.37,0,0,0-2.158,1.615,9.238,9.238,0,0,0-.569,3.754,9.711,9.711,0,0,0,.675,4.343,2.136,2.136,0,0,0,1.913,1.185,1.961,1.961,0,0,0,1.788-.96A6.93,6.93,0,0,0,325.107,184.2Z" transform="translate(-149.403 -172.611)" fill="#1a1818"/>
    <path id="Path_781" data-name="Path 781" d="M317.971,172.662H329.06v4.072h-6.938v3.032h6.442v3.88h-6.442v3.761h7.157v4.3H317.971Z" transform="translate(-136.633 -172.324)" fill="#1a1818"/>
    <path id="Path_782" data-name="Path 782" d="M319.906,185.687l3.933-.338a5.617,5.617,0,0,0,.529,2.079,1.982,1.982,0,0,0,1.827,1.159,1.638,1.638,0,0,0,1.364-.6,2.222,2.222,0,0,0,.483-1.364,2.107,2.107,0,0,0-.47-1.331,4.376,4.376,0,0,0-2.105-1.1,8.007,8.007,0,0,1-3.88-2.317,5.608,5.608,0,0,1-1.192-3.688,6.516,6.516,0,0,1,.609-2.767,4.749,4.749,0,0,1,1.788-2.052,6.311,6.311,0,0,1,3.3-.761,5.39,5.39,0,0,1,3.939,1.364,6.953,6.953,0,0,1,1.589,4.323l-3.9.324a3.514,3.514,0,0,0-.655-1.867,1.738,1.738,0,0,0-1.364-.589,1.36,1.36,0,0,0-1.1.43,1.657,1.657,0,0,0-.371,1.066,1.233,1.233,0,0,0,.3.814,2.991,2.991,0,0,0,1.4.7,13.631,13.631,0,0,1,3.886,1.688,5.024,5.024,0,0,1,1.715,2.112,7.2,7.2,0,0,1,.536,2.827,7.888,7.888,0,0,1-.729,3.37,5.277,5.277,0,0,1-1.986,2.357,5.933,5.933,0,0,1-3.218.8c-2.291,0-3.867-.622-4.734-1.88A9.058,9.058,0,0,1,319.906,185.687Z" transform="translate(-125.757 -172.611)" fill="#1a1818"/>
    <path id="Path_783" data-name="Path 783" d="M321.945,185.687l3.953-.338a5.916,5.916,0,0,0,.516,2.079,2,2,0,0,0,1.834,1.159,1.643,1.643,0,0,0,1.37-.6,2.142,2.142,0,0,0,.013-2.695,4.366,4.366,0,0,0-2.125-1.1,8.2,8.2,0,0,1-3.88-2.317,5.7,5.7,0,0,1-1.152-3.688,6.7,6.7,0,0,1,.589-2.767,4.663,4.663,0,0,1,1.807-2.052,6.2,6.2,0,0,1,3.3-.761,5.294,5.294,0,0,1,3.913,1.364,6.84,6.84,0,0,1,1.6,4.323l-3.9.324a3.512,3.512,0,0,0-.655-1.867,1.731,1.731,0,0,0-1.384-.589,1.344,1.344,0,0,0-1.079.43,1.657,1.657,0,0,0-.371,1.066,1.233,1.233,0,0,0,.3.814,2.885,2.885,0,0,0,1.4.7,13.658,13.658,0,0,1,3.9,1.688,4.945,4.945,0,0,1,1.7,2.112,7.2,7.2,0,0,1,.55,2.827,7.893,7.893,0,0,1-.722,3.37,5.356,5.356,0,0,1-2.006,2.357,5.884,5.884,0,0,1-3.2.8c-2.284,0-3.88-.622-4.747-1.88A9.245,9.245,0,0,1,321.945,185.687Z" transform="translate(-114.297 -172.611)" fill="#1a1818"/>
    <path id="Path_784" data-name="Path 784" d="M324.124,172.662h4.144v19.047h-4.144Z" transform="translate(-102.05 -172.324)" fill="#1a1818"/>
    <path id="Path_785" data-name="Path 785" d="M325.2,172.662h3.88l5.032,10.54v-10.54h3.919v19.047h-3.919l-4.992-10.454v10.454H325.2Z" transform="translate(-95.991 -172.324)" fill="#1a1818"/>
    <path id="Path_786" data-name="Path 786" d="M334.72,185.1v-3.972h6.415v8.137a12,12,0,0,1-3.257,2.4,7.7,7.7,0,0,1-3.35.662,6.114,6.114,0,0,1-3.88-1.172,7.22,7.22,0,0,1-2.344-3.436,15.5,15.5,0,0,1-.827-5.263,14.448,14.448,0,0,1,.92-5.422,7.184,7.184,0,0,1,2.642-3.489,6.439,6.439,0,0,1,3.661-.94,7.322,7.322,0,0,1,3.317.583,4.6,4.6,0,0,1,1.847,1.774,8.863,8.863,0,0,1,1.079,3.045l-3.992,1.013a3.24,3.24,0,0,0-.828-1.649,2.123,2.123,0,0,0-1.5-.569,2.454,2.454,0,0,0-2.178,1.344,8.484,8.484,0,0,0-.828,4.257,8.651,8.651,0,0,0,.834,4.409,2.561,2.561,0,0,0,2.271,1.331,3.121,3.121,0,0,0,1.331-.285,6.076,6.076,0,0,0,1.45-.973V185.1Z" transform="translate(-83.204 -172.611)" fill="#1a1818"/>
    <path id="Path_787" data-name="Path 787" d="M330.856,172.662H341.1v4.091H335.02v3.33h5.191v3.847H335.02v7.779h-4.164Z" transform="translate(-64.212 -172.324)" fill="#1a1818"/>
    <path id="Path_788" data-name="Path 788" d="M341.845,188.571h-4.681l-.675,3.138h-4.217l5.032-19.047h4.522l5.032,19.047h-4.343Zm-.854-4.131L339.5,177.6l-1.463,6.839Z" transform="translate(-56.253 -172.324)" fill="#1a1818"/>
    <path id="Path_789" data-name="Path 789" d="M343.975,184.2l3.628,1.562a12.9,12.9,0,0,1-1.152,3.635,5.884,5.884,0,0,1-1.973,2.2,5.34,5.34,0,0,1-2.946.742,6.5,6.5,0,0,1-3.582-.907,7.219,7.219,0,0,1-2.377-3.171,14.178,14.178,0,0,1-1.026-5.826c0-3.158.6-5.568,1.768-7.269a5.768,5.768,0,0,1,5.018-2.549,5.312,5.312,0,0,1,3.979,1.47,9.272,9.272,0,0,1,2.152,4.482l-3.648,1.139a6.8,6.8,0,0,0-.391-1.265,3.4,3.4,0,0,0-.847-1.039,1.942,1.942,0,0,0-1.139-.377,2.364,2.364,0,0,0-2.158,1.615,9.239,9.239,0,0,0-.569,3.754,9.488,9.488,0,0,0,.688,4.343,2.075,2.075,0,0,0,1.88,1.185,2,2,0,0,0,1.807-.96A7.141,7.141,0,0,0,343.975,184.2Z" transform="translate(-43.466 -172.611)" fill="#1a1818"/>
    <path id="Path_790" data-name="Path 790" d="M336.679,172.662h12.586v4.714h-4.217v14.333H340.9V177.376h-4.224Z" transform="translate(-31.483 -172.324)" fill="#1a1818"/>
    <path id="Path_791" data-name="Path 791" d="M338.688,182.482a12.469,12.469,0,0,1,1.827-7.25,5.843,5.843,0,0,1,5.091-2.622,5.93,5.93,0,0,1,5.164,2.569,12.3,12.3,0,0,1,1.8,7.157,16.028,16.028,0,0,1-.788,5.475,7.527,7.527,0,0,1-2.284,3.33,5.873,5.873,0,0,1-3.728,1.192,6.57,6.57,0,0,1-3.754-1.026,7.159,7.159,0,0,1-2.4-3.271A14.314,14.314,0,0,1,338.688,182.482Zm4.144.033a8.709,8.709,0,0,0,.742,4.145,2.333,2.333,0,0,0,2.059,1.258,2.307,2.307,0,0,0,2.072-1.225,9.556,9.556,0,0,0,.729-4.449,7.774,7.774,0,0,0-.761-3.926,2.322,2.322,0,0,0-2.066-1.245,2.3,2.3,0,0,0-2.013,1.265A8.462,8.462,0,0,0,342.832,182.515Z" transform="translate(-20.191 -172.611)" fill="#1a1818"/>
    <path id="Path_792" data-name="Path 792" d="M341.132,191.709V172.662h6.892a6.983,6.983,0,0,1,2.94.477,3.362,3.362,0,0,1,1.635,1.721,8.076,8.076,0,0,1,.139,5.826,4.86,4.86,0,0,1-1.3,1.86,3.929,3.929,0,0,1-1.463.768,3.492,3.492,0,0,1,1.092.689,5.275,5.275,0,0,1,.649,1.006,9.053,9.053,0,0,1,.589,1.185l2.006,5.515h-4.681l-2.2-5.813a4.467,4.467,0,0,0-.755-1.47,1.4,1.4,0,0,0-1.019-.444h-.357v7.726Zm4.158-11.341h1.741a4.171,4.171,0,0,0,1.092-.252,1.172,1.172,0,0,0,.682-.583,2.365,2.365,0,0,0,.265-1.119,2.27,2.27,0,0,0-.41-1.417,1.991,1.991,0,0,0-1.556-.5H345.29Z" transform="translate(-6.455 -172.324)" fill="#1a1818"/>
    <path id="Path_793" data-name="Path 793" d="M343,172.662h4.595l2.7,6.429,2.7-6.429h4.575l-5.2,11.07v7.978h-4.157v-7.978Z" transform="translate(4.028 -172.324)" fill="#1a1818"/>
  </g>
</svg>
