<svg xmlns="http://www.w3.org/2000/svg" width="91.865" height="88.62" viewBox="0 0 91.865 88.62"><defs><style>.a{fill:#0a86ff;}.b{fill:#bbc7af;}</style></defs><g transform="translate(-4.07 -5.71)"><path d="M4.07,94.29V86.82h.62v6.92H9v.55Z"/><path d="M18.72,94.29V86.82h.62v7.47Z"/><path d="M30,94.29V86.82h.88l2.84,5.37,2.82-5.37h.89v7.47h-.62v-6.7L34,92.9h-.61l-2.77-5.31v6.7Z"/><path d="M48,94.29V86.82h.62v7.47Z"/><path d="M61.23,94.29V87.37H58.52v-.55h6v.55h-2.7v6.92Z"/><path d="M74.42,94.29V86.82h5v.55H75.05v2.86h3.59v.55H75.05v3h4.39v.55Z"/><path d="M89.55,94.29V86.82h2.51a4.05,4.05,0,0,1,2.74,1,3.45,3.45,0,0,1,1.13,2.75,4.05,4.05,0,0,1-.32,1.63,3.3,3.3,0,0,1-.87,1.18,3.91,3.91,0,0,1-1.23.69,4.37,4.37,0,0,1-1.45.24Zm.63-.55H92a3.2,3.2,0,0,0,2.37-5.58A3.58,3.58,0,0,0,92,87.37H90.18Z"/><path class="a" d="M9.79,82.75H4.27V70.88H9.61c2.41,0,3.85,1.2,3.85,3.08a2.69,2.69,0,0,1-2,2.7,2.89,2.89,0,0,1,2.28,2.86C13.73,81.48,12.29,82.75,9.79,82.75ZM9.05,73.2H7.16v2.48H9.05c.95,0,1.47-.42,1.47-1.23S10,73.2,9.05,73.2Zm.2,4.59H7.16v2.62H9.29c1,0,1.52-.44,1.52-1.28s-.59-1.34-1.56-1.34Z"/><path class="a" d="M20,70.88v9.63h3.79v2.24H17.07V70.88Z"/><path class="a" d="M26.76,70.88h2.88V78a1.93,1.93,0,0,0,2.07,2.21A1.94,1.94,0,0,0,33.8,78V70.9h2.89V78a4.65,4.65,0,0,1-5,4.9,4.54,4.54,0,0,1-4.9-4.9Z"/><path class="a" d="M47.66,73.2H43.28v2.4h3.87v2.23H43.28v2.6h4.38v2.32H40.39V70.88h7.27Z"/><path class="a" d="M62.19,78.41h-1.9v4.52H57.22V70.35h5c3.08,0,4.62,1.73,4.62,4.05C66.81,76.48,65.4,78.41,62.19,78.41ZM62,76c1.22,0,1.74-.6,1.74-1.57s-.52-1.58-1.74-1.58H60.29V76Z"/><path class="a" d="M69.47,74.36h3.07l-1.09,8.56H68.39Z"/><path class="a" d="M73.06,70.77l2.76-.11-.52,3.59-2.76.11Z"/><path class="a" d="M81.2,70.35V80.56h4v2.37H78.14V70.35Z"/><path class="a" d="M91.52,70.35V80.56h4v2.37H88.46V70.35Z"/><path class="a" d="M40.92,28.55c.48-2.25,3.07-15,3.55-17.28l.1-.48s.53-3.67-3.7-5.08L33.4,41.32a10.61,10.61,0,0,0-.31,1.45C32.44,47.22,34.6,51,36,53l2.89-13.5a13.57,13.57,0,0,1,4.44-6.62,14.21,14.21,0,0,1,6.14-2.72,14.41,14.41,0,0,1,7.44.58,14.2,14.2,0,0,1,6.89,5.51c.17.26,3.82,6.15,1.38,12.4a14.42,14.42,0,0,1-11.65,8.64,6.3,6.3,0,0,0-5.36,4.87h0a19.71,19.71,0,0,0,5.51.17,18.78,18.78,0,0,0,17.05-16,19.12,19.12,0,0,0-9.52-19.19,18.37,18.37,0,0,0-20.24,1.47Z"/><path class="b" d="M54,34.57a9.35,9.35,0,0,0-11.08,7.18l-3,13.89a3.1,3.1,0,0,0,.88,2.89h0a20.53,20.53,0,0,0,2.59,2.07l2.16-10.13h0l1.5-6.11a5.24,5.24,0,0,1,.1-1.17,4.75,4.75,0,1,1-.1,1.17c-1.35,5.17-.12,7.1,1.26,7.94a8.74,8.74,0,0,0,1.73.55A9.352,9.352,0,0,0,54,34.57Z"/></g></svg>